<svg width="12" height="12" viewBox="0 0 12 12" fill="none" xmlns="http://www.w3.org/2000/svg">
<path d="M6 12C9.31371 12 12 9.31371 12 6C12 2.68629 9.31371 0 6 0C2.68629 0 0 2.68629 0 6C0 9.31371 2.68629 12 6 12Z" fill="#FFDD67"/>
<path d="M3.70117 5.91992C4.25346 5.91992 4.70117 5.47221 4.70117 4.91992C4.70117 4.36764 4.25346 3.91992 3.70117 3.91992C3.14889 3.91992 2.70117 4.36764 2.70117 4.91992C2.70117 5.47221 3.14889 5.91992 3.70117 5.91992Z" fill="#664E27"/>
<path d="M8.30078 5.91992C8.85307 5.91992 9.30078 5.47221 9.30078 4.91992C9.30078 4.36764 8.85307 3.91992 8.30078 3.91992C7.7485 3.91992 7.30078 4.36764 7.30078 4.91992C7.30078 5.47221 7.7485 5.91992 8.30078 5.91992Z" fill="#664E27"/>
<path d="M8.52055 7.66078C6.90055 8.80078 5.10055 8.78078 3.48055 7.66078C3.28055 7.52078 3.12055 7.76078 3.24055 7.98078C3.74055 8.78078 4.72055 9.52078 6.00055 9.52078C7.28055 9.52078 8.26055 8.80078 8.76055 7.98078C8.88055 7.76078 8.72055 7.52078 8.52055 7.66078Z" fill="#664E27"/>
</svg>
