<svg width="371" height="355" viewBox="0 0 371 355" fill="none" xmlns="http://www.w3.org/2000/svg">
<path d="M97.8775 277.113C64.0458 266.44 39.0235 244.946 21.0789 214.011C22.0009 212.242 23.0062 211.118 24.2813 210.2C34.041 227.854 46.7621 242.596 62.9065 254.061C69.6806 258.871 77.5932 262.079 85.0428 266.163C85.1952 266.359 85.293 266.406 85.3908 266.453C85.2652 266.298 85.1395 266.144 84.8611 265.686C79.4879 261.597 74.0735 258.048 69.0824 253.98C52.2669 240.274 40.5616 222.778 32.1883 202.762C35.4021 200.755 38.5897 199.256 41.3517 197.19C42.7129 196.171 43.2875 194.101 44.218 192.507C42.3175 192.261 40.1441 191.307 38.5729 191.914C35.2292 193.205 32.1984 195.306 28.9892 196.69C25.1678 185.604 23.8518 174.878 26.9378 163.629C30.0007 152.464 32.4695 141.122 34.8184 129.779C38.3931 112.516 45.8342 97.4266 59.0639 85.5694C62.7087 82.3027 66.9999 79.7571 70.9946 76.8806C71.334 77.2923 71.6734 77.7041 72.0128 78.1158C71.6941 79.017 71.5597 80.0482 71.0294 80.8002C60.966 95.071 53.9788 110.54 53.8158 128.291C53.662 145.033 52.0183 162.137 54.7734 178.45C60.419 211.877 78.4026 237.935 108.549 254.654C114.067 257.714 120.076 259.89 125.859 262.474C126.057 262.018 126.256 261.563 126.455 261.108C125.632 260.696 124.759 260.362 123.995 259.86C113.623 253.05 102.247 247.348 93.1302 239.139C77.3353 224.916 68.3773 206.116 62.7597 185.703C56.7223 163.764 55.7681 141.525 60.2476 119.367C65.5285 93.2439 76.7421 70.0697 97.8325 52.6443C110.462 42.2094 125.261 36.9391 141.301 36.2087C157.041 35.4921 171.356 40.7825 183.908 50.4267C187.413 53.1195 190.74 56.0442 194.148 58.8625C194.589 58.298 195.03 57.7335 195.47 57.1689C189.563 52.5101 183.898 47.4949 177.692 43.275C168.139 36.7799 157.786 31.9487 146.01 30.9862C146.003 30.9995 146.026 30.9975 146.021 30.6054C146.352 28.7869 146.689 27.3606 147.025 25.9343C164.676 28.2093 179.282 36.7415 192.469 48.1317C216.367 68.7744 228.896 95.5036 233.887 126.161C238.648 155.404 236.469 184.116 226.525 212.806C225.816 214.851 225.34 216.272 224.864 217.692C219.697 226.147 214.991 234.93 209.257 242.98C200.436 255.364 188.38 264.169 174.513 271.614C172.024 272.769 170.078 273.595 168.132 274.421C154.39 279.034 140.425 282.607 125.786 281.749C119.365 281.373 112.996 280.124 106.282 278.713C106.989 274.542 108.49 270.969 108.789 267.298C108.895 265.994 106.314 263.805 104.546 263.169C101.879 262.21 101.198 264.127 100.819 266.73C100.305 270.259 98.9002 273.659 97.8775 277.113ZM202.455 242.806C202.73 242.602 202.913 242.335 203.299 241.891C203.198 241.926 203.097 241.962 202.543 242.194C202.266 242.396 202.083 242.664 201.702 243.107C201.802 243.073 201.903 243.039 202.455 242.806ZM211.806 79.5409C211.614 79.2557 211.353 79.0701 211.024 78.3278C210.698 77.6652 210.372 77.0026 210.047 76.34C209.754 76.5244 209.461 76.7088 209.168 76.8931C209.774 77.6017 210.379 78.3104 211.193 79.4632C211.387 79.747 211.651 79.9299 212.008 80.612C212.333 81.0789 212.658 81.5457 212.989 82.7675C214.633 86.568 216.369 90.3317 217.905 94.1752C227.818 118.972 228.872 144.715 226.068 170.877C223.727 192.716 217.946 213.514 207.562 232.952C206.991 234.021 206.695 235.238 206.272 236.386C208.311 235.669 209.458 234.412 210.366 233.002C223.269 212.971 229.431 190.707 230.861 167.216C232.054 147.605 231.044 127.942 224.844 109.106C221.774 99.7779 217.013 91.006 212.975 81.3871C212.654 80.9201 212.332 80.453 211.806 79.5409ZM208.582 222.094C221.62 191.673 226.146 160.094 222.152 127.18C218.931 100.634 208.692 77.906 188.971 59.335C167.907 39.4993 138.622 34.3009 112.967 47.569C85.765 61.6372 72.5934 86.3731 65.2073 114.489C60.1487 133.746 60.1369 153.524 63.9234 173.214C68.8232 198.695 78.7354 221.749 98.6553 238.978C116.258 254.203 136.225 264.819 160.735 261.917C170.502 260.761 179.974 258.58 187.917 251.94C197.389 244.021 203.235 233.723 208.582 222.094ZM198.474 61.3312C199.505 63.4091 200.536 65.487 201.567 67.5649C202.165 67.2032 202.763 66.8414 203.361 66.4797C201.923 64.8696 200.485 63.2596 198.474 61.3312ZM204.145 69.0513C204.36 69.5531 204.555 70.0655 204.82 70.5389C204.844 70.5824 205.314 70.3763 205.578 70.2862C205.228 69.739 204.879 69.1918 204.145 69.0513ZM208.197 74.6451C208.149 73.9678 208.101 73.2905 208.052 72.6132C207.762 72.6584 207.472 72.7036 207.181 72.7488C207.332 73.3599 207.483 73.9709 208.197 74.6451ZM204.375 239.219C204.737 239.264 205.098 239.309 205.46 239.355C205.466 239.094 205.473 238.834 205.48 238.573C205.117 238.618 204.754 238.663 204.375 239.219ZM129.508 262.927C129.76 262.781 130.012 262.635 130.264 262.489C130.004 262.353 129.695 262.063 129.496 262.124C129.291 262.188 129.192 262.595 129.508 262.927ZM87.5868 267.48C87.8112 267.536 88.0355 267.592 88.2598 267.648C88.1158 267.51 87.9718 267.372 87.5868 267.48Z" fill="#8CA958"/>
<path d="M146.016 30.9729C157.786 31.9487 168.139 36.7799 177.692 43.275C183.898 47.4949 189.563 52.5101 195.47 57.1689C195.03 57.7335 194.589 58.298 194.148 58.8625C190.74 56.0442 187.413 53.1195 183.908 50.4267C171.355 40.7825 157.041 35.4921 141.301 36.2087C125.261 36.9391 110.462 42.2094 97.8325 52.6443C76.7421 70.0697 65.5285 93.2439 60.2476 119.367C55.7681 141.525 56.7223 163.764 62.7597 185.703C68.3773 206.116 77.3352 224.916 93.1302 239.139C102.247 247.348 113.623 253.05 123.995 259.86C124.759 260.362 125.632 260.696 126.455 261.108C126.256 261.563 126.057 262.018 125.859 262.474C120.076 259.89 114.067 257.714 108.549 254.654C78.4026 237.935 60.419 211.877 54.7734 178.45C52.0183 162.137 53.662 145.033 53.8157 128.291C53.9788 110.54 60.966 95.071 71.0294 80.8002C71.5597 80.0482 71.6941 79.017 72.0128 78.1158C71.6734 77.7041 71.334 77.2923 70.9946 76.8806C66.9999 79.7571 62.7087 82.3027 59.0639 85.5694C45.8341 97.4266 38.3931 112.516 34.8184 129.779C32.4695 141.122 30.0007 152.464 26.9378 163.629C23.8518 174.878 25.1678 185.604 28.8282 196.979C26.1643 199.772 23.6111 201.892 21.0025 203.644C7.10468 172.441 6.36225 140.887 16.987 109.185C24.1591 87.7856 37.7558 70.6243 54.609 55.6106C72.5777 39.6032 93.8521 32.5944 117.061 30.167C121.462 29.7067 123.711 28.8674 123.006 24.1724C120.713 21.9404 118.627 19.4286 116.077 17.5436C112.468 14.8748 108.834 12.4703 109.267 6.62663C114.293 9.0878 118.78 11.2852 124.174 13.9265C124.174 9.63587 124.174 6.59345 124.174 3.55104C124.502 3.43861 124.831 3.32618 125.159 3.21375C126.739 5.57688 128.318 7.94002 129.653 10.6985C124.712 14.7457 131.897 17.1018 130.589 20.5062C129.088 20.5062 127.746 20.5062 125.77 20.5062C129.472 25.8643 128.195 30.2438 124.083 33.9358C131.081 33.9358 137.61 34.0204 144.13 33.8063C144.789 33.7847 145.388 31.9605 146.016 30.9729ZM121.186 35.2622C121.028 35.3765 120.869 35.4908 120.711 35.605C120.932 35.582 121.153 35.559 121.186 35.2622Z" fill="#B4C563"/>
<path d="M122.616 24.2873C123.711 28.8674 121.462 29.7067 117.061 30.167C93.8521 32.5944 72.5777 39.6032 54.6091 55.6106C37.7559 70.6243 24.1591 87.7856 16.9871 109.185C6.3623 140.887 7.10473 172.441 20.8608 203.927C19.6555 205.455 18.5364 206.334 17.4174 207.213C5.51079 182.8 2.66655 157.227 6.65634 130.478C12.3211 92.4993 32.7188 64.2506 63.4131 42.636C77.3155 32.846 93.2091 28.2255 109.901 26.0382C114.011 25.4996 118.118 24.9478 122.616 24.2873Z" fill="#8EAB5A"/>
<path d="M97.8039 277.442C98.9002 273.659 100.305 270.259 100.819 266.73C101.198 264.127 101.879 262.21 104.546 263.169C106.314 263.805 108.895 265.994 108.789 267.298C108.49 270.969 106.989 274.542 105.919 278.532C94.5993 295.668 77.6991 302.548 58.0185 305.657C56.6196 303.449 55.9151 301.35 55.2107 299.252C62.946 297.904 70.8897 297.254 78.3627 295.026C87.2019 292.391 93.7034 286.254 97.8039 277.442Z" fill="#D2983E"/>
<path d="M146.01 30.9862C145.389 31.9605 144.789 33.7847 144.13 33.8063C137.611 34.0204 131.081 33.9358 124.083 33.9358C128.195 30.2438 129.472 25.8643 125.77 20.5062C127.746 20.5062 129.089 20.5062 130.589 20.5062C131.897 17.1018 124.712 14.7457 129.786 11.0197C130.462 10.9907 130.71 11.1282 131.009 11.9234C132.851 15.537 134.841 15.5485 137.333 13.2341C138.705 11.959 140.43 11.0628 141.998 9.99783C142 9.99994 142.004 10.0026 142.003 10.4274C142.083 12.4325 142.163 14.0128 142.283 16.3958C146.614 15.14 150.307 14.0693 153.999 12.9992C153.999 12.9992 154.002 13.0017 153.968 13.3629C153.65 14.8897 153.364 16.0554 153.079 17.2211C152.547 17.7372 152.015 18.2533 150.852 18.8781C143.958 21.4728 142.204 26.4939 146.026 30.9975C146.026 30.9975 146.003 30.9995 146.01 30.9862Z" fill="#A3B362"/>
<path d="M17.3133 207.545C18.5364 206.334 19.6555 205.455 20.9162 204.293C23.6111 201.892 26.1643 199.772 28.8785 197.364C32.1985 195.306 35.2292 193.205 38.5729 191.914C40.1441 191.307 42.3175 192.261 44.2181 192.507C43.2875 194.101 42.7129 196.171 41.3517 197.19C38.5897 199.256 35.4021 200.755 31.8833 202.89C28.9216 205.527 26.4665 207.761 24.0115 209.995C23.0062 211.118 22.001 212.242 20.9359 213.693C13.7582 221.261 11.1244 230.373 9.56564 240.498C7.38447 240.598 5.6284 240.31 3.87231 240.022C4.03343 229.568 8.49371 220.722 14.2167 212.346C15.2283 210.866 16.2125 209.367 17.3133 207.545Z" fill="#D1973C"/>
<path d="M168.287 274.781C170.078 273.595 172.024 272.769 174.307 271.903C180.473 290.827 179.463 309.286 170.125 327.52C166.715 329.628 164.718 327.747 162.695 325.964C165.457 320.316 168.753 314.861 170.87 308.982C175.012 297.482 173.796 286.098 168.287 274.781Z" fill="#D39940"/>
<path d="M162.395 326.187C164.718 327.747 166.715 329.628 170.013 327.887C173.597 329.471 177.21 330.607 180.045 332.764C182.416 334.569 185.451 337.605 185.393 340.029C185.294 344.161 181.802 346.155 177.2 346.098C165.103 345.949 158.106 337.006 162.395 326.187Z" fill="#F7D48B"/>
<path d="M54.8223 299.149C55.9151 301.35 56.6195 303.449 57.6231 305.726C58.2081 309.35 58.4792 312.796 58.7842 316.239C59.0754 319.525 58.9261 322.589 55.3364 324.203C51.7614 325.81 49.1128 324.113 47.131 321.494C41.0283 313.431 43.6621 299.506 54.8223 299.149Z" fill="#F7D48C"/>
<path d="M257.814 224.427C261.64 223.429 265.465 222.421 269.296 221.44C270.092 221.236 270.91 221.018 271.723 220.997C275.443 220.902 278.886 221.65 279.895 225.824C280.595 228.717 276.731 233.029 272.873 232.819C268.056 232.555 263.306 231.051 258.238 229.523C257.904 227.451 257.859 225.939 257.814 224.427Z" fill="#F7D48D"/>
<path d="M3.62988 240.258C5.62844 240.31 7.38451 240.598 9.51956 240.911C11.5042 244.005 13.4014 246.965 14.597 250.186C15.2289 251.888 15.4163 254.93 14.4275 255.797C12.7298 257.286 9.64713 258.66 7.68421 258.121C0.0945358 256.037 -1.44714 248.939 3.62988 240.258Z" fill="#F7D48D"/>
<path d="M257.426 224.322C257.859 225.939 257.904 227.451 257.901 229.341C246.336 227.864 235.454 224.246 225.175 217.889C225.34 216.272 225.816 214.851 226.522 213.205C236.128 218.666 246.296 222.216 257.426 224.322Z" fill="#D39A41"/>
<path d="M141.996 9.99573C140.43 11.0628 138.705 11.959 137.333 13.2341C134.841 15.5485 132.851 15.537 131.1 12.1198C132.866 11.0167 135.046 10.7016 136.335 9.46092C139.019 6.87927 141.231 3.80754 143.637 0.93721C144.159 1.12774 144.681 1.31827 145.203 1.5088C144.563 5.51499 143.923 9.52117 143.083 14.7821C148.876 11.9369 153.927 9.45596 159.951 6.49693C159.468 11.6599 157.428 14.7835 153.412 17.1188C153.364 16.0554 153.65 14.8897 154.21 13.3529C154.761 12.8627 155.037 12.7436 155.313 12.6245C155.226 12.5001 155.138 12.3757 155.051 12.2512C154.7 12.5003 154.35 12.7494 153.999 12.9985C150.306 14.0693 146.614 15.14 142.283 16.3958C142.163 14.0128 142.083 12.4325 142.209 10.3043C142.398 9.40495 142.382 9.05348 142.365 8.70202C142.242 9.13326 142.119 9.56449 141.996 9.99573Z" fill="#B4C563"/>
<path d="M146.021 30.6054C142.204 26.4939 143.958 21.4728 150.591 18.9796C149.596 21.0585 148.232 23.1446 146.947 25.5825C146.689 27.3606 146.352 28.7869 146.021 30.6054Z" fill="#B4C563"/>
<path d="M208.423 222.439C203.235 233.723 197.389 244.021 187.917 251.94C179.974 258.58 170.502 260.761 160.735 261.917C136.225 264.819 116.258 254.203 98.6553 238.978C78.7353 221.749 68.8232 198.695 63.9233 173.214C60.1369 153.524 60.1487 133.746 65.2073 114.489C72.5934 86.3731 85.765 61.6372 112.967 47.569C138.622 34.3009 167.907 39.4993 188.971 59.335C208.692 77.906 218.931 100.634 222.152 127.18C226.146 160.094 221.62 191.673 208.423 222.439ZM171.983 87.4424C172.279 86.1633 172.793 84.8901 172.828 83.6039C172.913 80.5078 169.606 77.6823 167.286 79.2878C164.79 81.0149 162.651 83.8668 161.5 86.6935C160.832 88.3323 162.415 90.8879 162.929 92.8194C166.366 91.2368 168.805 90.1137 171.039 89.6093C170.664 90.3825 170.289 91.1558 169.327 92.2909C165.589 101.285 161.499 110.154 158.255 119.323C156.515 124.24 160.125 127.911 165.348 126.86C181.528 123.604 193.895 114.887 201.342 99.9669C202.463 97.7205 202.708 94.3813 201.964 91.9793C199.543 84.1636 182.272 81.4928 176.103 87.9086C174.732 88.021 173.361 88.1334 171.983 87.4424ZM185.13 128.952C178.595 125.151 174.159 125.161 169.481 128.988C164.874 132.757 163.642 139.093 166.507 144.277C169.708 150.067 175.418 151.851 182.918 150.255C182.695 151.631 182.473 153.007 182.054 155.598C185.157 154.821 188.88 154.898 189.517 153.534C191.17 149.993 186.926 150.509 185.216 149.214C184.966 149.025 184.823 148.696 185.029 147.911C189.328 143.886 190.744 139.142 189.072 132.86C189.951 132.446 190.829 132.031 191.708 131.618C195.823 129.682 197.619 124.81 195.376 120.942C192.917 116.701 190.305 120.4 187.825 121.119C186.491 121.505 185.281 122.317 184.165 122.863C184.778 125.235 185.29 127.217 185.13 128.952ZM173.878 177.16C169.491 176.413 165.104 175.665 160.951 174.244C165.051 170.172 167.411 165.385 167.324 159.637C162.757 160.805 158.391 162.956 154.161 162.715C149.875 162.472 145.722 159.865 140.566 157.941C142.302 165.571 146.89 169.974 151.119 174.008C147.993 174.214 144.646 173.768 141.778 174.738C128.125 179.352 117.783 187.934 111.873 201.334C109.635 206.409 111.071 213.216 114.751 215.851C122.753 221.579 136.548 221.357 144.222 215.038C145.962 213.604 146.795 211.069 148.089 208.57C148.089 208.57 148.146 208.1 148.846 207.904C152.88 196.97 157.177 186.069 153.717 174.338C155.869 174.507 158.022 174.675 160.013 175.655C159.678 177.265 158.66 179.11 159.119 180.448C162.23 189.505 165.391 198.566 169.104 207.387C170.605 210.952 174.359 211.758 178.135 210.779C183.283 209.444 189.588 202.135 189.998 197.151C190.712 188.463 188.154 183.662 180.187 180.045C178.153 179.326 176.119 178.607 173.878 177.16ZM113.457 128.631C111.983 127.443 110.628 125.461 109.013 125.221C104.562 124.559 98.8981 129.365 97.3482 134.461C95.9425 139.082 97.8978 143.951 101.918 146.476C104.981 144.596 107.89 142.811 111.026 141.746C111.746 144.061 112.468 146.375 113.044 149.457C113.386 151.439 113.729 153.42 114.072 155.402C115.399 154.885 116.727 154.368 118.808 154.01C129.242 158.855 139.468 154.977 142.449 144.776C144.401 138.093 142.69 132.058 138.513 126.383C144.745 126.163 148.173 122.445 149.878 116.916C154.319 102.509 150.902 89.8012 141.118 78.6514C137.426 74.4444 133.053 71.4216 127.133 70.9383C117.298 70.1354 110.958 75.8354 106.214 82.9952C100.496 91.6258 97.9148 102.724 111.628 110.404C115.384 112.508 118.993 114.9 122.529 117.362C124.785 118.934 126.782 120.877 128.107 122.69C122.298 122.331 117.795 124.867 113.457 128.631ZM115.557 173.908C119.638 177.084 124.424 176.338 129.673 171.842C132.192 169.684 132.645 167.27 131.173 164.349C129.07 160.175 123.989 157.783 120.469 159.375C115.97 161.409 113.319 168.298 115.557 173.908ZM176.029 168.311C178.086 171.457 184.991 174.631 188.32 173.962C191.678 173.287 193.865 169.047 192.345 165.799C190.69 162.261 188.009 159.855 183.862 160.034C179.168 160.237 177.059 163.398 176.029 168.311ZM153.584 83.7244C153.712 82.4214 154.285 80.9466 153.865 79.8551C153.21 78.1578 151.88 76.7212 150.836 75.1742C149.41 76.1596 146.917 77.0308 146.796 78.1561C146.594 80.0471 147.565 82.3168 148.67 84.0202C149.676 85.572 151.459 87.3819 153.584 83.7244ZM108.385 113.154C108.157 114.767 107.261 117.427 107.828 117.788C109.354 118.76 111.506 118.749 114.104 119.267C113.185 115.431 113.135 112.339 108.385 113.154Z" fill="#F6D288"/>
<path d="M213.018 81.9824C217.013 91.006 221.774 99.7779 224.844 109.106C231.044 127.942 232.054 147.605 230.861 167.216C229.431 190.707 223.269 212.971 210.366 233.002C209.458 234.412 208.311 235.669 206.272 236.386C206.695 235.238 206.991 234.021 207.562 232.952C217.946 213.514 223.727 192.716 226.068 170.877C228.872 144.715 227.818 118.972 217.905 94.1752C216.369 90.3317 214.633 86.568 212.995 82.3832C213.001 81.999 213.018 81.9824 213.018 81.9824Z" fill="#B4C563"/>
<path d="M24.2814 210.2C26.4666 207.761 28.9216 205.527 31.6817 203.164C40.5616 222.778 52.267 240.274 69.0824 253.98C74.0736 258.048 79.4879 261.597 84.8541 265.692C84.9998 266 84.9882 266.015 84.9882 266.015C77.5932 262.079 69.6807 258.871 62.9066 254.061C46.7622 242.596 34.0411 227.854 24.2814 210.2Z" fill="#B3C562"/>
<path d="M198.76 61.4904C200.485 63.2596 201.923 64.8696 203.361 66.4797C202.763 66.8414 202.165 67.2032 201.567 67.5649C200.536 65.487 199.505 63.4091 198.76 61.4904Z" fill="#B4C563"/>
<path d="M204.337 68.8479C204.879 69.1918 205.228 69.739 205.578 70.2862C205.314 70.3763 204.844 70.5824 204.82 70.5389C204.555 70.0655 204.36 69.5531 204.337 68.8479Z" fill="#B4C563"/>
<path d="M210.985 79.019C210.379 78.3104 209.774 77.6017 209.168 76.8931C209.461 76.7088 209.754 76.5244 210.047 76.34C210.372 77.0026 210.698 77.6652 211.012 78.6638C211.001 78.9999 210.985 79.019 210.985 79.019Z" fill="#B4C563"/>
<path d="M207.915 74.6136C207.483 73.9709 207.332 73.3599 207.181 72.7488C207.472 72.7036 207.762 72.6584 208.052 72.6132C208.101 73.2905 208.149 73.9678 207.915 74.6136Z" fill="#B4C563"/>
<path d="M204.383 238.963C204.754 238.663 205.117 238.618 205.48 238.573C205.473 238.834 205.466 239.094 205.46 239.355C205.098 239.309 204.737 239.264 204.383 238.963Z" fill="#B4C563"/>
<path d="M129.277 262.889C129.192 262.595 129.291 262.188 129.496 262.124C129.695 262.063 130.004 262.353 130.264 262.489C130.012 262.635 129.76 262.781 129.277 262.889Z" fill="#B4C563"/>
<path d="M212.992 82.0057C212.658 81.5457 212.333 81.0789 212.004 80.3062C212 80.0003 212.011 79.986 212.011 79.986C212.332 80.453 212.654 80.9201 212.996 81.6848C213.018 81.9824 213.001 81.999 212.992 82.0057Z" fill="#B4C563"/>
<path d="M87.7074 267.357C87.9719 267.372 88.1159 267.51 88.2599 267.648C88.0356 267.592 87.8112 267.536 87.7074 267.357Z" fill="#B3C562"/>
<path d="M211.992 80.0062C211.651 79.9299 211.387 79.747 211.089 79.2411C210.985 79.019 211.001 78.9999 211.011 78.9919C211.353 79.0701 211.615 79.2557 211.908 79.7635C212.011 79.986 212 80.0003 211.992 80.0062Z" fill="#B4C563"/>
<path d="M202.996 241.997C203.097 241.962 203.198 241.926 203.149 241.945C203 242 202.996 241.997 202.996 241.997Z" fill="#B4C563"/>
<path d="M203.001 242.002C202.913 242.335 202.73 242.602 202.227 242.903C202 243 201.996 242.996 201.996 242.996C202.083 242.664 202.266 242.396 202.77 242.095C202.996 241.997 203 242 203.001 242.002Z" fill="#B4C563"/>
<path d="M202.002 243.002C201.903 243.039 201.802 243.073 201.849 243.052C201.996 242.996 202 243 202.002 243.002Z" fill="#B4C563"/>
<path d="M200.529 245.544C200.589 245.507 200.469 245.581 200.529 245.544Z" fill="#B4C563"/>
<path d="M85.0069 265.995C85.1396 266.144 85.2652 266.298 85.3908 266.453C85.293 266.406 85.1953 266.359 85.0428 266.163C84.9882 266.015 84.9998 266 85.0069 265.995Z" fill="#B3C562"/>
<path d="M121.28 35.3991C121.153 35.559 120.932 35.582 120.711 35.605C120.869 35.4908 121.028 35.3765 121.28 35.3991Z" fill="#A3B362"/>
<path d="M154 12.9993C154.35 12.7494 154.7 12.5003 155.051 12.2512C155.138 12.3757 155.226 12.5001 155.313 12.6246C155.037 12.7436 154.761 12.8627 154.243 12.9918C154.002 13.0017 154 12.9993 154 12.9993Z" fill="#A3B362"/>
<path d="M141.998 9.99784C142.119 9.5645 142.242 9.13326 142.365 8.70203C142.381 9.05349 142.398 9.40495 142.209 9.87953C142.004 10.0026 142 9.99995 141.998 9.99784Z" fill="#A3B362"/>
<path d="M128.895 122.654C126.782 120.877 124.785 118.934 122.529 117.362C118.993 114.9 115.384 112.508 111.628 110.404C97.9149 102.724 100.496 91.6258 106.215 82.9952C110.959 75.8354 117.298 70.1354 127.133 70.9383C133.053 71.4216 137.426 74.4444 141.118 78.6514C150.902 89.8012 154.319 102.509 149.878 116.916C148.174 122.445 144.746 126.163 137.936 126.53C134.538 125.336 131.716 123.995 128.895 122.654ZM127.303 115.221C130.615 116.726 132.489 115.294 131.856 112.057C131.292 109.175 129.985 106.102 128.093 103.894C125.322 100.66 122.527 102.38 120.289 105.219C118.1 107.996 118.531 110.578 121.186 112.566C122.724 113.717 124.742 114.228 127.303 115.221ZM121.257 89.6835C122.707 91.3704 123.87 93.726 125.707 94.5176C127.008 95.0785 129.221 93.5252 132.197 92.5206C128.069 89.7204 125.789 86.5206 121.257 89.6835Z" fill="#EBBE68"/>
<path d="M148.045 209.041C146.795 211.069 145.962 213.604 144.222 215.038C136.548 221.357 122.753 221.579 114.751 215.851C111.071 213.216 109.635 206.409 111.873 201.334C117.783 187.934 128.125 179.352 141.778 174.738C144.646 173.768 147.993 174.214 151.829 174.028C152.708 174.072 152.876 174.096 153.045 174.12C157.177 186.069 152.88 196.97 148.44 207.608C146.746 206.256 145.457 205.201 144.169 204.146C143.5 205.108 142.831 206.071 142.162 207.033C143.82 207.825 145.468 208.641 147.149 209.38C147.358 209.472 147.742 209.164 148.045 209.041ZM138.568 181.973C137.102 183.747 135.281 185.345 134.285 187.352C133.504 188.924 132.987 191.454 133.746 192.73C134.512 194.019 136.969 194.822 138.728 194.901C143.53 195.116 146.552 192.378 147.478 187.819C148.101 184.754 147.96 181.534 148.16 178.383C145.153 179.422 142.146 180.462 138.568 181.973Z" fill="#EBBE68"/>
<path d="M176.921 87.8664C182.272 81.4928 199.543 84.1636 201.964 91.9793C202.708 94.3813 202.463 97.7205 201.342 99.9669C193.895 114.887 181.528 123.604 165.348 126.86C160.125 127.911 156.515 124.24 158.255 119.323C161.499 110.154 165.589 101.285 169.649 92.525C171.008 93.8251 172.181 95.8892 173.055 95.7694C175.642 95.4147 178.119 94.2199 180.587 93.224C180.672 93.1898 180.394 91.6207 179.942 91.0282C179.064 89.8762 177.942 88.9097 176.921 87.8664ZM178.376 106.004C171.718 106.844 169.011 110.514 168.503 119.811C174.407 120.532 178.039 116.952 181.284 113.016C183.806 109.957 183.589 107.234 178.376 106.004Z" fill="#EBBE68"/>
<path d="M128.501 122.672C131.716 123.995 134.538 125.336 137.676 126.789C142.69 132.058 144.401 138.093 142.449 144.776C139.468 154.977 129.242 158.855 118.316 153.628C116.279 151.726 114.734 150.208 113.189 148.689C112.468 146.375 111.747 144.061 111.002 140.967C111.994 136.47 113.011 132.753 114.027 129.036C117.795 124.867 122.298 122.331 128.501 122.672ZM121.001 135.866C122.879 135.213 125.107 134.96 126.49 133.745C127.206 133.114 126.973 129.859 126.209 129.406C124.544 128.418 121.689 127.49 120.352 128.281C117.135 130.185 117.447 133.077 121.001 135.866Z" fill="#201D18"/>
<path d="M180.918 180.112C188.154 183.662 190.713 188.463 189.998 197.151C189.588 202.135 183.283 209.444 178.135 210.779C174.36 211.758 170.605 210.952 169.105 207.387C165.391 198.566 162.23 189.505 159.119 180.448C158.66 179.11 159.678 177.265 160.228 175.269C160.444 174.883 160.718 174.918 160.718 174.918C165.105 175.665 169.492 176.413 173.546 177.563C165.343 178.056 165.084 178.177 168.29 185.044C169.398 187.417 172.047 190.444 174.17 190.591C176.399 190.745 179.33 188.188 181.002 186.066C181.956 184.855 181.009 182.146 180.918 180.112ZM168.17 202.067C168.766 203.608 169.362 205.149 169.958 206.69C170.693 206.089 171.427 205.489 172.162 204.889C173.071 203.096 173.98 201.303 175.02 199.253C171.62 197.714 168.91 196.543 168.17 202.067Z" fill="#EBBE68"/>
<path d="M188.617 133.515C190.744 139.142 189.329 143.886 184.585 148.232C183.732 148.836 183.323 149.12 182.914 149.404C175.418 151.851 169.708 150.067 166.507 144.277C163.642 139.093 164.874 132.757 169.481 128.988C174.159 125.161 178.595 125.151 185.503 129.037C185.875 129.123 185.805 129.046 185.888 129.343C186.284 129.894 186.597 130.148 186.98 130.694C187.573 131.829 188.095 132.672 188.617 133.515ZM175.41 135.621C176.283 134.344 177.375 133.143 177.868 131.732C177.982 131.403 176.065 129.811 175.078 129.806C174.084 129.801 172.138 131.369 172.248 131.692C172.735 133.129 173.81 134.367 175.41 135.621Z" fill="#25211B"/>
<path d="M160.834 174.581C160.718 174.918 160.444 174.883 160.309 174.863C158.022 174.675 155.87 174.507 153.381 174.229C152.876 174.096 152.708 174.072 152.285 174.022C146.89 169.974 142.302 165.571 140.566 157.941C145.722 159.865 149.875 162.472 154.161 162.715C158.391 162.956 162.757 160.805 167.324 159.637C167.411 165.385 165.051 170.172 160.834 174.581Z" fill="#D88349"/>
<path d="M113.742 128.833C113.011 132.753 111.994 136.47 110.888 140.607C107.89 142.811 104.981 144.596 101.918 146.476C97.8978 143.951 95.9426 139.082 97.3482 134.461C98.8982 129.365 104.562 124.559 109.013 125.221C110.628 125.461 111.983 127.443 113.742 128.833Z" fill="#EABE69"/>
<path d="M115.346 173.572C113.319 168.298 115.971 161.409 120.47 159.375C123.989 157.783 129.07 160.175 131.173 164.349C132.645 167.27 132.192 169.684 129.673 171.842C124.424 176.338 119.638 177.084 115.346 173.572Z" fill="#EBBE69"/>
<path d="M176.014 167.925C177.059 163.398 179.168 160.237 183.862 160.034C188.009 159.855 190.69 162.261 192.345 165.799C193.865 169.047 191.678 173.287 188.32 173.962C184.991 174.631 178.086 171.457 176.014 167.925Z" fill="#EBBE69"/>
<path d="M180.552 180.079C181.009 182.146 181.956 184.855 181.002 186.066C179.33 188.188 176.399 190.745 174.17 190.591C172.047 190.444 169.398 187.417 168.29 185.044C165.084 178.177 165.343 178.056 173.65 177.927C176.119 178.607 178.153 179.326 180.552 180.079Z" fill="#E0AC49"/>
<path d="M188.845 133.187C188.095 132.672 187.572 131.829 186.893 130.397C186.425 129.554 186.115 129.3 185.805 129.046C185.805 129.046 185.875 129.123 185.838 129.161C185.29 127.217 184.778 125.235 184.165 122.863C185.281 122.317 186.491 121.505 187.825 121.119C190.306 120.4 192.917 116.701 195.377 120.942C197.619 124.81 195.823 129.682 191.708 131.618C190.829 132.031 189.951 132.446 188.845 133.187Z" fill="#EABD68"/>
<path d="M171.245 88.9906C168.805 90.1137 166.366 91.2368 162.929 92.8194C162.415 90.8879 160.832 88.3323 161.5 86.6935C162.651 83.8668 164.79 81.0149 167.286 79.2878C169.606 77.6823 172.913 80.5078 172.828 83.6039C172.793 84.8901 172.279 86.1633 171.904 88.0041C171.676 88.7683 171.483 88.9098 171.245 88.9906Z" fill="#EBBF69"/>
<path d="M171.142 89.2999C171.483 88.9098 171.676 88.7683 171.908 88.4058C173.361 88.1334 174.732 88.021 176.512 87.8875C177.942 88.9097 179.064 89.8762 179.942 91.0282C180.394 91.6207 180.672 93.1898 180.587 93.224C178.119 94.2199 175.642 95.4147 173.055 95.7694C172.181 95.8892 171.008 93.8251 169.943 92.3441C170.289 91.1558 170.664 90.3825 171.142 89.2999Z" fill="#E1AC4A"/>
<path d="M153.409 84.0712C151.46 87.3819 149.677 85.572 148.67 84.0202C147.565 82.3168 146.594 80.0471 146.797 78.1561C146.917 77.0308 149.41 76.1596 150.836 75.1742C151.88 76.7212 153.21 78.1578 153.865 79.8551C154.285 80.9466 153.712 82.4214 153.409 84.0712Z" fill="#EBBF69"/>
<path d="M182.916 149.829C183.323 149.12 183.732 148.836 184.386 148.492C184.823 148.696 184.966 149.025 185.216 149.214C186.926 150.509 191.17 149.993 189.517 153.534C188.88 154.898 185.157 154.821 182.054 155.598C182.473 153.007 182.695 151.631 182.916 149.829Z" fill="#EBBF69"/>
<path d="M108.667 112.911C113.135 112.339 113.185 115.431 114.104 119.267C111.506 118.749 109.354 118.76 107.829 117.788C107.261 117.427 108.157 114.767 108.667 112.911Z" fill="#EBBE69"/>
<path d="M148.067 208.805C147.742 209.164 147.358 209.472 147.149 209.38C145.468 208.641 143.82 207.825 142.162 207.033C142.831 206.071 143.5 205.108 144.169 204.146C145.457 205.201 146.746 206.256 148.09 207.706C148.146 208.1 148.089 208.57 148.067 208.805Z" fill="#E1AC4A"/>
<path d="M113.116 149.073C114.734 150.208 116.279 151.726 117.939 153.548C116.727 154.368 115.399 154.885 114.072 155.402C113.729 153.42 113.386 151.439 113.116 149.073Z" fill="#E2B868"/>
<path d="M126.923 115.124C124.742 114.228 122.724 113.717 121.186 112.566C118.531 110.578 118.099 107.996 120.289 105.219C122.527 102.38 125.322 100.66 128.093 103.894C129.984 106.102 131.292 109.175 131.856 112.057C132.489 115.294 130.615 116.726 126.923 115.124Z" fill="#E0AB49"/>
<path d="M121.453 89.3621C125.789 86.5206 128.069 89.7205 132.197 92.5206C129.221 93.5252 127.008 95.0785 125.707 94.5176C123.87 93.726 122.707 91.3704 121.453 89.3621Z" fill="#E0AC49"/>
<path d="M138.853 181.737C142.146 180.462 145.153 179.422 148.16 178.383C147.96 181.534 148.101 184.754 147.478 187.819C146.552 192.378 143.53 195.116 138.728 194.901C136.969 194.822 134.512 194.019 133.746 192.73C132.987 191.454 133.504 188.924 134.284 187.352C135.281 185.345 137.102 183.747 138.853 181.737Z" fill="#E0AB49"/>
<path d="M178.773 106.018C183.589 107.234 183.806 109.957 181.284 113.016C178.039 116.952 174.407 120.532 168.503 119.811C169.011 110.514 171.718 106.844 178.773 106.018Z" fill="#E0AB49"/>
<path d="M120.637 135.709C117.447 133.077 117.135 130.185 120.352 128.281C121.689 127.49 124.544 128.418 126.209 129.406C126.973 129.859 127.207 133.114 126.49 133.745C125.107 134.96 122.879 135.213 120.637 135.709Z" fill="#ECE7D1"/>
<path d="M168.111 201.684C168.91 196.543 171.62 197.714 175.02 199.253C173.98 201.303 173.071 203.096 172.162 204.889C171.427 205.489 170.693 206.089 169.958 206.69C169.362 205.149 168.766 203.608 168.111 201.684Z" fill="#E1AD4C"/>
<path d="M175.041 135.649C173.81 134.367 172.735 133.129 172.248 131.692C172.138 131.369 174.084 129.801 175.078 129.806C176.065 129.811 177.982 131.403 177.868 131.732C177.375 133.143 176.283 134.344 175.041 135.649Z" fill="#E9E3CD"/>
<path d="M185.887 129.343C186.115 129.3 186.425 129.554 186.823 130.105C186.597 130.148 186.284 129.894 185.887 129.343Z" fill="#F6D288"/>
<rect x="284" y="215.5" width="45" height="75" fill="#F6D288"/>
<path d="M279.465 320.203C262.596 314.881 250.12 304.164 241.173 288.74C241.633 287.858 242.134 287.297 242.77 286.84C247.636 295.642 253.979 302.992 262.028 308.708C265.406 311.107 269.351 312.706 273.066 314.743C273.142 314.84 273.19 314.864 273.239 314.887C273.176 314.81 273.114 314.733 272.975 314.505C270.296 312.466 267.596 310.697 265.108 308.668C256.723 301.834 250.887 293.111 246.712 283.13C248.314 282.13 249.904 281.383 251.281 280.352C251.96 279.844 252.246 278.812 252.71 278.018C251.763 277.895 250.679 277.419 249.895 277.722C248.228 278.365 246.717 279.413 245.117 280.103C243.212 274.576 242.555 269.228 244.094 263.619C245.621 258.052 246.852 252.397 248.023 246.741C249.806 238.134 253.516 230.61 260.112 224.698C261.93 223.069 264.069 221.8 266.061 220.366C266.23 220.571 266.4 220.776 266.569 220.982C266.41 221.431 266.343 221.945 266.078 222.32C261.061 229.436 257.577 237.149 257.496 245.999C257.419 254.347 256.599 262.875 257.973 271.009C260.788 287.675 269.755 300.668 284.786 309.004C287.537 310.53 290.533 311.615 293.417 312.903C293.516 312.676 293.615 312.449 293.714 312.222C293.304 312.017 292.868 311.85 292.487 311.6C287.316 308.205 281.644 305.361 277.098 301.268C269.223 294.177 264.756 284.803 261.955 274.625C258.945 263.686 258.469 252.598 260.703 241.549C263.336 228.525 268.927 216.97 279.443 208.281C285.74 203.078 293.119 200.451 301.116 200.087C308.964 199.729 316.101 202.367 322.36 207.176C324.108 208.518 325.766 209.977 327.466 211.382C327.686 211.1 327.905 210.819 328.125 210.537C325.18 208.214 322.355 205.714 319.261 203.61C314.498 200.371 309.336 197.962 303.464 197.483C303.461 197.489 303.472 197.488 303.469 197.293C303.634 196.386 303.802 195.675 303.97 194.964C312.771 196.098 320.054 200.352 326.629 206.031C338.544 216.324 344.791 229.651 347.28 244.937C349.654 259.518 348.567 273.834 343.609 288.139C343.255 289.158 343.018 289.867 342.781 290.575C340.205 294.791 337.858 299.17 334.999 303.184C330.601 309.358 324.59 313.749 317.676 317.461C316.435 318.037 315.464 318.448 314.494 318.86C307.642 321.16 300.679 322.942 293.38 322.514C290.179 322.326 287.003 321.704 283.656 321C284.008 318.921 284.756 317.139 284.905 315.309C284.958 314.658 283.671 313.567 282.79 313.25C281.46 312.772 281.121 313.728 280.932 315.026C280.675 316.785 279.975 318.48 279.465 320.203ZM331.608 303.097C331.745 302.995 331.836 302.862 332.028 302.64C331.978 302.658 331.928 302.676 331.652 302.791C331.513 302.893 331.422 303.026 331.232 303.247C331.282 303.23 331.333 303.213 331.608 303.097ZM336.27 221.692C336.175 221.55 336.044 221.457 335.88 221.087C335.718 220.757 335.555 220.427 335.393 220.096C335.247 220.188 335.101 220.28 334.955 220.372C335.257 220.725 335.559 221.079 335.965 221.653C336.061 221.795 336.193 221.886 336.371 222.226C336.533 222.459 336.695 222.692 336.86 223.301C337.68 225.196 338.545 227.072 339.311 228.989C344.254 241.353 344.779 254.188 343.381 267.233C342.214 278.122 339.332 288.492 334.154 298.184C333.869 298.717 333.722 299.323 333.511 299.896C334.527 299.538 335.099 298.912 335.552 298.209C341.986 288.221 345.058 277.12 345.771 265.407C346.366 255.629 345.863 245.825 342.771 236.433C341.24 231.782 338.867 227.409 336.853 222.613C336.693 222.38 336.533 222.147 336.27 221.692ZM334.663 292.77C341.164 277.602 343.42 261.856 341.429 245.445C339.823 232.209 334.718 220.877 324.885 211.617C314.382 201.727 299.78 199.135 286.989 205.751C273.426 212.765 266.858 225.099 263.176 239.118C260.653 248.719 260.647 258.58 262.535 268.398C264.978 281.103 269.921 292.598 279.853 301.188C288.63 308.779 298.585 314.072 310.806 312.626C315.676 312.049 320.399 310.962 324.359 307.651C329.082 303.702 331.997 298.568 334.663 292.77ZM329.623 212.613C330.137 213.649 330.651 214.685 331.165 215.721C331.463 215.54 331.762 215.36 332.06 215.18C331.343 214.377 330.625 213.574 329.623 212.613ZM332.451 216.462C332.557 216.712 332.655 216.968 332.787 217.204C332.799 217.225 333.033 217.123 333.165 217.078C332.99 216.805 332.816 216.532 332.451 216.462ZM334.471 219.251C334.447 218.913 334.423 218.576 334.399 218.238C334.254 218.26 334.109 218.283 333.964 218.306C334.04 218.61 334.115 218.915 334.471 219.251ZM332.565 301.308C332.745 301.331 332.926 301.353 333.106 301.376C333.109 301.246 333.113 301.116 333.116 300.986C332.935 301.009 332.754 301.031 332.565 301.308ZM295.236 313.129C295.362 313.056 295.487 312.984 295.613 312.911C295.483 312.843 295.33 312.698 295.23 312.729C295.128 312.761 295.078 312.964 295.236 313.129ZM274.334 315.399C274.446 315.427 274.558 315.455 274.67 315.483C274.598 315.414 274.526 315.346 274.334 315.399Z" fill="#8CA958"/>
<path d="M303.467 197.476C309.336 197.962 314.498 200.371 319.261 203.61C322.355 205.714 325.18 208.214 328.125 210.537C327.905 210.819 327.686 211.1 327.466 211.382C325.766 209.977 324.108 208.518 322.36 207.176C316.101 202.367 308.964 199.729 301.116 200.087C293.119 200.451 285.74 203.078 279.443 208.281C268.927 216.97 263.336 228.525 260.703 241.549C258.469 252.598 258.945 263.686 261.955 274.625C264.756 284.803 269.223 294.177 277.098 301.268C281.644 305.361 287.316 308.205 292.487 311.6C292.868 311.85 293.304 312.017 293.714 312.222C293.615 312.449 293.516 312.676 293.417 312.903C290.534 311.615 287.537 310.53 284.786 309.004C269.755 300.668 260.788 287.675 257.973 271.009C256.599 262.875 257.419 254.347 257.496 245.999C257.577 237.149 261.061 229.436 266.078 222.32C266.343 221.945 266.41 221.431 266.569 220.982C266.4 220.776 266.23 220.571 266.061 220.366C264.069 221.8 261.93 223.069 260.112 224.698C253.516 230.61 249.806 238.134 248.024 246.741C246.852 252.397 245.621 258.052 244.094 263.619C242.556 269.228 243.212 274.576 245.037 280.247C243.709 281.64 242.435 282.697 241.135 283.571C234.205 268.013 233.835 252.28 239.133 236.473C242.709 225.803 249.488 217.246 257.891 209.76C266.85 201.779 277.458 198.284 289.03 197.074C291.224 196.845 291.852 196.341 291.5 194C290.357 192.887 289.811 191.72 288.54 190.78C287.549 190.048 274.687 190.913 266.5 188.5C259.806 186.527 257.399 181.311 257.496 180C260.002 181.227 289.887 187.66 292.577 188.977C292.577 186.837 284.5 181.517 284.5 180C284.664 179.944 285.336 178.056 285.5 178C286.287 179.178 295.109 186.125 295.775 187.5C293.311 189.518 296.427 190.56 295.775 192.257C295.027 192.257 294.358 192.257 293.372 192.257C295.218 194.929 294.582 197.112 292.531 198.953C296.021 198.953 299.276 198.995 302.527 198.889C302.855 198.878 303.154 197.968 303.467 197.476ZM291.087 199.615C291.008 199.672 290.929 199.729 290.85 199.786C290.96 199.774 291.07 199.763 291.087 199.615Z" fill="#B4C563"/>
<path d="M291.8 194.142C292.346 196.426 291.225 196.845 289.03 197.074C277.458 198.284 266.851 201.779 257.891 209.76C249.488 217.246 242.709 225.803 239.133 236.473C233.835 252.28 234.205 268.013 241.064 283.711C240.463 284.473 239.905 284.912 239.347 285.35C233.411 273.178 231.992 260.427 233.982 247.09C236.806 228.153 246.977 214.068 262.281 203.291C269.213 198.41 277.137 196.106 285.46 195.015C287.509 194.747 289.557 194.472 291.8 194.142Z" fill="#8EAB5A"/>
<path d="M279.428 320.367C279.975 318.48 280.675 316.785 280.932 315.026C281.121 313.728 281.46 312.772 282.79 313.25C283.671 313.567 284.958 314.658 284.905 315.309C284.756 317.139 284.008 318.921 283.474 320.91C277.83 329.454 269.404 332.884 259.591 334.434C258.894 333.334 258.542 332.287 258.191 331.241C262.048 330.569 266.009 330.245 269.735 329.134C274.142 327.82 277.384 324.76 279.428 320.367Z" fill="#D2983E"/>
<path d="M303.464 197.483C303.154 197.968 302.855 198.878 302.527 198.889C299.276 198.995 296.021 198.953 292.531 198.953C294.582 197.112 295.218 194.929 293.372 192.257C294.358 192.257 295.027 192.257 295.775 192.257C296.427 190.56 292.845 189.385 295.375 187.527C295.712 187.513 295.836 187.581 295.984 187.978C296.903 189.779 297.895 189.785 299.138 188.631C299.822 187.996 300.682 187.549 301.464 187.018C301.465 187.019 301.467 187.02 301.466 187.232C301.506 188.232 301.546 189.02 301.606 190.208C303.765 189.582 305.606 189.048 307.448 188.514C307.448 188.514 307.449 188.515 307.432 188.695C307.273 189.457 307.131 190.038 306.989 190.619C306.723 190.877 306.458 191.134 305.879 191.445C302.441 192.739 301.567 195.243 303.472 197.488C303.472 197.488 303.461 197.489 303.464 197.483Z" fill="#A3B362"/>
<path d="M239.296 285.515C239.905 284.912 240.463 284.473 241.092 283.894C242.436 282.697 243.709 281.64 245.062 280.439C246.717 279.413 248.228 278.365 249.896 277.722C250.679 277.419 251.763 277.895 252.71 278.018C252.246 278.812 251.96 279.844 251.281 280.352C249.904 281.383 248.315 282.13 246.56 283.195C245.083 284.509 243.859 285.623 242.635 286.737C242.134 287.297 241.633 287.858 241.102 288.581C237.523 292.354 236.21 296.898 235.432 301.946C234.345 301.996 233.469 301.852 232.594 301.709C232.674 296.496 234.898 292.086 237.752 287.91C238.256 287.171 238.747 286.424 239.296 285.515Z" fill="#D1973C"/>
<path d="M314.572 319.04C315.464 318.448 316.435 318.037 317.573 317.604C320.647 327.04 320.144 336.244 315.488 345.336C313.788 346.387 312.792 345.449 311.783 344.559C313.161 341.744 314.804 339.024 315.859 336.092C317.925 330.358 317.318 324.682 314.572 319.04Z" fill="#D39940"/>
<path d="M311.634 344.671C312.792 345.449 313.788 346.387 315.432 345.519C317.219 346.308 319.021 346.875 320.434 347.95C321.617 348.85 323.13 350.364 323.101 351.573C323.051 353.633 321.31 354.627 319.016 354.599C312.984 354.524 309.495 350.065 311.634 344.671Z" fill="#F78B8B"/>
<path d="M257.997 331.19C258.542 332.287 258.894 333.334 259.394 334.469C259.686 336.276 259.821 337.994 259.973 339.711C260.118 341.349 260.044 342.877 258.254 343.682C256.471 344.483 255.151 343.637 254.163 342.331C251.12 338.311 252.433 331.368 257.997 331.19Z" fill="#F78B8B"/>
<path d="M359.21 293.933C361.118 293.435 363.025 292.933 364.935 292.444C365.332 292.342 365.74 292.233 366.145 292.223C368 292.175 369.717 292.548 370.22 294.63C370.569 296.072 368.642 298.222 366.719 298.117C364.317 297.986 361.948 297.236 359.422 296.474C359.255 295.441 359.233 294.687 359.21 293.933Z" fill="#F7D48D"/>
<path d="M232.473 301.826C233.469 301.852 234.345 301.996 235.409 302.152C236.399 303.695 237.345 305.171 237.941 306.776C238.256 307.625 238.35 309.142 237.857 309.574C237.01 310.316 235.473 311.002 234.494 310.733C230.71 309.694 229.941 306.155 232.473 301.826Z" fill="#F7D48D"/>
<path d="M359.017 293.881C359.233 294.687 359.255 295.441 359.253 296.383C353.487 295.647 348.061 293.843 342.936 290.673C343.018 289.867 343.256 289.158 343.608 288.338C348.397 291.061 353.467 292.83 359.017 293.881Z" fill="#D39A41"/>
<path d="M301.463 187.017C300.682 187.549 299.822 187.996 299.138 188.631C297.895 189.785 296.903 189.779 296.03 188.076C296.91 187.526 297.997 187.369 298.64 186.75C299.202 186.209 301.701 182.908 304.5 182C308.366 180.746 315 181.5 314.5 182.5C314.5 182.5 311.74 183.405 312 183.5C311.848 184.45 308.9 183.304 306.854 184.745C304.599 186.334 302.224 188.028 302.005 189.403C303.479 188.679 308.767 186.775 313.5 185C318.04 183.297 331.029 192.222 332.5 191.5C332.5 196.869 320.5 194.597 316 191C311.5 190 308.146 189.992 307.155 190.568C307.131 190.038 307.273 189.457 307.553 188.691C307.827 188.446 307.965 188.387 308.103 188.327C308.059 188.265 308.016 188.203 307.972 188.141C307.797 188.265 307.622 188.39 307.447 188.514C305.606 189.048 303.765 189.582 301.606 190.208C301.546 189.02 301.506 188.232 301.569 187.17C301.663 186.722 301.655 186.547 301.647 186.372C301.585 186.587 301.524 186.802 301.463 187.017Z" fill="#B4C563"/>
<path d="M303.469 197.293C301.567 195.243 302.441 192.739 305.748 191.496C305.252 192.533 304.572 193.573 303.931 194.788C303.802 195.675 303.634 196.386 303.469 197.293Z" fill="#B4C563"/>
<path d="M334.584 292.942C331.997 298.568 329.082 303.702 324.359 307.651C320.399 310.962 315.676 312.049 310.806 312.626C298.585 314.072 288.63 308.779 279.853 301.188C269.921 292.598 264.978 281.103 262.535 268.398C260.647 258.58 260.653 248.719 263.176 239.118C266.858 225.099 273.426 212.765 286.989 205.751C299.78 199.135 314.382 201.727 324.885 211.617C334.718 220.877 339.823 232.209 341.429 245.445C343.42 261.856 341.164 277.602 334.584 292.942ZM316.414 225.632C316.562 224.994 316.818 224.359 316.836 223.718C316.878 222.174 315.229 220.765 314.072 221.566C312.828 222.427 311.762 223.849 311.187 225.258C310.854 226.076 311.644 227.35 311.9 228.313C313.614 227.524 314.83 226.964 315.944 226.712C315.757 227.098 315.57 227.483 315.09 228.049C313.226 232.534 311.187 236.956 309.569 241.528C308.702 243.979 310.502 245.809 313.106 245.285C321.174 243.662 327.34 239.316 331.053 231.877C331.612 230.757 331.734 229.092 331.363 227.894C330.156 223.997 321.545 222.665 318.469 225.864C317.785 225.92 317.101 225.976 316.414 225.632ZM322.97 246.329C319.711 244.434 317.499 244.439 315.167 246.347C312.87 248.226 312.255 251.385 313.684 253.97C315.28 256.857 318.127 257.746 321.867 256.95C321.756 257.637 321.645 258.323 321.436 259.614C322.983 259.227 324.839 259.266 325.157 258.585C325.981 256.82 323.865 257.077 323.012 256.431C322.888 256.337 322.816 256.173 322.919 255.782C325.063 253.775 325.769 251.409 324.935 248.277C325.373 248.071 325.811 247.864 326.25 247.658C328.301 246.693 329.197 244.264 328.078 242.335C326.852 240.22 325.55 242.065 324.313 242.423C323.648 242.616 323.045 243.02 322.489 243.293C322.794 244.475 323.049 245.464 322.97 246.329ZM317.359 270.366C315.172 269.993 312.985 269.62 310.914 268.911C312.958 266.881 314.135 264.495 314.091 261.628C311.814 262.211 309.638 263.283 307.528 263.163C305.391 263.042 303.321 261.742 300.75 260.783C301.615 264.587 303.903 266.783 306.012 268.794C304.453 268.897 302.784 268.674 301.354 269.158C294.547 271.458 289.39 275.737 286.443 282.419C285.328 284.949 286.043 288.343 287.878 289.657C291.868 292.513 298.746 292.402 302.572 289.251C303.44 288.537 303.855 287.273 304.501 286.027C304.501 286.027 304.529 285.792 304.878 285.694C306.89 280.243 309.032 274.807 307.307 268.959C308.38 269.042 309.453 269.126 310.446 269.615C310.279 270.418 309.771 271.338 310 272.005C311.552 276.521 313.128 281.039 314.979 285.437C315.727 287.214 317.599 287.616 319.482 287.128C322.048 286.462 325.192 282.818 325.397 280.333C325.753 276.001 324.477 273.607 320.505 271.804C319.491 271.446 318.477 271.087 317.359 270.366ZM287.233 246.169C286.498 245.576 285.822 244.588 285.017 244.468C282.798 244.139 279.974 246.535 279.201 249.075C278.5 251.38 279.475 253.807 281.48 255.066C283.007 254.129 284.457 253.239 286.021 252.708C286.38 253.862 286.74 255.016 287.027 256.553C287.198 257.541 287.369 258.529 287.539 259.517C288.201 259.259 288.863 259.001 289.901 258.823C295.103 261.239 300.202 259.305 301.688 254.218C302.662 250.887 301.809 247.878 299.726 245.048C302.834 244.938 304.543 243.084 305.393 240.327C307.607 233.144 305.903 226.808 301.025 221.249C299.184 219.151 297.004 217.644 294.052 217.403C289.148 217.003 285.987 219.845 283.622 223.414C280.771 227.718 279.484 233.251 286.321 237.081C288.194 238.13 289.993 239.322 291.756 240.55C292.881 241.334 293.877 242.303 294.537 243.206C291.641 243.027 289.396 244.292 287.233 246.169ZM288.28 268.744C290.315 270.327 292.701 269.956 295.318 267.714C296.575 266.638 296.8 265.434 296.066 263.978C295.018 261.896 292.484 260.704 290.73 261.498C288.486 262.512 287.164 265.947 288.28 268.744ZM318.431 265.953C319.457 267.522 322.9 269.105 324.56 268.771C326.234 268.435 327.325 266.32 326.567 264.701C325.742 262.937 324.405 261.737 322.337 261.826C319.997 261.927 318.945 263.504 318.431 265.953ZM307.24 223.778C307.304 223.128 307.59 222.393 307.38 221.849C307.054 221.003 306.391 220.286 305.87 219.515C305.159 220.006 303.916 220.441 303.856 221.002C303.755 221.945 304.24 223.076 304.79 223.926C305.292 224.699 306.181 225.602 307.24 223.778ZM284.704 238.452C284.59 239.256 284.144 240.582 284.427 240.762C285.187 241.247 286.26 241.242 287.555 241.5C287.097 239.587 287.073 238.046 284.704 238.452Z" fill="#F6D288"/>
<path d="M336.874 222.909C338.867 227.409 341.24 231.782 342.771 236.433C345.863 245.825 346.366 255.629 345.771 265.407C345.058 277.12 341.986 288.221 335.552 298.209C335.099 298.912 334.527 299.538 333.511 299.896C333.722 299.323 333.869 298.717 334.154 298.184C339.332 288.492 342.214 278.122 343.381 267.233C344.78 254.188 344.254 241.353 339.311 228.989C338.545 227.072 337.68 225.196 336.863 223.109C336.866 222.918 336.874 222.909 336.874 222.909Z" fill="#B4C563"/>
<path d="M242.77 286.84C243.859 285.623 245.083 284.509 246.459 283.331C250.887 293.111 256.723 301.834 265.108 308.668C267.596 310.697 270.296 312.466 272.971 314.508C273.044 314.662 273.038 314.669 273.038 314.669C269.351 312.706 265.406 311.107 262.028 308.708C253.979 302.992 247.636 295.642 242.77 286.84Z" fill="#B3C562"/>
<path d="M329.766 212.692C330.625 213.574 331.343 214.377 332.06 215.18C331.762 215.36 331.463 215.541 331.165 215.721C330.651 214.685 330.137 213.649 329.766 212.692Z" fill="#B4C563"/>
<path d="M332.546 216.361C332.816 216.532 332.991 216.805 333.165 217.078C333.034 217.123 332.799 217.225 332.787 217.204C332.655 216.968 332.558 216.712 332.546 216.361Z" fill="#B4C563"/>
<path d="M335.861 221.432C335.559 221.079 335.257 220.725 334.955 220.372C335.101 220.28 335.247 220.188 335.393 220.096C335.556 220.427 335.718 220.757 335.875 221.255C335.869 221.422 335.861 221.432 335.861 221.432Z" fill="#B4C563"/>
<path d="M334.331 219.235C334.115 218.915 334.04 218.61 333.964 218.306C334.109 218.283 334.254 218.26 334.399 218.238C334.423 218.576 334.447 218.913 334.331 219.235Z" fill="#B4C563"/>
<path d="M332.569 301.181C332.754 301.031 332.935 301.009 333.116 300.986C333.113 301.116 333.109 301.246 333.106 301.376C332.926 301.353 332.746 301.331 332.569 301.181Z" fill="#B4C563"/>
<path d="M295.121 313.11C295.079 312.963 295.128 312.761 295.23 312.729C295.33 312.698 295.483 312.843 295.613 312.911C295.488 312.984 295.362 313.056 295.121 313.11Z" fill="#B4C563"/>
<path d="M336.862 222.921C336.695 222.692 336.533 222.459 336.369 222.074C336.367 221.921 336.372 221.914 336.372 221.914C336.533 222.147 336.693 222.38 336.864 222.761C336.874 222.909 336.866 222.918 336.862 222.921Z" fill="#B4C563"/>
<path d="M274.394 315.338C274.526 315.345 274.598 315.414 274.67 315.483C274.558 315.455 274.446 315.427 274.394 315.338Z" fill="#B3C562"/>
<path d="M336.363 221.924C336.193 221.886 336.061 221.795 335.913 221.543C335.861 221.432 335.869 221.422 335.874 221.418C336.044 221.457 336.175 221.55 336.321 221.803C336.372 221.914 336.367 221.921 336.363 221.924Z" fill="#B4C563"/>
<path d="M331.878 302.693C331.928 302.676 331.978 302.658 331.954 302.668C331.88 302.695 331.878 302.693 331.878 302.693Z" fill="#B4C563"/>
<path d="M331.88 302.696C331.836 302.862 331.745 302.995 331.494 303.145C331.381 303.194 331.379 303.192 331.379 303.192C331.423 303.026 331.514 302.893 331.765 302.742C331.878 302.693 331.88 302.695 331.88 302.696Z" fill="#B4C563"/>
<path d="M331.382 303.195C331.333 303.213 331.282 303.23 331.305 303.219C331.379 303.192 331.381 303.194 331.382 303.195Z" fill="#B4C563"/>
<path d="M330.648 304.462C330.679 304.443 330.616 304.481 330.648 304.462Z" fill="#B4C563"/>
<path d="M273.048 314.659C273.114 314.733 273.177 314.81 273.239 314.887C273.19 314.864 273.142 314.84 273.066 314.743C273.038 314.669 273.044 314.662 273.048 314.659Z" fill="#B3C562"/>
<path d="M291.134 199.683C291.07 199.763 290.96 199.774 290.85 199.786C290.929 199.729 291.008 199.672 291.134 199.683Z" fill="#A3B362"/>
<path d="M307.448 188.514C307.622 188.39 307.797 188.265 307.972 188.141C308.016 188.203 308.059 188.265 308.103 188.327C307.965 188.387 307.827 188.446 307.569 188.51C307.449 188.515 307.448 188.514 307.448 188.514Z" fill="#A3B362"/>
<path d="M301.464 187.018C301.524 186.802 301.585 186.587 301.647 186.372C301.655 186.547 301.663 186.722 301.569 186.959C301.467 187.02 301.465 187.019 301.464 187.018Z" fill="#A3B362"/>
<path d="M294.931 243.188C293.877 242.303 292.881 241.334 291.756 240.55C289.994 239.322 288.194 238.13 286.321 237.081C279.484 233.251 280.771 227.718 283.622 223.414C285.987 219.845 289.148 217.003 294.052 217.403C297.004 217.644 299.184 219.151 301.025 221.249C305.903 226.808 307.607 233.144 305.393 240.327C304.543 243.084 302.834 244.938 299.438 245.121C297.744 244.526 296.337 243.857 294.931 243.188ZM294.137 239.482C295.788 240.233 296.723 239.519 296.407 237.905C296.126 236.468 295.474 234.935 294.531 233.835C293.149 232.222 291.755 233.08 290.64 234.495C289.548 235.88 289.763 237.168 291.087 238.158C291.854 238.733 292.86 238.987 294.137 239.482ZM291.122 226.749C291.845 227.59 292.425 228.765 293.341 229.16C293.99 229.439 295.093 228.665 296.577 228.164C294.519 226.768 293.382 225.172 291.122 226.749Z" fill="#F6D288"/>
<path d="M304.479 286.261C303.855 287.273 303.44 288.537 302.572 289.251C298.746 292.402 291.868 292.513 287.878 289.657C286.043 288.343 285.328 284.949 286.443 282.419C289.39 275.737 294.547 271.458 301.354 269.158C302.784 268.674 304.453 268.897 306.366 268.804C306.804 268.826 306.888 268.838 306.972 268.85C309.032 274.807 306.89 280.243 304.676 285.547C303.831 284.873 303.189 284.347 302.546 283.821C302.213 284.301 301.879 284.781 301.546 285.26C302.372 285.655 303.194 286.062 304.032 286.431C304.136 286.476 304.328 286.323 304.479 286.261ZM299.753 272.765C299.023 273.65 298.115 274.447 297.618 275.447C297.229 276.231 296.971 277.492 297.349 278.129C297.731 278.771 298.956 279.172 299.833 279.211C302.228 279.318 303.734 277.953 304.196 275.68C304.507 274.152 304.436 272.546 304.536 270.975C303.037 271.493 301.538 272.012 299.753 272.765Z" fill="#F6D288"/>
<path d="M287.063 256.361C287.869 256.927 288.64 257.684 289.468 258.592C288.863 259.001 288.201 259.259 287.539 259.517C287.369 258.529 287.198 257.541 287.063 256.361Z" fill="#E2B868"/>
<path d="M287.375 246.269C287.01 248.224 286.504 250.077 285.952 252.14C284.457 253.239 283.007 254.129 281.479 255.066C279.475 253.807 278.5 251.38 279.201 249.075C279.974 246.535 282.798 244.139 285.017 244.468C285.822 244.588 286.498 245.576 287.375 246.269Z" fill="#EABE69"/>
<path d="M318.877 225.843C321.545 222.665 330.156 223.997 331.363 227.894C331.734 229.092 331.612 230.757 331.053 231.877C327.34 239.316 321.174 243.662 313.106 245.285C310.502 245.809 308.702 243.979 309.569 241.528C311.187 236.956 313.226 232.534 315.251 228.166C315.928 228.814 316.513 229.843 316.949 229.784C318.239 229.607 319.474 229.011 320.704 228.515C320.746 228.498 320.608 227.715 320.383 227.42C319.945 226.845 319.386 226.363 318.877 225.843ZM319.602 234.887C316.282 235.306 314.933 237.136 314.679 241.771C317.623 242.131 319.434 240.345 321.052 238.383C322.309 236.858 322.201 235.5 319.602 234.887Z" fill="#F6D288"/>
<path d="M301.985 252.643C301.35 254.139 300.705 255.452 300.008 256.913C297.476 259.246 294.577 260.042 291.367 259.134C286.467 257.747 284.604 252.988 287.115 247.904C288.028 246.956 288.758 246.237 289.488 245.518C290.599 245.182 291.711 244.847 293.197 244.5C295.357 244.962 297.143 245.435 298.928 245.908C300.931 247.661 302.149 249.757 301.985 252.643ZM295.647 249.153C295.961 250.027 296.082 251.064 296.666 251.707C296.969 252.041 298.533 251.932 298.75 251.577C299.225 250.802 299.671 249.473 299.291 248.851C298.376 247.354 296.987 247.499 295.647 249.153Z" fill="#E9E3CD"/>
<path d="M293.228 261.483C291.433 260.728 289.857 259.963 288.105 259.134C285.305 256.128 284.35 252.685 285.44 248.874C287.104 243.054 292.814 240.842 298.916 243.824C300.053 244.909 300.916 245.775 301.779 246.642C302.181 247.962 302.584 249.282 303 251.046C302.446 253.611 301.878 255.732 301.311 257.852C299.207 260.23 296.692 261.677 293.228 261.483ZM297.416 253.956C296.368 254.328 295.123 254.473 294.351 255.166C293.951 255.526 294.082 257.383 294.508 257.641C295.438 258.205 297.032 258.734 297.779 258.283C299.575 257.197 299.401 255.547 297.416 253.956Z" fill="#201D18"/>
<path d="M320.869 271.837C324.477 273.607 325.753 276.001 325.397 280.333C325.192 282.818 322.048 286.462 319.482 287.128C317.599 287.616 315.727 287.214 314.979 285.437C313.128 281.039 311.552 276.521 310.001 272.005C309.771 271.338 310.279 270.418 310.554 269.423C310.661 269.23 310.797 269.247 310.797 269.247C312.985 269.62 315.172 269.993 317.194 270.566C313.104 270.812 312.975 270.872 314.573 274.297C315.125 275.48 316.446 276.989 317.505 277.062C318.616 277.139 320.078 275.864 320.911 274.806C321.387 274.202 320.915 272.852 320.869 271.837ZM314.513 282.784C314.81 283.552 315.108 284.321 315.405 285.089C315.771 284.79 316.137 284.49 316.504 284.191C316.957 283.297 317.41 282.403 317.929 281.381C316.234 280.614 314.882 280.03 314.513 282.784Z" fill="#F6D288"/>
<path d="M324.708 248.604C325.769 251.409 325.063 253.775 322.698 255.942C322.272 256.243 322.068 256.385 321.865 256.526C318.127 257.746 315.28 256.857 313.684 253.97C312.255 251.385 312.87 248.226 315.167 246.347C317.499 244.439 319.711 244.434 323.156 246.371C323.341 246.414 323.306 246.376 323.347 246.524C323.545 246.798 323.701 246.925 323.892 247.197C324.187 247.763 324.448 248.183 324.708 248.604ZM318.123 249.654C318.559 249.017 319.103 248.418 319.348 247.715C319.406 247.551 318.45 246.757 317.958 246.754C317.462 246.752 316.492 247.534 316.547 247.695C316.789 248.412 317.325 249.029 318.123 249.654Z" fill="#25211B"/>
<path d="M310.856 269.079C310.797 269.247 310.661 269.23 310.594 269.22C309.453 269.126 308.38 269.042 307.139 268.904C306.888 268.838 306.804 268.826 306.593 268.801C303.903 266.783 301.615 264.587 300.75 260.783C303.321 261.742 305.391 263.042 307.528 263.163C309.638 263.283 311.815 262.211 314.092 261.628C314.135 264.495 312.958 266.881 310.856 269.079Z" fill="#D88349"/>
<path d="M288.175 268.577C287.164 265.947 288.486 262.512 290.73 261.498C292.484 260.704 295.018 261.896 296.066 263.978C296.8 265.434 296.575 266.638 295.318 267.714C292.701 269.956 290.315 270.327 288.175 268.577Z" fill="#F6D288"/>
<path d="M318.424 265.761C318.945 263.504 319.997 261.928 322.337 261.826C324.405 261.737 325.742 262.937 326.567 264.701C327.325 266.32 326.234 268.435 324.56 268.771C322.9 269.105 319.457 267.522 318.424 265.761Z" fill="#F6D288"/>
<path d="M320.687 271.821C320.915 272.852 321.387 274.202 320.911 274.806C320.078 275.864 318.616 277.139 317.505 277.062C316.446 276.989 315.126 275.48 314.573 274.297C312.975 270.872 313.104 270.812 317.246 270.748C318.477 271.087 319.491 271.446 320.687 271.821Z" fill="#E0AC49"/>
<path d="M324.822 248.44C324.448 248.183 324.187 247.763 323.849 247.049C323.615 246.629 323.461 246.502 323.306 246.376C323.306 246.376 323.341 246.414 323.323 246.433C323.049 245.463 322.794 244.475 322.489 243.293C323.045 243.02 323.648 242.616 324.313 242.423C325.55 242.065 326.852 240.22 328.079 242.335C329.197 244.264 328.301 246.693 326.25 247.658C325.811 247.864 325.373 248.071 324.822 248.44Z" fill="#EABD68"/>
<path d="M316.046 226.404C314.83 226.964 313.614 227.524 311.9 228.313C311.644 227.35 310.855 226.076 311.187 225.258C311.762 223.849 312.828 222.427 314.073 221.566C315.229 220.765 316.878 222.174 316.836 223.718C316.818 224.359 316.562 224.994 316.375 225.912C316.261 226.293 316.165 226.364 316.046 226.404Z" fill="#EBBF69"/>
<path d="M315.995 226.558C316.165 226.364 316.262 226.293 316.377 226.112C317.102 225.976 317.785 225.92 318.673 225.854C319.386 226.363 319.945 226.845 320.383 227.42C320.608 227.715 320.747 228.498 320.704 228.515C319.474 229.011 318.239 229.607 316.949 229.784C316.513 229.843 315.928 228.814 315.397 228.076C315.57 227.483 315.757 227.098 315.995 226.558Z" fill="#E1AC4A"/>
<path d="M307.153 223.951C306.181 225.602 305.292 224.699 304.79 223.926C304.24 223.076 303.755 221.945 303.856 221.002C303.916 220.441 305.159 220.006 305.87 219.515C306.391 220.286 307.054 221.003 307.38 221.849C307.59 222.393 307.304 223.128 307.153 223.951Z" fill="#EBBF69"/>
<path d="M321.866 256.738C322.068 256.385 322.272 256.243 322.598 256.072C322.816 256.173 322.888 256.337 323.012 256.431C323.865 257.077 325.981 256.82 325.157 258.585C324.839 259.266 322.983 259.227 321.436 259.615C321.645 258.323 321.756 257.637 321.866 256.738Z" fill="#EBBF69"/>
<path d="M284.845 238.33C287.073 238.046 287.097 239.587 287.556 241.5C286.26 241.242 285.187 241.247 284.427 240.762C284.144 240.582 284.59 239.256 284.845 238.33Z" fill="#F6D288"/>
<path d="M304.49 286.144C304.328 286.323 304.136 286.476 304.032 286.431C303.194 286.062 302.372 285.655 301.546 285.26C301.879 284.781 302.213 284.301 302.546 283.821C303.189 284.347 303.831 284.873 304.501 285.596C304.529 285.792 304.501 286.027 304.49 286.144Z" fill="#E1AC4A"/>
<path d="M293.947 239.434C292.86 238.987 291.854 238.733 291.087 238.158C289.763 237.168 289.548 235.88 290.64 234.495C291.755 233.08 293.149 232.222 294.531 233.835C295.474 234.935 296.126 236.468 296.407 237.905C296.723 239.519 295.788 240.233 293.947 239.434Z" fill="#F6D288"/>
<path d="M291.22 226.589C293.382 225.172 294.518 226.768 296.577 228.164C295.093 228.665 293.99 229.439 293.341 229.16C292.425 228.765 291.845 227.59 291.22 226.589Z" fill="#E0AC49"/>
<path d="M299.896 272.648C301.538 272.012 303.037 271.493 304.536 270.975C304.436 272.546 304.507 274.152 304.196 275.68C303.734 277.953 302.228 279.318 299.833 279.211C298.956 279.172 297.731 278.771 297.349 278.129C296.971 277.492 297.229 276.231 297.618 275.447C298.115 274.447 299.023 273.65 299.896 272.648Z" fill="#F6D288"/>
<path d="M319.8 234.894C322.201 235.5 322.309 236.858 321.052 238.383C319.434 240.345 317.623 242.131 314.679 241.771C314.932 237.136 316.282 235.306 319.8 234.894Z" fill="#F6D288"/>
<path d="M314.484 282.593C314.882 280.03 316.234 280.614 317.929 281.381C317.41 282.403 316.957 283.297 316.504 284.191C316.137 284.49 315.771 284.79 315.405 285.089C315.108 284.321 314.81 283.552 314.484 282.593Z" fill="#E1AD4C"/>
<path d="M317.939 249.668C317.325 249.029 316.789 248.412 316.547 247.695C316.492 247.534 317.462 246.752 317.958 246.754C318.45 246.757 319.406 247.551 319.348 247.715C319.103 248.418 318.559 249.017 317.939 249.668Z" fill="#E9E3CD"/>
<path d="M323.347 246.524C323.461 246.502 323.615 246.629 323.814 246.904C323.701 246.925 323.545 246.798 323.347 246.524Z" fill="#F6D288"/>
</svg>
