<svg width="169" height="41" viewBox="0 0 169 41" fill="none" xmlns="http://www.w3.org/2000/svg">
<path fill-rule="evenodd" clip-rule="evenodd" d="M20 40.5C31.0457 40.5 40 31.5457 40 20.5C40 9.4543 31.0457 0.5 20 0.5C8.9543 0.5 0 9.4543 0 20.5C0 31.5457 8.9543 40.5 20 40.5ZM20 38.4212C10.1024 38.4212 2.07878 30.3976 2.07878 20.5C2.07878 10.6024 10.1024 2.57878 20 2.57878C29.8976 2.57878 37.9212 10.6024 37.9212 20.5C37.9212 30.3976 29.8976 38.4212 20 38.4212ZM8.13709 13.6432C6.87868 15.8319 8.57317 18.289 11.0546 18.7544L15.5686 19.601C16.4956 19.7748 17.3662 19.089 18.0517 18.4413C18.7372 17.7935 19.4712 16.9631 19.3501 16.0278L18.7604 11.4731C18.4362 8.96931 16.0791 7.13844 13.8226 8.27092C12.6458 8.86155 11.5538 9.62366 10.585 10.5391C9.61609 11.4546 8.7934 12.5017 8.13709 13.6432ZM18.256 29.2806C17.7906 31.762 15.3336 33.4565 13.1448 32.1981C12.0033 31.5418 10.9562 30.7191 10.0407 29.7502C9.12526 28.7814 8.36316 27.6894 7.77252 26.5126C6.64004 24.2561 8.47091 21.899 10.9747 21.5748L15.5294 20.9851C16.4647 20.864 17.2951 21.598 17.9429 22.2835C18.5906 22.969 19.2764 23.8396 19.1026 24.7666L18.256 29.2806ZM28.7822 22.0792C31.2636 22.5446 32.9581 25.0016 31.6997 27.1904C31.0434 28.3319 30.2207 29.379 29.2518 30.2945C28.283 31.2099 27.191 31.972 26.0142 32.5627C23.7577 33.6952 21.4006 31.8643 21.0764 29.3605L20.4867 24.8058C20.3656 23.8705 21.0996 23.0401 21.7851 22.3923C22.4706 21.7446 23.3412 21.0588 24.2682 21.2326L28.7822 22.0792ZM21.5808 11.553C22.0462 9.07157 24.5033 7.37708 26.692 8.63548C27.8335 9.29179 28.8806 10.1145 29.7961 11.0834C30.7115 12.0522 31.4736 13.1442 32.0643 14.321C33.1968 16.5775 31.3659 18.9346 28.8621 19.2588L24.3074 19.8485C23.3721 19.9696 22.5417 19.2356 21.8939 18.5501C21.2462 17.8646 20.5604 16.994 20.7342 16.067L21.5808 11.553Z" fill="#ffffff"/>
<path d="M62.4648 11.0351C63.509 11.0351 63.0483 13.7991 62.0656 14.2598C59.7623 13.4306 57.0904 12.9085 54.3572 12.8471V20.3405H61.2057C61.39 21.0469 61.2978 21.8147 61.2057 22.3982H54.3879V28.2332C54.3879 29.431 54.4493 30.8129 54.91 32.0107C54.6028 32.3178 53.8351 32.8399 52.7909 32.8399C51.5932 32.8399 50.7026 32.1028 50.7026 30.9051L50.6718 15.6725C50.6718 14.4747 50.5797 13.1849 50.1498 11.9565C51.0404 11.158 51.8082 11.0351 53.4358 11.0351H62.4648ZM74.0827 16.1946C76.3246 16.1946 77.9215 17.4537 77.9215 19.6342C77.9215 21.139 76.8774 22.2446 75.5875 22.2753C74.8504 22.2753 74.2362 22.0603 73.9291 21.7225C74.3898 20.924 74.4819 20.4327 74.4819 19.6342C74.4819 18.5286 74.0213 17.9451 73.0692 17.9451C71.5337 17.9451 70.4281 20.187 70.4281 25.1314C70.4281 29.3388 70.4281 30.4444 71.0423 31.9185C70.7352 32.2256 69.9981 32.717 68.954 32.717C67.8176 32.717 66.8349 31.98 66.8349 30.6287V20.5555C66.8349 19.3885 66.5585 18.9585 66.0057 18.9585C65.7907 18.9585 65.3915 19.02 65.2072 19.3578C64.9615 18.9585 64.8387 18.59 64.8387 18.1293C64.8387 17.0237 65.6372 16.2253 67.1113 16.2253C68.8004 16.2253 69.906 17.3001 70.0288 19.5728C70.7352 17.3309 72.0865 16.1946 74.0827 16.1946ZM92.6601 28.0797C93.0901 28.2639 93.3972 28.6939 92.9365 29.7995C92.138 31.7343 90.019 32.8399 87.1936 32.8399C82.5562 32.8399 79.5773 29.8609 79.5773 24.5172C79.5773 19.3885 82.2798 16.1946 87.2857 16.1946C90.7253 16.1946 93.3665 17.7608 93.3665 20.8012C93.3665 23.8416 90.6639 25.4692 86.6408 25.4692C85.6273 25.4692 84.6139 25.4692 83.539 25.3464C83.8461 29.216 85.5966 30.5365 88.207 30.5365C90.4489 30.5365 92.0152 29.5231 92.6601 28.0797ZM87.1322 17.5151C84.8596 17.5151 83.4776 19.8799 83.4776 24.0258C83.8461 24.0565 84.2453 24.0873 84.6446 24.0873C86.8251 24.118 89.4355 23.6573 89.4355 20.2177C89.4355 18.0679 88.2992 17.5151 87.1322 17.5151ZM108.705 28.0797C109.135 28.2639 109.442 28.6939 108.982 29.7995C108.183 31.7343 106.064 32.8399 103.239 32.8399C98.6015 32.8399 95.6225 29.8609 95.6225 24.5172C95.6225 19.3885 98.3251 16.1946 103.331 16.1946C106.771 16.1946 109.412 17.7608 109.412 20.8012C109.412 23.8416 106.709 25.4692 102.686 25.4692C101.673 25.4692 100.659 25.4692 99.5842 25.3464C99.8913 29.216 101.642 30.5365 104.252 30.5365C106.494 30.5365 108.06 29.5231 108.705 28.0797ZM103.177 17.5151C100.905 17.5151 99.5228 19.8799 99.5228 24.0258C99.8913 24.0565 100.291 24.0873 100.69 24.0873C102.87 24.118 105.481 23.6573 105.481 20.2177C105.481 18.0679 104.344 17.5151 103.177 17.5151ZM114.616 14.1062C113.48 14.1062 112.558 13.1849 112.558 12.0486C112.558 10.8816 113.48 9.96024 114.616 9.96024C115.783 9.96024 116.704 10.8816 116.704 12.0486C116.704 13.1849 115.783 14.1062 114.616 14.1062ZM111.207 39.4427C108.627 39.4427 107.46 38.3064 107.46 36.8016C107.46 35.8495 108.075 34.9282 109.364 34.9282C110.009 34.9282 110.378 35.1432 110.654 35.696C110.409 36.1259 110.255 36.6173 110.255 37.0165C110.255 37.8765 110.808 38.2143 111.361 38.2143C112.927 38.2143 112.988 35.6038 112.988 32.6556L113.019 20.8012C113.019 19.8184 112.927 18.2215 112.466 16.993C112.988 16.5631 113.695 16.1946 114.524 16.1946C115.691 16.1946 116.582 16.9009 116.582 18.1293V33.3005C116.582 36.5866 115.23 39.4427 111.207 39.4427ZM127.257 32.8399C122.559 32.8399 119.825 29.7381 119.825 24.5172C119.825 19.2964 122.559 16.1946 127.257 16.1946C131.925 16.1946 134.659 19.2964 134.659 24.5172C134.659 29.7381 131.925 32.8399 127.257 32.8399ZM127.257 31.5193C129.591 31.5193 130.728 29.1238 130.728 24.5172C130.728 19.9106 129.591 17.5151 127.257 17.5151C124.893 17.5151 123.726 19.9106 123.726 24.5172C123.726 29.1238 124.893 31.5193 127.257 31.5193ZM152.429 29.5231C152.706 29.9223 152.829 30.383 152.829 30.7208C152.829 31.8264 151.784 32.717 150.157 32.717C148.253 32.717 147.116 31.5807 146.993 28.4789C145.857 30.9665 143.738 32.717 140.913 32.717C138.579 32.717 136.951 31.4272 136.951 29.1238C136.951 26.2984 139.531 24.7629 142.233 23.9951C143.861 23.5345 145.489 23.4116 146.778 23.4116V22.6131C146.778 19.2349 146.011 17.4844 143.8 17.4844C142.479 17.4844 141.373 18.0986 141.373 19.8492C141.373 20.6476 141.619 21.6304 142.51 22.091C142.08 22.5517 141.281 22.7667 140.513 22.7667C138.732 22.7667 137.657 21.5075 137.657 19.972C137.657 17.5151 140.145 16.1946 144.015 16.1946C148.498 16.1946 150.525 18.1601 150.525 22.8588V28.3561C150.525 29.431 150.863 29.9838 151.569 29.9838C151.815 29.9838 152.214 29.8609 152.429 29.5231ZM142.786 30.3216C144.629 30.1987 146.871 27.7419 146.901 24.6401C145.611 24.6093 144.076 24.7629 143.001 25.285C141.773 25.8685 140.943 26.9127 140.943 28.2639C140.943 29.3695 141.435 30.4444 142.786 30.3216ZM159.847 32.8399C155.854 32.8399 154.012 31.3043 154.012 29.216C154.012 28.1411 154.657 26.8819 156.776 27.2198C156.653 27.7419 156.653 28.2332 156.776 28.7553C156.96 30.168 158.096 31.4272 160.307 31.4272C162.027 31.4272 163.348 30.8129 163.348 29.4002C163.348 27.7111 161.474 27.0355 159.54 26.0835C157.175 24.9779 154.534 23.7801 154.534 20.5248C154.534 17.423 157.328 16.1638 160.492 16.1638C163.808 16.1638 166.05 17.208 166.05 19.1735C166.05 20.0641 165.62 20.8933 164.33 20.9547C163.931 20.9855 163.624 20.9547 163.317 20.8933C163.348 20.3712 163.348 19.7263 163.102 19.2349C162.826 18.1908 161.874 17.5151 160.369 17.5151C159.048 17.5151 157.82 18.0372 157.82 19.3271C157.82 21.0776 159.632 21.9068 161.628 22.8588C164.023 23.9951 166.757 25.1928 166.757 28.0183C166.757 30.383 164.975 32.8399 159.847 32.8399Z" fill="#ffffff"/>
</svg>
