<svg width="40" height="40" viewBox="0 0 40 40" fill="none" xmlns="http://www.w3.org/2000/svg">
<path fill-rule="evenodd" clip-rule="evenodd" d="M20 40C31.0457 40 40 31.0457 40 20C40 8.9543 31.0457 0 20 0C8.9543 0 0 8.9543 0 20C0 31.0457 8.9543 40 20 40ZM20 37.9212C10.1024 37.9212 2.07878 29.8976 2.07878 20C2.07878 10.1024 10.1024 2.07878 20 2.07878C29.8976 2.07878 37.9212 10.1024 37.9212 20C37.9212 29.8976 29.8976 37.9212 20 37.9212ZM8.13709 13.1432C6.87868 15.3319 8.57317 17.789 11.0546 18.2544L15.5686 19.101C16.4956 19.2748 17.3662 18.589 18.0517 17.9413C18.7372 17.2935 19.4712 16.4631 19.3501 15.5278L18.7604 10.9731C18.4362 8.46931 16.0791 6.63844 13.8226 7.77092C12.6458 8.36155 11.5538 9.12366 10.585 10.0391C9.61609 10.9546 8.7934 12.0017 8.13709 13.1432ZM18.256 28.7806C17.7906 31.262 15.3336 32.9565 13.1448 31.6981C12.0033 31.0418 10.9562 30.2191 10.0407 29.2502C9.12526 28.2814 8.36316 27.1894 7.77252 26.0126C6.64004 23.7561 8.47091 21.399 10.9747 21.0748L15.5294 20.4851C16.4647 20.364 17.2951 21.098 17.9429 21.7835C18.5906 22.469 19.2764 23.3396 19.1026 24.2666L18.256 28.7806ZM28.7822 21.5792C31.2636 22.0446 32.9581 24.5016 31.6997 26.6904C31.0434 27.8319 30.2207 28.879 29.2518 29.7945C28.283 30.7099 27.191 31.472 26.0142 32.0627C23.7577 33.1952 21.4006 31.3643 21.0764 28.8605L20.4867 24.3058C20.3656 23.3705 21.0996 22.5401 21.7851 21.8923C22.4706 21.2446 23.3412 20.5588 24.2682 20.7326L28.7822 21.5792ZM21.5808 11.053C22.0462 8.57157 24.5033 6.87708 26.692 8.13548C27.8335 8.79179 28.8806 9.61449 29.7961 10.5834C30.7115 11.5522 31.4736 12.6442 32.0643 13.821C33.1968 16.0775 31.3659 18.4346 28.8621 18.7588L24.3074 19.3485C23.3721 19.4696 22.5417 18.7356 21.8939 18.0501C21.2462 17.3646 20.5604 16.494 20.7342 15.567L21.5808 11.053Z" fill="#20AE72"/>
</svg>
