<svg version="1.1" id="Layer_1" xmlns="http://www.w3.org/2000/svg" xmlns:xlink="http://www.w3.org/1999/xlink" x="0px" y="0px"
	 width="100%" viewBox="0 0 350 392" enable-background="new 0 0 350 392" xml:space="preserve">
<path fill="#FFFFFF" opacity="0.000000" stroke="none" 
	d="
M1.000000,146.000000 
	C1.000000,97.349541 1.000000,49.199085 1.000000,1.024314 
	C117.611191,1.024314 234.222397,1.024314 350.916809,1.024314 
	C350.916809,131.567169 350.916809,262.134430 350.916809,392.850830 
	C234.333466,392.850830 117.666763,392.850830 1.000000,392.850830 
	C1.000000,310.777527 1.000000,228.638763 1.000000,146.000000 
M310.526917,250.082855 
	C315.305878,251.051208 320.055603,252.555222 324.873077,252.818512 
	C328.730835,253.029343 332.594666,248.717407 331.895111,245.824142 
	C330.885712,241.649567 327.442535,240.902054 323.722656,240.997086 
	C322.909790,241.017838 322.091553,241.235916 321.295471,241.439835 
	C317.464539,242.421204 313.640289,243.428818 309.038361,244.217743 
	C298.295898,242.215714 288.127594,238.666443 278.758392,232.182129 
	C288.468933,204.116302 290.647858,175.404251 285.887115,146.161087 
	C280.896118,115.503555 268.366852,88.774414 244.468765,68.131744 
	C231.282257,56.741493 216.675980,48.209309 198.868225,45.230747 
	C200.232361,43.144630 201.596497,41.058514 203.483398,38.769367 
	C204.015182,38.253284 204.546967,37.737198 205.745682,37.016560 
	C209.427979,34.783485 211.468079,31.659874 211.951431,26.496935 
	C205.926956,29.455963 200.875931,31.936857 195.083054,34.782131 
	C195.923340,29.521177 196.563202,25.514992 197.203079,21.508806 
	C196.681015,21.318275 196.158936,21.127745 195.636871,20.937214 
	C193.231049,23.807539 191.018967,26.879274 188.335434,29.460924 
	C187.045837,30.701555 184.865891,31.016682 182.906738,31.358082 
	C182.710159,31.128225 182.462341,30.990744 181.897430,30.303152 
	C180.318024,27.940016 178.738632,25.576880 177.159241,23.213741 
	C176.830841,23.326172 176.502457,23.438604 176.174057,23.551035 
	C176.174057,26.593451 176.174057,29.635868 176.174057,33.926537 
	C170.780121,31.285164 166.292877,29.087791 161.266937,26.626623 
	C160.834351,32.470341 164.467834,34.874790 168.077255,37.543571 
	C170.626678,39.428600 172.712692,41.940411 174.227127,44.402138 
	C170.118423,44.947845 166.010513,45.499649 161.900879,46.038189 
	C145.209091,48.225521 129.315460,52.845974 115.413048,62.635952 
	C84.718796,84.250610 64.321121,112.499306 58.656334,150.478134 
	C54.666542,177.227234 57.510777,202.800415 69.209358,227.876434 
	C68.212524,229.366928 67.228325,230.866058 66.216751,232.346481 
	C60.493721,240.722168 56.033440,249.567932 55.387379,260.494537 
	C50.552830,268.938904 52.094505,276.037262 59.684181,278.120819 
	C61.647095,278.659698 64.729744,277.285645 66.427429,275.797272 
	C67.416229,274.930389 67.228821,271.887848 66.596947,270.185638 
	C65.401413,266.964966 63.504173,264.004761 61.990738,260.110657 
	C63.124371,250.372910 65.758209,241.261063 73.162071,234.656357 
	C91.023483,264.946014 116.045860,286.439911 149.730240,297.771210 
	C145.703415,306.253906 139.201904,312.391144 130.362701,315.026367 
	C122.889679,317.254272 114.946030,317.903595 106.433945,319.046021 
	C95.662109,319.505707 93.028358,333.431061 99.131020,341.494080 
	C101.112869,344.112610 103.761482,345.810303 107.336426,344.203033 
	C110.926147,342.589111 111.075409,339.525208 110.784264,336.238525 
	C110.479279,332.795502 110.208168,329.349487 110.712906,325.765015 
	C129.699051,322.548004 146.599289,315.667664 158.602966,299.272156 
	C164.995621,300.124390 171.365082,301.372559 177.785629,301.748779 
	C192.425308,302.606506 206.389786,299.033630 220.442917,295.141998 
	C225.796127,306.097534 227.012344,317.481659 222.870239,328.981598 
	C220.752563,334.861053 217.457520,340.316437 214.095596,346.410736 
	C210.106155,357.005707 217.103363,365.948792 229.199860,366.098145 
	C233.802460,366.154938 237.294128,364.161163 237.393005,360.029449 
	C237.451019,357.605408 234.416382,354.568787 232.044968,352.764282 
	C229.209793,350.606812 225.597321,349.470886 222.545395,347.158569 
	C231.463257,329.285950 232.472977,310.827148 227.056427,291.284821 
	C240.379562,284.169281 252.435898,275.363495 261.256561,262.980347 
	C266.990967,254.929901 271.696991,246.146912 277.486206,238.085434 
	C287.454163,244.245834 298.335846,247.864182 310.526917,250.082855 
z"/>
<path fill="#8CA958" opacity="1.000000" stroke="none" 
	d="
M149.877548,297.113403 
	C116.045860,286.439911 91.023483,264.946014 73.078888,234.011154 
	C74.000977,232.242188 75.006248,231.118423 76.281326,230.200363 
	C86.041016,247.853897 98.762146,262.595917 114.906578,274.060699 
	C121.680656,278.871246 129.593201,282.078644 137.042816,286.163055 
	C137.195251,286.358521 137.293030,286.405762 137.390808,286.453003 
	C137.265182,286.298248 137.139572,286.143494 136.861145,285.686401 
	C131.487885,281.597198 126.073524,278.048218 121.082405,273.979980 
	C104.266968,260.273804 92.561584,242.778076 84.188339,222.761520 
	C87.402145,220.754654 90.589684,219.256424 93.351692,217.189545 
	C94.712906,216.170914 95.287529,214.101151 96.218079,212.507019 
	C94.317551,212.260559 92.144096,211.307175 90.572929,211.913773 
	C87.229248,213.204712 84.198479,215.306137 80.989182,216.689758 
	C77.167839,205.604355 75.851822,194.878235 78.937813,183.629303 
	C82.000778,172.464310 84.469490,161.122055 86.818466,149.778763 
	C90.393158,132.516464 97.834183,117.426575 111.063889,105.569397 
	C114.708771,102.302658 118.999962,99.757050 122.994598,96.880554 
	C123.334015,97.292313 123.673424,97.704071 124.012840,98.115829 
	C123.694138,99.017021 123.559753,100.048187 123.029472,100.800171 
	C112.965988,115.071014 105.978813,130.540436 105.815781,148.291031 
	C105.662010,165.032608 104.018364,182.137238 106.773468,198.449951 
	C112.419014,231.876709 130.402634,257.935181 160.549149,274.653564 
	C166.067505,277.713898 172.076477,279.889526 177.858978,282.473541 
	C178.057510,282.018402 178.256042,281.563263 178.454559,281.108154 
	C177.632233,280.696136 176.758926,280.361786 175.995285,279.860413 
	C165.622787,273.050262 154.247269,267.347748 145.130249,259.138519 
	C129.335281,244.916382 120.377350,226.116333 114.759758,205.703232 
	C108.722313,183.764481 107.768105,161.524750 112.247597,139.366608 
	C117.528580,113.243881 128.742126,90.069656 149.832504,72.644272 
	C162.462067,62.209412 177.261475,56.939072 193.301468,56.208729 
	C209.040955,55.492065 223.355545,60.782467 235.908157,70.426720 
	C239.412994,73.119492 242.739624,76.044212 246.147995,78.862526 
	C246.588776,78.297989 247.029556,77.733459 247.470337,77.168922 
	C241.562820,72.510071 235.897552,67.494926 229.691559,63.275017 
	C220.139511,56.779881 209.785812,51.948723 198.009613,50.986198 
	C198.003464,50.999485 198.026474,50.997490 198.020554,50.605381 
	C198.351593,48.786949 198.688538,47.360626 199.025482,45.934303 
	C216.675980,48.209309 231.282257,56.741493 244.468765,68.131744 
	C268.366852,88.774414 280.896118,115.503555 285.887115,146.161087 
	C290.647858,175.404251 288.468933,204.116302 278.524994,232.806305 
	C277.815674,234.851028 277.339722,236.271576 276.863770,237.692108 
	C271.696991,246.146912 266.990967,254.929901 261.256561,262.980347 
	C252.435898,275.363495 240.379562,284.169281 226.513397,291.614227 
	C224.024170,292.769318 222.077972,293.595032 220.131775,294.420715 
	C206.389786,299.033630 192.425308,302.606506 177.785629,301.748779 
	C171.365082,301.372559 164.995621,300.124390 158.282410,298.712891 
	C158.988892,294.542084 160.489716,290.969086 160.788895,287.298187 
	C160.895203,285.993713 158.313568,283.804535 156.545563,283.168640 
	C153.879089,282.209625 153.197906,284.127228 152.818878,286.730408 
	C152.305054,290.259369 150.900192,293.658539 149.877548,297.113403 
M254.454697,262.805511 
	C254.730392,262.601807 254.913132,262.334534 255.298645,261.890656 
	C255.197754,261.926086 255.096863,261.961517 254.543381,262.193573 
	C254.265945,262.396454 254.083405,262.664032 253.701691,263.106903 
	C253.802368,263.072906 253.903046,263.038910 254.454697,262.805511 
M263.805695,99.540871 
	C263.614441,99.255737 263.352661,99.070068 263.023590,98.327805 
	C262.697937,97.665199 262.372284,97.002594 262.046661,96.339981 
	C261.753754,96.524368 261.460846,96.708755 261.167938,96.893135 
	C261.773682,97.601746 262.379456,98.310356 263.192902,99.463249 
	C263.387085,99.746964 263.651123,99.929886 264.008209,100.612030 
	C264.332977,101.078857 264.657745,101.545685 264.988861,102.767479 
	C266.632599,106.568047 268.368591,110.331741 269.905029,114.175179 
	C279.817780,138.971695 280.872070,164.715469 278.067932,190.877289 
	C275.727142,212.716431 269.946411,233.514221 259.561890,252.952255 
	C258.990692,254.021469 258.695526,255.238174 258.271881,256.386230 
	C260.310577,255.668533 261.457672,254.412430 262.365906,253.002441 
	C275.268921,232.970963 281.431091,210.707031 282.860687,187.216354 
	C284.054169,167.604736 283.044525,147.941681 276.844299,129.106064 
	C273.773712,119.777916 269.013397,111.005997 264.975403,101.387077 
	C264.653900,100.920067 264.332367,100.453049 263.805695,99.540871 
M260.581696,242.093658 
	C273.619995,211.673264 278.145874,180.094055 274.151947,147.180298 
	C270.930603,120.633568 260.692261,97.905975 240.970978,79.335045 
	C219.906616,59.499348 190.621674,54.300949 164.966965,67.568993 
	C137.765015,81.637230 124.593475,106.373100 117.207375,134.489395 
	C112.148773,153.745712 112.136971,173.523712 115.923401,193.214478 
	C120.823212,218.695236 130.735397,241.749130 150.655334,258.977753 
	C168.258347,274.202515 188.224838,284.818542 212.734634,281.917419 
	C222.501984,280.761322 231.973740,278.580444 239.916611,271.939758 
	C249.388580,264.020691 255.234772,253.723328 260.581696,242.093658 
M250.473724,81.331192 
	C251.504974,83.409103 252.536224,85.487015 253.567474,87.564926 
	C254.165436,87.203171 254.763382,86.841415 255.361343,86.479660 
	C253.923050,84.869629 252.484741,83.259598 250.473724,81.331192 
M256.145233,89.051262 
	C256.359558,89.553062 256.554779,90.065544 256.819946,90.538872 
	C256.844330,90.582436 257.314453,90.376328 257.577576,90.286163 
	C257.228058,89.738976 256.878571,89.191788 256.145233,89.051262 
M260.197357,94.645126 
	C260.148956,93.967812 260.100555,93.290497 260.052155,92.613182 
	C259.761871,92.658401 259.471588,92.703621 259.181305,92.748848 
	C259.332123,93.359894 259.482941,93.970940 260.197357,94.645126 
M256.375214,259.219238 
	C256.736664,259.264343 257.098083,259.309418 257.459534,259.354523 
	C257.466370,259.094025 257.473206,258.833557 257.480072,258.573059 
	C257.117035,258.617828 256.753967,258.662598 256.375214,259.219238 
M181.507874,282.927155 
	C181.759995,282.781006 182.012131,282.634857 182.264267,282.488708 
	C182.003860,282.352997 181.695435,282.062592 181.496307,282.124390 
	C181.290939,282.188141 181.191940,282.594604 181.507874,282.927155 
M139.586868,287.479828 
	C139.811203,287.535889 140.035522,287.591949 140.259857,287.648010 
	C140.115860,287.510010 139.971863,287.371979 139.586868,287.479828 
M252.589172,265.507202 
	C252.589172,265.507202 252.468597,265.580872 252.589172,265.507202 
z"/>
<path fill="#B4C563" opacity="1.000000" stroke="none" 
	d="
M198.015747,50.972908 
	C209.785812,51.948723 220.139511,56.779881 229.691559,63.275017 
	C235.897552,67.494926 241.562820,72.510071 247.470337,77.168922 
	C247.029556,77.733459 246.588776,78.297989 246.147995,78.862526 
	C242.739624,76.044212 239.412994,73.119492 235.908157,70.426720 
	C223.355545,60.782467 209.040955,55.492065 193.301468,56.208729 
	C177.261475,56.939072 162.462067,62.209412 149.832504,72.644272 
	C128.742126,90.069656 117.528580,113.243881 112.247597,139.366608 
	C107.768105,161.524750 108.722313,183.764481 114.759758,205.703232 
	C120.377350,226.116333 129.335281,244.916382 145.130249,259.138519 
	C154.247269,267.347748 165.622787,273.050262 175.995285,279.860413 
	C176.758926,280.361786 177.632233,280.696136 178.454559,281.108154 
	C178.256042,281.563263 178.057510,282.018402 177.858978,282.473541 
	C172.076477,279.889526 166.067505,277.713898 160.549149,274.653564 
	C130.402634,257.935181 112.419014,231.876709 106.773468,198.449951 
	C104.018364,182.137238 105.662010,165.032608 105.815781,148.291031 
	C105.978813,130.540436 112.965988,115.071014 123.029472,100.800171 
	C123.559753,100.048187 123.694138,99.017021 124.012840,98.115829 
	C123.673424,97.704071 123.334015,97.292313 122.994598,96.880554 
	C118.999962,99.757050 114.708771,102.302658 111.063889,105.569397 
	C97.834183,117.426575 90.393158,132.516464 86.818466,149.778763 
	C84.469490,161.122055 82.000778,172.464310 78.937813,183.629303 
	C75.851822,194.878235 77.167839,205.604355 80.828209,216.978607 
	C78.164314,219.772339 75.611115,221.891571 73.002502,223.644287 
	C59.104721,192.441345 58.362293,160.887207 68.987045,129.185379 
	C76.159111,107.785583 89.755882,90.624321 106.609062,75.610603 
	C124.577728,59.603172 145.852112,52.594433 169.061310,50.166962 
	C173.462173,49.706669 175.710953,48.867352 175.005585,44.172405 
	C172.712692,41.940411 170.626678,39.428600 168.077255,37.543571 
	C164.467834,34.874790 160.834351,32.470341 161.266937,26.626623 
	C166.292877,29.087791 170.780121,31.285164 176.174057,33.926537 
	C176.174057,29.635868 176.174057,26.593451 176.174057,23.551035 
	C176.502457,23.438604 176.830841,23.326172 177.159241,23.213741 
	C178.738632,25.576880 180.318024,27.940016 181.653351,30.698479 
	C176.711853,34.745678 183.896912,37.101780 182.589325,40.506172 
	C181.088486,40.506172 179.746475,40.506172 177.770218,40.506172 
	C181.472076,45.864285 180.195160,50.243759 176.083359,53.935825 
	C183.081345,53.935825 189.610489,54.020370 196.129837,53.806297 
	C196.788773,53.784660 197.388519,51.960545 198.015747,50.972908 
M173.186417,55.262215 
	C173.027802,55.376492 172.869186,55.490772 172.710556,55.605045 
	C172.931793,55.582039 173.153030,55.559032 173.186417,55.262215 
z"/>
<path fill="#8EAB5A" opacity="1.000000" stroke="none" 
	d="
M174.616364,44.287270 
	C175.710953,48.867352 173.462173,49.706669 169.061310,50.166962 
	C145.852112,52.594433 124.577728,59.603172 106.609062,75.610603 
	C89.755882,90.624321 76.159111,107.785583 68.987045,129.185379 
	C58.362293,160.887207 59.104721,192.441345 72.860794,223.926575 
	C71.655464,225.454514 70.536407,226.333633 69.417351,227.212753 
	C57.510777,202.800415 54.666542,177.227234 58.656334,150.478134 
	C64.321121,112.499306 84.718796,84.250610 115.413048,62.635952 
	C129.315460,52.845974 145.209091,48.225521 161.900879,46.038189 
	C166.010513,45.499649 170.118423,44.947845 174.616364,44.287270 
z"/>
<path fill="#D2983E" opacity="1.000000" stroke="none" 
	d="
M149.803894,297.442322 
	C150.900192,293.658539 152.305054,290.259369 152.818878,286.730408 
	C153.197906,284.127228 153.879089,282.209625 156.545563,283.168640 
	C158.313568,283.804535 160.895203,285.993713 160.788895,287.298187 
	C160.489716,290.969086 158.988892,294.542084 157.918701,298.532043 
	C146.599289,315.667664 129.699051,322.548004 110.018478,325.656494 
	C108.619583,323.449158 107.915131,321.350342 107.210678,319.251556 
	C114.946030,317.903595 122.889679,317.254272 130.362701,315.026367 
	C139.201904,312.391144 145.703415,306.253906 149.803894,297.442322 
z"/>
<path fill="#A3B362" opacity="1.000000" stroke="none" 
	d="
M198.009613,50.986195 
	C197.388519,51.960545 196.788773,53.784660 196.129837,53.806297 
	C189.610489,54.020370 183.081345,53.935825 176.083359,53.935825 
	C180.195160,50.243759 181.472076,45.864285 177.770218,40.506172 
	C179.746475,40.506172 181.088486,40.506172 182.589325,40.506172 
	C183.896912,37.101780 176.711853,34.745678 181.786270,31.019724 
	C182.462341,30.990744 182.710159,31.128225 183.008575,31.923361 
	C184.851151,35.536968 186.841278,35.548496 189.332794,33.234085 
	C190.705414,31.959044 192.429886,31.062771 193.997864,29.997841 
	C194.000000,29.999952 194.003799,30.002645 194.003403,30.427422 
	C194.082932,32.432514 194.162857,34.012833 194.283371,36.395840 
	C198.614014,35.140022 202.306488,34.069267 205.999481,32.999252 
	C206.000000,33.000000 206.001831,33.001678 205.968430,33.362862 
	C205.649612,34.889736 205.364182,36.055428 205.078766,37.221119 
	C204.546967,37.737198 204.015182,38.253284 202.852371,38.878098 
	C195.958084,41.472828 194.204407,46.493896 198.026474,50.997490 
	C198.026474,50.997490 198.003464,50.999485 198.009613,50.986195 
z"/>
<path fill="#D1973C" opacity="1.000000" stroke="none" 
	d="
M69.313354,227.544586 
	C70.536407,226.333633 71.655464,225.454514 72.916222,224.293091 
	C75.611115,221.891571 78.164314,219.772339 80.878487,217.364227 
	C84.198479,215.306137 87.229248,213.204712 90.572929,211.913773 
	C92.144096,211.307175 94.317551,212.260559 96.218079,212.507019 
	C95.287529,214.101151 94.712906,216.170914 93.351692,217.189545 
	C90.589684,219.256424 87.402145,220.754654 83.883308,222.890213 
	C80.921577,225.526993 78.466553,227.760834 76.011520,229.994675 
	C75.006248,231.118423 74.000977,232.242188 72.935867,233.692963 
	C65.758209,241.261063 63.124371,250.372910 61.565651,260.498291 
	C59.384483,260.597839 57.628407,260.309784 55.872326,260.021729 
	C56.033440,249.567932 60.493721,240.722168 66.216751,232.346481 
	C67.228325,230.866058 68.212524,229.366928 69.313354,227.544586 
z"/>
<path fill="#D39940" opacity="1.000000" stroke="none" 
	d="
M220.287354,294.781372 
	C222.077972,293.595032 224.024170,292.769318 226.307144,291.902588 
	C232.472977,310.827148 231.463257,329.285950 222.125153,347.519928 
	C218.715317,349.628448 216.718430,347.746796 214.694641,345.963501 
	C217.457520,340.316437 220.752563,334.861053 222.870239,328.981598 
	C227.012344,317.481659 225.796127,306.097534 220.287354,294.781372 
z"/>
<path fill="#F7D48B" opacity="1.000000" stroke="none" 
	d="
M214.395111,346.187134 
	C216.718430,347.746796 218.715317,349.628448 222.013245,347.886902 
	C225.597321,349.470886 229.209793,350.606812 232.044968,352.764282 
	C234.416382,354.568787 237.451019,357.605408 237.393005,360.029449 
	C237.294128,364.161163 233.802460,366.154938 229.199860,366.098145 
	C217.103363,365.948792 210.106155,357.005707 214.395111,346.187134 
z"/>
<path fill="#F7D48C" opacity="1.000000" stroke="none" 
	d="
M106.822311,319.148804 
	C107.915131,321.350342 108.619583,323.449158 109.623146,325.726379 
	C110.208168,329.349487 110.479279,332.795502 110.784264,336.238525 
	C111.075409,339.525208 110.926147,342.589111 107.336426,344.203033 
	C103.761482,345.810303 101.112869,344.112610 99.131020,341.494080 
	C93.028358,333.431061 95.662109,319.505707 106.822311,319.148804 
z"/>
<path fill="#F7D48D" opacity="1.000000" stroke="none" 
	d="
M309.813660,244.427124 
	C313.640289,243.428818 317.464539,242.421204 321.295471,241.439835 
	C322.091553,241.235916 322.909790,241.017838 323.722656,240.997086 
	C327.442535,240.902054 330.885712,241.649567 331.895111,245.824142 
	C332.594666,248.717407 328.730835,253.029343 324.873077,252.818512 
	C320.055603,252.555222 315.305878,251.051208 310.238220,249.523071 
	C309.904236,247.451218 309.858948,245.939163 309.813660,244.427124 
z"/>
<path fill="#F7D48D" opacity="1.000000" stroke="none" 
	d="
M55.629852,260.258118 
	C57.628407,260.309784 59.384483,260.597839 61.519531,260.911133 
	C63.504173,264.004761 65.401413,266.964966 66.596947,270.185638 
	C67.228821,271.887848 67.416229,274.930389 66.427429,275.797272 
	C64.729744,277.285645 61.647095,278.659698 59.684181,278.120819 
	C52.094505,276.037262 50.552830,268.938904 55.629852,260.258118 
z"/>
<path fill="#D39A41" opacity="1.000000" stroke="none" 
	d="
M309.426025,244.322418 
	C309.858948,245.939163 309.904236,247.451218 309.900452,249.341217 
	C298.335846,247.864182 287.454163,244.245834 277.174988,237.888763 
	C277.339722,236.271576 277.815674,234.851028 278.521973,233.205139 
	C288.127594,238.666443 298.295898,242.215714 309.426025,244.322418 
z"/>
<path fill="#B4C563" opacity="1.000000" stroke="none" 
	d="
M193.995728,29.995731 
	C192.429886,31.062771 190.705414,31.959044 189.332794,33.234085 
	C186.841278,35.548496 184.851151,35.536968 183.099777,32.119781 
	C184.865891,31.016682 187.045837,30.701555 188.335434,29.460924 
	C191.018967,26.879274 193.231049,23.807539 195.636871,20.937214 
	C196.158936,21.127745 196.681015,21.318275 197.203079,21.508806 
	C196.563202,25.514992 195.923340,29.521177 195.083054,34.782131 
	C200.875931,31.936857 205.926956,29.455963 211.951431,26.496935 
	C211.468079,31.659874 209.427979,34.783485 205.412231,37.118843 
	C205.364182,36.055428 205.649612,34.889736 206.209808,33.352936 
	C206.760757,32.862740 207.036942,32.743645 207.313110,32.624554 
	C207.225739,32.500118 207.138351,32.375675 207.050964,32.251232 
	C206.700302,32.500324 206.349640,32.749420 205.998962,32.998512 
	C202.306488,34.069267 198.614014,35.140022 194.283371,36.395840 
	C194.162857,34.012833 194.082932,32.432514 194.208923,30.304302 
	C194.398209,29.404949 194.381561,29.053486 194.364914,28.702024 
	C194.241852,29.133261 194.118790,29.564495 193.995728,29.995731 
z"/>
<path fill="#B4C563" opacity="1.000000" stroke="none" 
	d="
M198.020554,50.605381 
	C194.204407,46.493896 195.958084,41.472828 202.590973,38.979614 
	C201.596497,41.058514 200.232361,43.144630 198.946854,45.582527 
	C198.688538,47.360626 198.351593,48.786949 198.020554,50.605381 
z"/>
<path fill="#F6D288" opacity="1.000000" stroke="none" 
	d="
M260.423157,242.438721 
	C255.234772,253.723328 249.388580,264.020691 239.916611,271.939758 
	C231.973740,278.580444 222.501984,280.761322 212.734634,281.917419 
	C188.224838,284.818542 168.258347,274.202515 150.655334,258.977753 
	C130.735397,241.749130 120.823212,218.695236 115.923401,193.214478 
	C112.136971,173.523712 112.148773,153.745712 117.207375,134.489395 
	C124.593475,106.373100 137.765015,81.637230 164.966965,67.568993 
	C190.621674,54.300949 219.906616,59.499348 240.970978,79.335045 
	C260.692261,97.905975 270.930603,120.633568 274.151947,147.180298 
	C278.145874,180.094055 273.619995,211.673264 260.423157,242.438721 
M223.983032,107.442352 
	C224.279175,106.163254 224.792938,104.890106 224.828140,103.603867 
	C224.912872,100.507828 221.606232,97.682320 219.286057,99.287834 
	C216.790314,101.014854 214.651337,103.866753 213.499741,106.693497 
	C212.832108,108.332275 214.414932,110.887886 214.928757,112.819443 
	C218.366089,111.236832 220.805389,110.113724 223.038757,109.609261 
	C222.663818,110.382545 222.288879,111.155830 221.327438,112.290871 
	C217.589218,121.284767 213.498993,130.154114 210.254669,139.322769 
	C208.514862,144.239532 212.125046,147.910583 217.347641,146.859695 
	C233.528137,143.603943 245.895081,134.886963 253.342148,119.966904 
	C254.463394,117.720467 254.707779,114.381256 253.963791,111.979340 
	C251.542801,104.163628 234.272095,101.492767 228.103439,107.908592 
	C226.732269,108.020988 225.361099,108.133392 223.983032,107.442352 
M237.130493,148.951614 
	C230.595078,145.151184 226.158737,145.161484 221.481461,148.987930 
	C216.874130,152.757156 215.641647,159.093277 218.507416,164.277359 
	C221.707977,170.067062 227.417679,171.851105 234.918060,170.254730 
	C234.695450,171.630951 234.472839,173.007172 234.053772,175.597916 
	C237.156601,174.821487 240.880051,174.898224 241.517029,173.533920 
	C243.170258,169.992950 238.926437,170.508560 237.215897,169.213959 
	C236.966446,169.025162 236.822952,168.696381 237.029099,167.911240 
	C241.328476,163.885788 242.744278,159.141708 241.072495,152.859726 
	C241.951126,152.445740 242.829514,152.031281 243.708420,151.617889 
	C247.822952,149.682495 249.619308,144.810242 247.376541,140.942062 
	C244.917435,136.700760 242.305542,140.399811 239.824661,141.118652 
	C238.491333,141.504990 237.281235,142.316544 236.165436,142.862808 
	C236.777893,145.234863 237.289597,147.216705 237.130493,148.951614 
M225.878464,197.160141 
	C221.491486,196.412598 217.104523,195.665054 212.950775,194.243561 
	C217.051117,190.171783 219.410782,185.385284 219.324112,179.636719 
	C214.757401,180.805008 210.391403,182.955582 206.161148,182.715378 
	C201.874619,182.471985 197.722305,179.865372 192.565643,177.940979 
	C194.301819,185.571106 198.890198,189.974213 203.119324,194.007614 
	C199.993011,194.213928 196.646255,193.768082 193.777878,194.737579 
	C180.125290,199.352097 169.783386,207.933578 163.873322,221.334366 
	C161.635300,226.408920 163.070709,233.216156 166.750961,235.850586 
	C174.752625,241.578506 188.548157,241.357086 196.221649,235.037567 
	C197.961990,233.604309 198.794754,231.069031 200.088715,228.569992 
	C200.088715,228.569992 200.145966,228.100449 200.846069,227.903854 
	C204.880341,216.969894 209.176910,206.068527 205.717056,194.338303 
	C207.869537,194.506500 210.022018,194.674698 212.012558,195.655319 
	C211.678009,197.265427 210.659866,199.110367 211.119247,200.447754 
	C214.230438,209.505325 217.391388,218.566116 221.104492,227.386688 
	C222.605270,230.951813 226.359512,231.757965 230.134918,230.778900 
	C235.282608,229.443970 241.587753,222.134628 241.997726,217.151169 
	C242.712494,208.463211 240.154129,203.662186 232.186981,200.045319 
	C230.153198,199.326294 228.119431,198.607254 225.878464,197.160141 
M165.456635,148.630753 
	C163.983139,147.443314 162.627808,145.460678 161.013504,145.220810 
	C156.562302,144.559387 150.898193,149.365005 149.348236,154.460800 
	C147.942596,159.082153 149.897873,163.950623 153.917740,166.475632 
	C156.981522,164.595657 159.890121,162.810898 163.025558,161.746399 
	C163.746552,164.060532 164.467560,166.374680 165.043655,169.456894 
	C165.386322,171.438538 165.728973,173.420197 166.071625,175.401840 
	C167.399200,174.884933 168.726761,174.368027 170.807999,174.010193 
	C181.241852,178.855179 191.468338,174.977432 194.448624,164.775528 
	C196.400711,158.093369 194.690430,152.058289 190.512619,146.382828 
	C196.745529,146.163330 200.173462,142.444946 201.877777,136.915939 
	C206.318802,122.508728 202.901947,109.801155 193.117706,98.651421 
	C189.425888,94.444359 185.052811,91.421608 179.132812,90.938301 
	C169.297928,90.135391 162.958511,95.835426 158.214508,102.995232 
	C152.496002,111.625809 149.914871,122.723587 163.628220,130.404495 
	C167.384186,132.508240 170.993210,134.900223 174.528641,137.362427 
	C176.784760,138.933670 178.781738,140.877045 180.106674,142.689514 
	C174.298279,142.330566 169.794693,144.866547 165.456635,148.630753 
M167.556641,193.907898 
	C171.637802,197.083694 176.424225,196.337875 181.673065,191.841827 
	C184.192337,189.683868 184.645401,187.270233 183.173325,184.348648 
	C181.070175,180.174530 175.989014,177.783386 172.469528,179.374771 
	C167.970535,181.409073 165.319351,188.298370 167.556641,193.907898 
M228.028595,188.311356 
	C230.086197,191.456955 236.991074,194.631485 240.320038,193.962372 
	C243.677902,193.287445 245.865280,189.047363 244.345383,185.798538 
	C242.690262,182.260620 240.009018,179.855026 235.862183,180.034119 
	C231.167847,180.236862 229.059219,183.398087 228.028595,188.311356 
M205.583923,103.724419 
	C205.711807,102.421402 206.285355,100.946602 205.864594,99.855072 
	C205.210327,98.157822 203.879852,96.721230 202.835999,95.174164 
	C201.409775,96.159592 198.917038,97.030792 198.796524,98.156059 
	C198.593979,100.047066 199.565201,102.316765 200.670029,104.020210 
	C201.676514,105.572044 203.459473,107.381920 205.583923,103.724419 
M160.385361,133.154480 
	C160.156799,134.766525 159.260666,137.426727 159.828491,137.788376 
	C161.354233,138.760132 163.505676,138.749481 166.103668,139.267487 
	C165.184662,135.430908 165.135452,132.339462 160.385361,133.154480 
z"/>
<path fill="#B4C563" opacity="1.000000" stroke="none" 
	d="
M265.017548,101.982422 
	C269.013397,111.005997 273.773712,119.777916 276.844299,129.106064 
	C283.044525,147.941681 284.054169,167.604736 282.860687,187.216354 
	C281.431091,210.707031 275.268921,232.970963 262.365906,253.002441 
	C261.457672,254.412430 260.310577,255.668533 258.271881,256.386230 
	C258.695526,255.238174 258.990692,254.021469 259.561890,252.952255 
	C269.946411,233.514221 275.727142,212.716431 278.067932,190.877289 
	C280.872070,164.715469 279.817780,138.971695 269.905029,114.175179 
	C268.368591,110.331741 266.632599,106.568047 264.994934,102.383224 
	C265.001007,101.998970 265.017548,101.982422 265.017548,101.982422 
z"/>
<path fill="#B3C562" opacity="1.000000" stroke="none" 
	d="
M76.281334,230.200363 
	C78.466553,227.760834 80.921577,225.526993 83.681641,223.164459 
	C92.561584,242.778076 104.266968,260.273804 121.082405,273.979980 
	C126.073524,278.048218 131.487885,281.597198 136.854065,285.692200 
	C136.999802,286.000336 136.988174,286.014862 136.988174,286.014862 
	C129.593201,282.078644 121.680656,278.871246 114.906578,274.060699 
	C98.762146,262.595917 86.041016,247.853897 76.281334,230.200363 
z"/>
<path fill="#B4C563" opacity="1.000000" stroke="none" 
	d="
M250.760071,81.490379 
	C252.484741,83.259598 253.923050,84.869629 255.361343,86.479660 
	C254.763382,86.841415 254.165436,87.203171 253.567474,87.564926 
	C252.536224,85.487015 251.504974,83.409103 250.760071,81.490379 
z"/>
<path fill="#B4C563" opacity="1.000000" stroke="none" 
	d="
M256.337158,88.847931 
	C256.878571,89.191788 257.228058,89.738976 257.577576,90.286163 
	C257.314453,90.376328 256.844330,90.582436 256.819946,90.538872 
	C256.554779,90.065544 256.359558,89.553062 256.337158,88.847931 
z"/>
<path fill="#B4C563" opacity="1.000000" stroke="none" 
	d="
M262.985199,99.018967 
	C262.379456,98.310356 261.773682,97.601746 261.167938,96.893135 
	C261.460846,96.708755 261.753754,96.524368 262.046661,96.339981 
	C262.372284,97.002594 262.697937,97.665199 263.012085,98.663834 
	C263.000549,98.999863 262.985199,99.018974 262.985199,99.018967 
z"/>
<path fill="#B4C563" opacity="1.000000" stroke="none" 
	d="
M259.915527,94.613556 
	C259.482941,93.970940 259.332123,93.359894 259.181305,92.748848 
	C259.471588,92.703621 259.761871,92.658401 260.052155,92.613182 
	C260.100555,93.290497 260.148956,93.967812 259.915527,94.613556 
z"/>
<path fill="#B4C563" opacity="1.000000" stroke="none" 
	d="
M256.383057,258.963318 
	C256.753967,258.662598 257.117035,258.617828 257.480072,258.573059 
	C257.473206,258.833557 257.466370,259.094025 257.459534,259.354523 
	C257.098083,259.309418 256.736664,259.264343 256.383057,258.963318 
z"/>
<path fill="#B4C563" opacity="1.000000" stroke="none" 
	d="
M181.277130,282.889099 
	C181.191940,282.594604 181.290939,282.188141 181.496307,282.124390 
	C181.695435,282.062592 182.003860,282.352997 182.264267,282.488708 
	C182.012131,282.634857 181.759995,282.781006 181.277130,282.889099 
z"/>
<path fill="#B4C563" opacity="1.000000" stroke="none" 
	d="
M264.991760,102.005745 
	C264.657745,101.545685 264.332977,101.078857 264.003906,100.306168 
	C263.999573,100.000305 264.010834,99.986038 264.010834,99.986038 
	C264.332367,100.453049 264.653900,100.920067 264.996460,101.684753 
	C265.017548,101.982422 265.001007,101.998970 264.991760,102.005745 
z"/>
<path fill="#B3C562" opacity="1.000000" stroke="none" 
	d="
M139.707367,287.356903 
	C139.971863,287.371979 140.115860,287.510010 140.259857,287.648010 
	C140.035522,287.591949 139.811203,287.535889 139.707367,287.356903 
z"/>
<path fill="#B4C563" opacity="1.000000" stroke="none" 
	d="
M263.992249,100.006157 
	C263.651123,99.929886 263.387085,99.746964 263.089050,99.241112 
	C262.985199,99.018974 263.000549,98.999863 263.010437,98.991852 
	C263.352661,99.070068 263.614441,99.255737 263.908264,99.763458 
	C264.010834,99.986038 263.999573,100.000305 263.992249,100.006157 
z"/>
<path fill="#B4C563" opacity="1.000000" stroke="none" 
	d="
M254.995956,261.996918 
	C255.096863,261.961517 255.197754,261.926086 255.149323,261.945312 
	C255.000000,262.000000 254.995956,261.996918 254.995956,261.996918 
z"/>
<path fill="#B4C563" opacity="1.000000" stroke="none" 
	d="
M255.001450,262.001831 
	C254.913132,262.334534 254.730392,262.601807 254.227356,262.902771 
	C254.000000,263.000000 253.995728,262.996338 253.995728,262.996338 
	C254.083405,262.664032 254.265945,262.396454 254.769669,262.095245 
	C254.995956,261.996918 255.000000,262.000000 255.001450,262.001831 
z"/>
<path fill="#B4C563" opacity="1.000000" stroke="none" 
	d="
M254.001862,263.002441 
	C253.903046,263.038910 253.802368,263.072906 253.848709,263.051636 
	C253.995728,262.996338 254.000000,263.000000 254.001862,263.002441 
z"/>
<path fill="#B4C563" opacity="1.000000" stroke="none" 
	d="
M252.528885,265.544037 
	C252.468597,265.580872 252.589172,265.507202 252.528885,265.544037 
z"/>
<path fill="#B3C562" opacity="1.000000" stroke="none" 
	d="
M137.006882,285.994507 
	C137.139572,286.143494 137.265182,286.298248 137.390808,286.453003 
	C137.293030,286.405762 137.195251,286.358521 137.042816,286.163055 
	C136.988174,286.014862 136.999802,286.000336 137.006882,285.994507 
z"/>
<path fill="#A3B362" opacity="1.000000" stroke="none" 
	d="
M173.280334,55.399117 
	C173.153030,55.559032 172.931793,55.582039 172.710556,55.605049 
	C172.869186,55.490772 173.027802,55.376492 173.280334,55.399117 
z"/>
<path fill="#A3B362" opacity="1.000000" stroke="none" 
	d="
M205.999481,32.999260 
	C206.349640,32.749420 206.700302,32.500324 207.050964,32.251232 
	C207.138351,32.375675 207.225739,32.500118 207.313110,32.624554 
	C207.036942,32.743645 206.760757,32.862740 206.243195,32.991756 
	C206.001831,33.001678 206.000000,33.000000 205.999481,32.999260 
z"/>
<path fill="#A3B362" opacity="1.000000" stroke="none" 
	d="
M193.997864,29.997841 
	C194.118790,29.564495 194.241852,29.133261 194.364914,28.702024 
	C194.381561,29.053486 194.398209,29.404949 194.209320,29.879528 
	C194.003799,30.002645 194.000000,29.999952 193.997864,29.997841 
z"/>
<path fill="#EBBE68" opacity="1.000000" stroke="none" 
	d="
M180.894897,142.653564 
	C178.781738,140.877045 176.784760,138.933670 174.528641,137.362427 
	C170.993210,134.900223 167.384186,132.508240 163.628220,130.404495 
	C149.914871,122.723587 152.496002,111.625809 158.214508,102.995232 
	C162.958511,95.835426 169.297928,90.135391 179.132812,90.938301 
	C185.052811,91.421608 189.425888,94.444359 193.117706,98.651421 
	C202.901947,109.801155 206.318802,122.508728 201.877777,136.915939 
	C200.173462,142.444946 196.745529,146.163330 189.936020,146.529938 
	C186.537918,145.335892 183.716400,143.994720 180.894897,142.653564 
M179.303146,135.220688 
	C182.614746,136.725708 184.489182,135.294067 183.856079,132.057190 
	C183.292297,129.174622 181.984497,126.101532 180.092911,123.894196 
	C177.321625,120.660286 174.526978,122.380211 172.289124,125.218575 
	C170.099503,127.995750 170.530579,130.578384 173.185547,132.565674 
	C174.723816,133.717087 176.741669,134.227783 179.303146,135.220688 
M173.256531,109.683502 
	C174.707382,111.370445 175.870071,113.726021 177.706787,114.517616 
	C179.008163,115.078476 181.220673,113.525223 184.196777,112.520615 
	C180.068527,109.720451 177.788620,106.520630 173.256531,109.683502 
z"/>
<path fill="#EBBE68" opacity="1.000000" stroke="none" 
	d="
M200.045288,229.041016 
	C198.794754,231.069031 197.961990,233.604309 196.221649,235.037567 
	C188.548157,241.357086 174.752625,241.578506 166.750961,235.850586 
	C163.070709,233.216156 161.635300,226.408920 163.873322,221.334366 
	C169.783386,207.933578 180.125290,199.352097 193.777878,194.737579 
	C196.646255,193.768082 199.993011,194.213928 203.829132,194.027924 
	C204.707626,194.072021 204.876343,194.095825 205.045074,194.119614 
	C209.176910,206.068527 204.880341,216.969894 200.440033,227.607681 
	C198.745621,226.256302 197.457260,225.201111 196.168900,224.145905 
	C195.500031,225.108353 194.831161,226.070816 194.162308,227.033279 
	C195.820374,227.825455 197.468338,228.640610 199.149429,229.380493 
	C199.357880,229.472229 199.742371,229.163925 200.045288,229.041016 
M190.567566,201.972855 
	C189.101929,203.747162 187.280807,205.345016 186.284454,207.352280 
	C185.504272,208.924011 184.987152,211.453964 185.745865,212.730270 
	C186.511841,214.018814 188.969315,214.821854 190.727676,214.900558 
	C195.530045,215.115524 198.551895,212.377792 199.478165,207.819412 
	C200.101013,204.754242 199.959595,201.533737 200.160110,198.382736 
	C197.153137,199.422318 194.146149,200.461914 190.567566,201.972855 
z"/>
<path fill="#EBBE68" opacity="1.000000" stroke="none" 
	d="
M228.921432,107.866409 
	C234.272095,101.492767 251.542801,104.163628 253.963791,111.979340 
	C254.707779,114.381256 254.463394,117.720467 253.342148,119.966904 
	C245.895081,134.886963 233.528137,143.603943 217.347641,146.859695 
	C212.125046,147.910583 208.514862,144.239532 210.254669,139.322769 
	C213.498993,130.154114 217.589218,121.284767 221.649307,112.524979 
	C223.007782,113.825119 224.181274,115.889244 225.055252,115.769379 
	C227.641754,115.414680 230.118973,114.219879 232.586594,113.224007 
	C232.671478,113.189751 232.393478,111.620712 231.941910,111.028244 
	C231.063843,109.876175 229.942200,108.909737 228.921432,107.866409 
M230.376007,126.004486 
	C223.717606,126.844315 221.011002,130.514328 220.502808,139.810898 
	C226.407074,140.532120 230.039276,136.951859 233.283569,133.016479 
	C235.805923,129.956818 235.589417,127.234154 230.376007,126.004486 
z"/>
<path fill="#201D18" opacity="1.000000" stroke="none" 
	d="
M180.500793,142.671539 
	C183.716400,143.994720 186.537918,145.335892 189.675537,146.788635 
	C194.690430,152.058289 196.400711,158.093369 194.448624,164.775528 
	C191.468338,174.977432 181.241852,178.855179 170.315872,173.627686 
	C168.278687,171.726379 166.733627,170.207596 165.188568,168.688812 
	C164.467560,166.374680 163.746552,164.060532 163.001617,160.967163 
	C163.994171,156.470474 165.010651,152.752991 166.027145,149.035522 
	C169.794693,144.866547 174.298279,142.330566 180.500793,142.671539 
M173.000992,155.865616 
	C174.878723,155.213425 177.107300,154.960236 178.489716,153.744705 
	C179.206512,153.114456 178.972717,149.859161 178.209045,149.405853 
	C176.544174,148.417557 173.688889,147.490082 172.351807,148.281326 
	C169.135132,150.184845 169.446747,153.077301 173.000992,155.865616 
z"/>
<path fill="#EBBE68" opacity="1.000000" stroke="none" 
	d="
M232.917908,200.112000 
	C240.154129,203.662186 242.712494,208.463211 241.997726,217.151169 
	C241.587753,222.134628 235.282608,229.443970 230.134918,230.778900 
	C226.359512,231.757965 222.605270,230.951813 221.104492,227.386688 
	C217.391388,218.566116 214.230438,209.505325 211.119247,200.447754 
	C210.659866,199.110367 211.678009,197.265427 212.228455,195.269272 
	C212.444351,194.883224 212.717545,194.917526 212.717545,194.917526 
	C217.104523,195.665054 221.491486,196.412598 225.546356,197.562592 
	C217.342712,198.055893 217.084000,198.176682 220.290192,205.044220 
	C221.397873,207.416840 224.046570,210.444061 226.170044,210.591049 
	C228.398590,210.745331 231.329956,208.188400 233.001602,206.066040 
	C233.955658,204.854782 233.008820,202.146317 232.917908,200.112000 
M220.170074,222.066711 
	C220.766113,223.607773 221.362152,225.148849 221.958191,226.689911 
	C222.692703,226.089478 223.427231,225.489059 224.161743,224.888626 
	C225.071014,223.095612 225.980286,221.302597 227.019852,219.252670 
	C223.620407,217.714355 220.909637,216.542709 220.170074,222.066711 
z"/>
<path fill="#25211B" opacity="1.000000" stroke="none" 
	d="
M240.616943,153.514633 
	C242.744278,159.141708 241.328476,163.885788 236.584946,168.231857 
	C235.731766,168.836197 235.322754,169.119919 234.913742,169.403625 
	C227.417679,171.851105 221.707977,170.067062 218.507416,164.277359 
	C215.641647,159.093277 216.874130,152.757156 221.481461,148.987930 
	C226.158737,145.161484 230.595078,145.151184 237.502930,149.037415 
	C237.875351,149.123199 237.804535,149.045929 237.887512,149.343185 
	C238.283737,149.894119 238.596985,150.147797 238.980286,150.693634 
	C239.572525,151.828751 240.094742,152.671692 240.616943,153.514633 
M227.409988,155.620773 
	C228.283279,154.343521 229.375076,153.142563 229.867508,151.732330 
	C229.982437,151.403183 228.065460,149.810669 227.078384,149.805771 
	C226.083908,149.800842 224.138443,151.368561 224.248062,151.692078 
	C224.735031,153.129318 225.810120,154.367279 227.409988,155.620773 
z"/>
<path fill="#D88349" opacity="1.000000" stroke="none" 
	d="
M212.834167,194.580536 
	C212.717545,194.917526 212.444351,194.883224 212.309418,194.863052 
	C210.022018,194.674698 207.869537,194.506500 205.381073,194.228958 
	C204.876343,194.095825 204.707626,194.072021 204.284882,194.022034 
	C198.890198,189.974213 194.301819,185.571106 192.565643,177.940979 
	C197.722305,179.865372 201.874619,182.471985 206.161148,182.715378 
	C210.391403,182.955582 214.757401,180.805008 219.324112,179.636719 
	C219.410782,185.385284 217.051117,190.171783 212.834167,194.580536 
z"/>
<path fill="#EABE69" opacity="1.000000" stroke="none" 
	d="
M165.741882,148.833130 
	C165.010651,152.752991 163.994171,156.470474 162.888214,160.607056 
	C159.890121,162.810898 156.981522,164.595657 153.917740,166.475632 
	C149.897873,163.950623 147.942596,159.082153 149.348236,154.460800 
	C150.898193,149.365005 156.562302,144.559387 161.013504,145.220810 
	C162.627808,145.460678 163.983139,147.443314 165.741882,148.833130 
z"/>
<path fill="#EBBE69" opacity="1.000000" stroke="none" 
	d="
M167.345825,193.572418 
	C165.319351,188.298370 167.970535,181.409073 172.469528,179.374771 
	C175.989014,177.783386 181.070175,180.174530 183.173325,184.348648 
	C184.645401,187.270233 184.192337,189.683868 181.673065,191.841827 
	C176.424225,196.337875 171.637802,197.083694 167.345825,193.572418 
z"/>
<path fill="#EBBE69" opacity="1.000000" stroke="none" 
	d="
M228.014099,187.925003 
	C229.059219,183.398087 231.167847,180.236862 235.862183,180.034119 
	C240.009018,179.855026 242.690262,182.260620 244.345383,185.798538 
	C245.865280,189.047363 243.677902,193.287445 240.320038,193.962372 
	C236.991074,194.631485 230.086197,191.456955 228.014099,187.925003 
z"/>
<path fill="#E0AC49" opacity="1.000000" stroke="none" 
	d="
M232.552444,200.078659 
	C233.008820,202.146317 233.955658,204.854782 233.001602,206.066040 
	C231.329956,208.188400 228.398590,210.745331 226.170044,210.591049 
	C224.046570,210.444061 221.397873,207.416840 220.290192,205.044220 
	C217.084000,198.176682 217.342712,198.055893 225.649933,197.926636 
	C228.119431,198.607254 230.153198,199.326294 232.552444,200.078659 
z"/>
<path fill="#EABD68" opacity="1.000000" stroke="none" 
	d="
M240.844727,153.187180 
	C240.094742,152.671692 239.572525,151.828751 238.893066,150.396973 
	C238.425385,149.554047 238.114960,149.299988 237.804535,149.045929 
	C237.804535,149.045929 237.875351,149.123199 237.838318,149.160889 
	C237.289597,147.216705 236.777893,145.234863 236.165436,142.862808 
	C237.281235,142.316544 238.491333,141.504990 239.824661,141.118652 
	C242.305542,140.399811 244.917435,136.700760 247.376541,140.942062 
	C249.619308,144.810242 247.822952,149.682495 243.708420,151.617889 
	C242.829514,152.031281 241.951126,152.445740 240.844727,153.187180 
z"/>
<path fill="#EBBF69" opacity="1.000000" stroke="none" 
	d="
M223.244690,108.990631 
	C220.805389,110.113724 218.366089,111.236832 214.928757,112.819443 
	C214.414932,110.887886 212.832108,108.332275 213.499741,106.693497 
	C214.651337,103.866753 216.790314,101.014854 219.286057,99.287834 
	C221.606232,97.682320 224.912872,100.507828 224.828140,103.603867 
	C224.792938,104.890106 224.279175,106.163254 223.904205,108.004120 
	C223.676285,108.768250 223.482727,108.909828 223.244690,108.990631 
z"/>
<path fill="#E1AC4A" opacity="1.000000" stroke="none" 
	d="
M223.141724,109.299942 
	C223.482727,108.909828 223.676285,108.768250 223.907654,108.405838 
	C225.361099,108.133392 226.732269,108.020988 228.512436,107.887497 
	C229.942200,108.909737 231.063843,109.876175 231.941910,111.028244 
	C232.393478,111.620712 232.671478,113.189751 232.586594,113.224007 
	C230.118973,114.219879 227.641754,115.414680 225.055252,115.769379 
	C224.181274,115.889244 223.007782,113.825119 221.942566,112.344101 
	C222.288879,111.155830 222.663818,110.382545 223.141724,109.299942 
z"/>
<path fill="#EBBF69" opacity="1.000000" stroke="none" 
	d="
M205.408859,104.071228 
	C203.459473,107.381920 201.676514,105.572044 200.670029,104.020210 
	C199.565201,102.316765 198.593979,100.047066 198.796524,98.156059 
	C198.917038,97.030792 201.409775,96.159592 202.835999,95.174164 
	C203.879852,96.721230 205.210327,98.157822 205.864594,99.855072 
	C206.285355,100.946602 205.711807,102.421402 205.408859,104.071228 
z"/>
<path fill="#EBBF69" opacity="1.000000" stroke="none" 
	d="
M234.915894,169.829178 
	C235.322754,169.119919 235.731766,168.836197 236.385620,168.492416 
	C236.822952,168.696381 236.966446,169.025162 237.215897,169.213959 
	C238.926437,170.508560 243.170258,169.992950 241.517029,173.533920 
	C240.880051,174.898224 237.156601,174.821487 234.053772,175.597916 
	C234.472839,173.007172 234.695450,171.630951 234.915894,169.829178 
z"/>
<path fill="#EBBE69" opacity="1.000000" stroke="none" 
	d="
M160.667175,132.910614 
	C165.135452,132.339462 165.184662,135.430908 166.103668,139.267487 
	C163.505676,138.749481 161.354233,138.760132 159.828491,137.788376 
	C159.260666,137.426727 160.156799,134.766525 160.667175,132.910614 
z"/>
<path fill="#E1AC4A" opacity="1.000000" stroke="none" 
	d="
M200.067001,228.805496 
	C199.742371,229.163925 199.357880,229.472229 199.149429,229.380493 
	C197.468338,228.640610 195.820374,227.825455 194.162308,227.033279 
	C194.831161,226.070816 195.500031,225.108353 196.168900,224.145905 
	C197.457260,225.201111 198.745621,226.256302 200.089966,227.705978 
	C200.145966,228.100449 200.088715,228.569992 200.067001,228.805496 
z"/>
<path fill="#E2B868" opacity="1.000000" stroke="none" 
	d="
M165.116119,169.072845 
	C166.733627,170.207596 168.278687,171.726379 169.939041,173.548141 
	C168.726761,174.368027 167.399200,174.884933 166.071625,175.401840 
	C165.728973,173.420197 165.386322,171.438538 165.116119,169.072845 
z"/>
<path fill="#E0AB49" opacity="1.000000" stroke="none" 
	d="
M178.923416,135.123749 
	C176.741669,134.227783 174.723816,133.717087 173.185547,132.565674 
	C170.530579,130.578384 170.099503,127.995750 172.289124,125.218575 
	C174.526978,122.380211 177.321625,120.660286 180.092911,123.894196 
	C181.984497,126.101532 183.292297,129.174622 183.856079,132.057190 
	C184.489182,135.294067 182.614746,136.725708 178.923416,135.123749 
z"/>
<path fill="#E0AC49" opacity="1.000000" stroke="none" 
	d="
M173.452881,109.362091 
	C177.788620,106.520630 180.068527,109.720451 184.196777,112.520615 
	C181.220673,113.525223 179.008163,115.078476 177.706787,114.517616 
	C175.870071,113.726021 174.707382,111.370445 173.452881,109.362091 
z"/>
<path fill="#E0AB49" opacity="1.000000" stroke="none" 
	d="
M190.853363,201.737183 
	C194.146149,200.461914 197.153137,199.422318 200.160110,198.382736 
	C199.959595,201.533737 200.101013,204.754242 199.478165,207.819412 
	C198.551895,212.377792 195.530045,215.115524 190.727676,214.900558 
	C188.969315,214.821854 186.511841,214.018814 185.745865,212.730270 
	C184.987152,211.453964 185.504272,208.924011 186.284454,207.352280 
	C187.280807,205.345016 189.101929,203.747162 190.853363,201.737183 
z"/>
<path fill="#E0AB49" opacity="1.000000" stroke="none" 
	d="
M230.772888,126.017532 
	C235.589417,127.234154 235.805923,129.956818 233.283569,133.016479 
	C230.039276,136.951859 226.407074,140.532120 220.502808,139.810898 
	C221.011002,130.514328 223.717606,126.844315 230.772888,126.017532 
z"/>
<path fill="#ECE7D1" opacity="1.000000" stroke="none" 
	d="
M172.637436,155.708511 
	C169.446747,153.077301 169.135132,150.184845 172.351807,148.281326 
	C173.688889,147.490082 176.544174,148.417557 178.209045,149.405853 
	C178.972717,149.859161 179.206512,153.114456 178.489716,153.744705 
	C177.107300,154.960236 174.878723,155.213425 172.637436,155.708511 
z"/>
<path fill="#E1AD4C" opacity="1.000000" stroke="none" 
	d="
M220.110687,221.683990 
	C220.909637,216.542709 223.620407,217.714355 227.019852,219.252670 
	C225.980286,221.302597 225.071014,223.095612 224.161743,224.888626 
	C223.427231,225.489059 222.692703,226.089478 221.958191,226.689911 
	C221.362152,225.148849 220.766113,223.607773 220.110687,221.683990 
z"/>
<path fill="#E9E3CD" opacity="1.000000" stroke="none" 
	d="
M227.041260,155.649048 
	C225.810120,154.367279 224.735031,153.129318 224.248062,151.692078 
	C224.138443,151.368561 226.083908,149.800842 227.078384,149.805771 
	C228.065460,149.810669 229.982437,151.403183 229.867508,151.732330 
	C229.375076,153.142563 228.283279,154.343521 227.041260,155.649048 
z"/>
<path fill="#F6D288" opacity="1.000000" stroke="none" 
	d="
M237.887512,149.343185 
	C238.114960,149.299988 238.425385,149.554047 238.823029,150.104797 
	C238.596985,150.147797 238.283737,149.894119 237.887512,149.343185 
z"/>
</svg>