<svg width="236" height="60" viewBox="0 0 236 60" fill="none" xmlns="http://www.w3.org/2000/svg">
<path d="M140.657 19.3038C137.349 23.4389 137.205 26.685 140.347 26.685C141.712 26.685 142.084 26.3955 142.828 24.7828C143.738 22.8807 143.511 22.7773 147.377 26.6436L150.892 30.1585L147.377 33.6734C143.511 37.5397 143.738 37.4363 142.828 35.5342C142.084 33.9215 141.712 33.632 140.347 33.632C137.866 33.632 137.37 35.4515 139.003 38.4908C141.133 42.3985 145.868 46.3062 148.597 46.3889C149.879 46.4302 150.912 45.3551 150.892 44.0112C150.912 42.8327 150.561 42.3985 148.928 41.6335C146.86 40.6411 146.777 40.8892 150.685 36.9815L154.2 33.4666L157.818 37.0848L161.416 40.6824L160.154 41.3647C157.715 42.6466 157.094 43.9698 158.149 45.5205C158.873 46.6163 160.609 46.6163 162.739 45.4792C165.158 44.1766 168.611 40.6411 169.81 38.2013C170.782 36.1544 170.802 35.1827 169.81 34.1903C168.466 32.8463 166.688 33.5907 165.551 35.927C165.261 36.5473 164.889 37.0435 164.703 37.0642C164.538 37.0642 162.904 35.5135 161.044 33.6113L157.715 30.1585L160.961 26.7884C162.739 24.9689 164.372 23.3769 164.558 23.2735C164.848 23.1494 165.034 23.3769 165.489 24.2866C166.647 26.7263 168.445 27.4913 169.831 26.1061C170.802 25.1343 170.782 24.1626 169.81 22.1157C168.611 19.6759 165.158 16.1404 162.739 14.8378C160.609 13.7007 158.873 13.7007 158.149 14.7965C157.094 16.3472 157.715 17.6704 160.134 18.9316L161.416 19.6346L157.818 23.2321L154.2 26.8504L150.685 23.3355C146.777 19.4278 146.86 19.6759 148.928 18.6835C150.561 17.9185 150.912 17.4843 150.892 16.3058C150.912 14.9619 149.879 13.8867 148.597 13.9281C147.418 13.9488 145.557 14.8585 143.965 16.1611C143.262 16.74 142.497 17.3809 142.229 17.567C141.96 17.7531 141.257 18.5388 140.657 19.3038Z" fill="white"/>
<path d="M28.2425 4.65572C28.9499 4.65572 29.3036 5.24522 29.3036 6.42422C29.3036 7.21022 29.1268 8.01587 28.7731 8.84118C28.4587 9.62717 28.046 10.1381 27.5351 10.3739C22.544 8.84117 17.5333 8.01587 12.5029 7.89797V22.6355H25.8845C26.0417 23.1071 26.1203 23.6769 26.1203 24.345C26.1203 24.8559 26.0417 25.5044 25.8845 26.2904H12.5618V37.9035C12.5618 40.9689 12.8762 43.3073 13.505 44.9186C12.4046 45.9011 11.147 46.3923 9.73224 46.3923C8.63184 46.3923 7.72794 46.0976 7.02054 45.5081C6.35244 44.8793 6.01839 44.0343 6.01839 42.9732L5.95944 13.1445C5.95944 10.2363 5.64504 7.95692 5.01624 6.30632C5.76294 5.63822 6.52929 5.20593 7.31529 5.00943C8.14059 4.77362 9.29994 4.65572 10.7933 4.65572H28.2425ZM50.2525 14.6183C52.414 14.6183 54.1629 15.1881 55.4991 16.3278C56.8353 17.4675 57.5034 19.0395 57.5034 21.0438C57.5034 22.5372 57.0711 23.7359 56.2065 24.6398C55.3419 25.5437 54.2611 25.9956 52.9642 25.9956C51.7459 25.9956 50.8617 25.6812 50.3115 25.0524C50.7438 24.345 51.0385 23.7162 51.1957 23.166C51.3529 22.5765 51.4315 21.9084 51.4315 21.1617C51.4315 18.9216 50.449 17.8016 48.484 17.8016C46.912 17.8016 45.6348 18.9609 44.6523 21.2796C43.7091 23.559 43.2375 26.9978 43.2375 31.5959V33.836C43.2375 37.3337 43.2964 39.7506 43.4143 41.0868C43.5322 42.3837 43.827 43.6217 44.2986 44.8007C43.9056 45.1544 43.3947 45.4688 42.7659 45.7439C42.1371 46.019 41.41 46.1762 40.5847 46.2155C39.5236 46.2155 38.6197 45.8814 37.873 45.2133C37.1656 44.5452 36.8119 43.6413 36.8119 42.5016V22.5765C36.8119 21.5154 36.6744 20.7491 36.3993 20.2775C36.1635 19.7666 35.7705 19.5111 35.2203 19.5111C34.4736 19.5111 33.9627 19.7862 33.6876 20.3364C33.1767 19.5897 32.9212 18.843 32.9212 18.0963C32.9212 17.0745 33.2946 16.2492 34.0413 15.6204C34.788 14.9523 35.8294 14.6183 37.1656 14.6183C38.7769 14.6183 40.0542 15.1685 40.9974 16.2689C41.9406 17.3693 42.4318 19.0002 42.4711 21.1617C43.8466 16.7994 46.4404 14.6183 50.2525 14.6183ZM85.7423 37.4909C86.3711 37.766 86.6855 38.2572 86.6855 38.9646C86.6855 39.4362 86.5479 40.0061 86.2728 40.6742C85.5261 42.5213 84.1899 43.9361 82.2642 44.9186C80.3778 45.9011 78.0984 46.3923 75.426 46.3923C70.9458 46.3923 67.4088 45.0168 64.815 42.2658C62.2605 39.5148 60.9833 35.6045 60.9833 30.5348C60.9833 25.5437 62.2409 21.653 64.7561 18.8627C67.2713 16.0331 70.8672 14.6183 75.5439 14.6183C78.963 14.6183 81.7337 15.3846 83.8559 16.9173C85.9781 18.4107 87.0392 20.5526 87.0392 23.3429C87.0392 26.2511 85.8602 28.4912 83.5022 30.0632C81.1835 31.5959 78.0198 32.3622 74.0112 32.3622C71.7318 32.3622 69.7079 32.264 67.9394 32.0675C68.2145 35.7224 69.138 38.3358 70.71 39.9078C72.282 41.4798 74.4239 42.2658 77.1356 42.2658C79.2578 42.2658 81.0656 41.8335 82.559 40.9689C84.0917 40.1043 85.1528 38.945 85.7423 37.4909ZM75.3081 17.0352C72.9894 17.0352 71.162 18.1356 69.8258 20.3364C68.5289 22.4979 67.8804 25.583 67.8804 29.5916C68.9022 29.7095 69.9437 29.7684 71.0048 29.7684C73.6772 29.7684 75.8583 29.2379 77.5482 28.1768C79.2381 27.1157 80.0831 25.1703 80.0831 22.3407C80.0831 20.415 79.6311 19.0592 78.7272 18.2732C77.8233 17.4479 76.6836 17.0352 75.3081 17.0352ZM116.311 37.4909C116.94 37.766 117.254 38.2572 117.254 38.9646C117.254 39.4362 117.117 40.0061 116.842 40.6742C116.095 42.5213 114.759 43.9361 112.833 44.9186C110.947 45.9011 108.667 46.3923 105.995 46.3923C101.515 46.3923 97.9776 45.0168 95.3838 42.2658C92.8293 39.5148 91.5521 35.6045 91.5521 30.5348C91.5521 25.5437 92.8097 21.653 95.3249 18.8627C97.8401 16.0331 101.436 14.6183 106.113 14.6183C109.532 14.6183 112.302 15.3846 114.425 16.9173C116.547 18.4107 117.608 20.5526 117.608 23.3429C117.608 26.2511 116.429 28.4912 114.071 30.0632C111.752 31.5959 108.589 32.3622 104.58 32.3622C102.301 32.3622 100.277 32.264 98.5082 32.0675C98.7833 35.7224 99.7068 38.3358 101.279 39.9078C102.851 41.4798 104.993 42.2658 107.704 42.2658C109.827 42.2658 111.634 41.8335 113.128 40.9689C114.66 40.1043 115.722 38.945 116.311 37.4909ZM105.877 17.0352C103.558 17.0352 101.731 18.1356 100.395 20.3364C99.0977 22.4979 98.4492 25.583 98.4492 29.5916C99.471 29.7095 100.512 29.7684 101.574 29.7684C104.246 29.7684 106.427 29.2379 108.117 28.1768C109.807 27.1157 110.652 25.1703 110.652 22.3407C110.652 20.415 110.2 19.0592 109.296 18.2732C108.392 17.4479 107.252 17.0352 105.877 17.0352ZM127.662 10.256C126.601 10.256 125.697 9.90227 124.95 9.19487C124.243 8.44817 123.889 7.54427 123.889 6.48317C123.889 5.42207 124.243 4.53782 124.95 3.83042C125.697 3.08372 126.601 2.71037 127.662 2.71037C128.723 2.71037 129.608 3.08372 130.315 3.83042C131.062 4.53782 131.435 5.42207 131.435 6.48317C131.435 7.54427 131.062 8.44817 130.315 9.19487C129.608 9.90227 128.723 10.256 127.662 10.256ZM121.237 59.1255C118.918 59.1255 117.169 58.6736 115.99 57.7697C114.772 56.8658 114.163 55.6868 114.163 54.2327C114.163 53.2895 114.477 52.4642 115.106 51.7568C115.695 51.0887 116.54 50.7546 117.641 50.7546C118.191 50.7546 118.643 50.8529 118.997 51.0494C119.311 51.2852 119.606 51.6389 119.881 52.1105C119.37 52.9358 119.114 53.7218 119.114 54.4685C119.114 55.3331 119.35 55.9422 119.822 56.2959C120.254 56.6889 120.804 56.8854 121.472 56.8854C122.848 56.8854 123.732 56.0012 124.125 54.2327C124.557 52.5035 124.774 49.9293 124.774 46.5102L124.833 23.1071C124.833 20.1989 124.499 17.8409 123.83 16.0331C125.009 15.0899 126.228 14.6183 127.485 14.6183C128.546 14.6183 129.411 14.9327 130.079 15.5615C130.787 16.151 131.14 16.9763 131.14 18.0374V47.6303C131.14 51.0101 130.354 53.7611 128.782 55.8833C127.25 58.0448 124.734 59.1255 121.237 59.1255Z" fill="white"/>
<path d="M205.651 40.3794C206.123 41.0082 206.358 41.7353 206.358 42.5606C206.358 43.5824 205.906 44.447 205.003 45.1544C204.099 45.8618 202.939 46.2155 201.525 46.2155C199.599 46.2155 198.145 45.567 197.162 44.2701C196.18 42.9339 195.669 40.7921 195.63 37.8446C194.451 40.3991 192.839 42.4427 190.796 43.9754C188.752 45.5081 186.414 46.2744 183.781 46.2744C181.501 46.2744 179.654 45.6653 178.239 44.447C176.864 43.1894 176.176 41.4995 176.176 39.3773C176.176 36.9014 177.119 34.8578 179.006 33.2465C180.892 31.6352 183.309 30.4169 186.256 29.5916C189.204 28.7663 192.21 28.3929 195.276 28.4715V26.9978C195.276 23.5787 194.804 21.0635 193.861 19.4522C192.918 17.8409 191.346 17.0352 189.145 17.0352C187.652 17.0352 186.433 17.3889 185.49 18.0963C184.586 18.8037 184.134 19.9631 184.134 21.5744C184.134 22.4783 184.311 23.3232 184.665 24.1092C185.019 24.8952 185.608 25.4847 186.433 25.8777C186.04 26.31 185.51 26.6441 184.842 26.8799C184.213 27.0764 183.545 27.1746 182.837 27.1746C181.265 27.1746 179.988 26.6637 179.006 25.6419C178.062 24.5808 177.591 23.3036 177.591 21.8102C177.591 19.4915 178.652 17.723 180.774 16.5047C182.896 15.2471 185.824 14.6183 189.558 14.6183C193.802 14.6183 196.907 15.6401 198.872 17.6837C200.876 19.688 201.878 22.9106 201.878 27.3515V38.1983C201.878 40.2812 202.546 41.3226 203.883 41.3226C204.197 41.3226 204.511 41.244 204.826 41.0868C205.179 40.9296 205.455 40.6938 205.651 40.3794ZM186.728 41.9711C188.025 41.9711 189.342 41.4602 190.678 40.4384C192.053 39.3773 193.193 37.9821 194.097 36.2529C195.001 34.5237 195.453 32.6766 195.453 30.7116C194.077 30.633 192.682 30.7116 191.267 30.9474C189.852 31.1439 188.634 31.478 187.612 31.9496C186.237 32.5391 185.156 33.3447 184.37 34.3665C183.623 35.349 183.25 36.5084 183.25 37.8446C183.25 39.0236 183.525 40.0061 184.075 40.7921C184.665 41.5781 185.549 41.9711 186.728 41.9711ZM219.952 46.3923C216.258 46.3923 213.467 45.7635 211.581 44.5059C209.695 43.2483 208.751 41.5584 208.751 39.4362C208.751 38.3751 209.046 37.4712 209.636 36.7245C210.264 35.9778 211.227 35.6045 212.524 35.6045C212.76 35.6045 213.153 35.6438 213.703 35.7224C213.585 36.194 213.526 36.6263 213.526 37.0193C213.526 37.4909 213.585 38.0018 213.703 38.552C213.9 40.124 214.587 41.4012 215.766 42.3837C216.985 43.3662 218.635 43.8575 220.718 43.8575C222.565 43.8575 224.059 43.5234 225.198 42.8553C226.338 42.1479 226.908 41.1261 226.908 39.7899C226.908 38.886 226.633 38.1 226.083 37.4319C225.572 36.7245 224.923 36.135 224.137 35.6634C223.351 35.1918 222.231 34.6023 220.777 33.8949C220.463 33.777 219.991 33.5609 219.362 33.2465C217.24 32.264 215.55 31.3994 214.293 30.6527C213.074 29.8667 212.013 28.8252 211.109 27.5283C210.245 26.2314 209.813 24.6398 209.813 22.7534C209.813 20.0024 210.874 17.9588 212.996 16.6226C215.118 15.2471 217.81 14.5593 221.072 14.5593C224.334 14.5593 226.908 15.0702 228.794 16.092C230.681 17.0745 231.624 18.509 231.624 20.3954C231.624 21.26 231.369 22.0067 230.858 22.6355C230.386 23.225 229.62 23.5394 228.559 23.5787C228.362 23.618 228.107 23.6376 227.792 23.6376C227.596 23.6376 227.222 23.5983 226.672 23.5197C226.712 23.2839 226.731 22.9302 226.731 22.4586C226.731 21.594 226.613 20.9456 226.377 20.5133C226.142 19.4129 225.533 18.5679 224.55 17.9784C223.607 17.3496 222.369 17.0352 220.836 17.0352C219.382 17.0352 218.144 17.33 217.122 17.9195C216.14 18.509 215.649 19.4129 215.649 20.6312C215.649 21.7316 215.963 22.6748 216.592 23.4608C217.26 24.2468 218.066 24.9149 219.009 25.4651C219.952 26.0153 221.288 26.703 223.017 27.5283C225.415 28.668 227.203 29.5916 228.382 30.299C229.561 30.9671 230.622 31.8906 231.565 33.0696C232.508 34.2486 232.98 35.6831 232.98 37.373C232.98 39.8882 231.919 42.03 229.797 43.7985C227.714 45.5277 224.432 46.3923 219.952 46.3923Z" fill="white"/>
</svg>
