<svg width="12" height="12" viewBox="0 0 12 12" fill="none" xmlns="http://www.w3.org/2000/svg">
<path d="M6 12C9.31371 12 12 9.31371 12 6C12 2.68629 9.31371 0 6 0C2.68629 0 0 2.68629 0 6C0 9.31371 2.68629 12 6 12Z" fill="#FFDD67"/>
<path d="M3.70117 5.91992C4.25346 5.91992 4.70117 5.47221 4.70117 4.91992C4.70117 4.36764 4.25346 3.91992 3.70117 3.91992C3.14889 3.91992 2.70117 4.36764 2.70117 4.91992C2.70117 5.47221 3.14889 5.91992 3.70117 5.91992Z" fill="#664E27"/>
<path d="M8.30078 5.91992C8.85307 5.91992 9.30078 5.47221 9.30078 4.91992C9.30078 4.36764 8.85307 3.91992 8.30078 3.91992C7.7485 3.91992 7.30078 4.36764 7.30078 4.91992C7.30078 5.47221 7.7485 5.91992 8.30078 5.91992Z" fill="#664E27"/>
<path d="M4.20081 9.11957C5.36081 8.15957 6.64081 8.15957 7.80081 9.11957C7.94081 9.23957 8.06081 9.03957 7.96081 8.85957C7.60081 8.17957 6.90081 7.55957 6.00081 7.55957C5.10081 7.55957 4.38081 8.17957 4.04081 8.85957C3.94081 9.03957 4.06081 9.23957 4.20081 9.11957Z" fill="#664E27"/>
</svg>
