<svg width="12" height="12" viewBox="0 0 12 12" fill="none" xmlns="http://www.w3.org/2000/svg">
<path d="M6 12C9.31371 12 12 9.31371 12 6C12 2.68629 9.31371 0 6 0C2.68629 0 0 2.68629 0 6C0 9.31371 2.68629 12 6 12Z" fill="#FFDD67"/>
<path d="M3.70117 6.11914C4.25346 6.11914 4.70117 5.67143 4.70117 5.11914C4.70117 4.56686 4.25346 4.11914 3.70117 4.11914C3.14889 4.11914 2.70117 4.56686 2.70117 5.11914C2.70117 5.67143 3.14889 6.11914 3.70117 6.11914Z" fill="#664E27"/>
<path d="M8.30078 6.11914C8.85307 6.11914 9.30078 5.67143 9.30078 5.11914C9.30078 4.56686 8.85307 4.11914 8.30078 4.11914C7.7485 4.11914 7.30078 4.56686 7.30078 5.11914C7.30078 5.67143 7.7485 6.11914 8.30078 6.11914Z" fill="#664E27"/>
<path d="M7.38148 9.19941H4.62148C4.32148 9.19941 4.32148 8.39941 4.62148 8.39941H7.36148C7.68148 8.39941 7.68148 9.19941 7.38148 9.19941Z" fill="#664E27"/>
</svg>
