<svg width="56" height="56" viewBox="0 0 56 56" fill="none" xmlns="http://www.w3.org/2000/svg">
<path fill-rule="evenodd" clip-rule="evenodd" d="M28 56C43.464 56 56 43.464 56 28C56 12.536 43.464 0 28 0C12.536 0 0 12.536 0 28C0 43.464 12.536 56 28 56ZM28 53.0897C14.1433 53.0897 2.91029 41.8567 2.91029 28C2.91029 14.1433 14.1433 2.91029 28 2.91029C41.8567 2.91029 53.0897 14.1433 53.0897 28C53.0897 41.8567 41.8567 53.0897 28 53.0897ZM11.3915 18.4004C9.62971 21.4647 12.002 24.9045 15.476 25.556L21.7956 26.7413C23.0934 26.9847 24.3122 26.0246 25.272 25.1177C26.2317 24.2108 27.2593 23.0483 27.0897 21.7388L26.2641 15.3623C25.8103 11.857 22.5103 9.29374 19.3512 10.8792C17.7036 11.7061 16.1749 12.773 14.8185 14.0547C13.4621 15.3364 12.3103 16.8023 11.3915 18.4004ZM25.5579 40.2927C24.9063 43.7668 21.4665 46.1391 18.4023 44.3773C16.8041 43.4585 15.3383 42.3067 14.0566 40.9503C12.7749 39.5938 11.708 38.0651 10.8811 36.4176C9.29562 33.2585 11.8588 29.9585 15.3642 29.5046L21.7407 28.679C23.0502 28.5095 24.2127 29.5371 25.1196 30.4968C26.0264 31.4565 26.9866 32.6754 26.7432 33.9732L25.5579 40.2927ZM40.2946 30.2108C43.7686 30.8624 46.1409 34.3022 44.3792 37.3665C43.4603 38.9646 42.3086 40.4305 40.9521 41.7122C39.5957 42.9938 38.067 44.0608 36.4194 44.8877C33.2604 46.4732 29.9604 43.9099 29.5065 40.4046L28.6809 34.0281C28.5114 32.7186 29.539 31.556 30.4987 30.6492C31.4584 29.7423 32.6773 28.7822 33.9751 29.0256L40.2946 30.2108ZM30.2127 15.4742C30.8643 12.0001 34.3041 9.62783 37.3684 11.3896C38.9665 12.3084 40.4324 13.4602 41.714 14.8166C42.9957 16.173 44.0627 17.7017 44.8896 19.3493C46.475 22.5084 43.9118 25.8084 40.4064 26.2623L34.03 27.0879C32.7205 27.2574 31.5579 26.2298 30.6511 25.2701C29.7442 24.3104 28.7841 23.0915 29.0275 21.7937L30.2127 15.4742Z" fill="white"/>
</svg>
