<svg width="123" height="60" viewBox="0 0 123 60" fill="none" xmlns="http://www.w3.org/2000/svg">
<path d="M3.62643 24.5968C2.82643 26.171 2.95976 29.1882 3.12643 30.5L122.626 30.0081C122.793 29.1882 123.026 27.1548 122.626 25.5806C122.126 23.6129 121.626 23.121 120.126 20.6613C118.626 18.2016 116.126 17.2177 113.626 15.7419C111.126 14.2661 107.626 13.7742 104.626 14.2661C102.226 14.6597 99.6265 15.7419 98.6265 16.2339C98.4598 15.25 97.8265 12.7903 96.6265 10.8226C95.1265 8.3629 94.1265 6.8871 88.6265 3.44355C83.1265 0 78.1265 0 75.6265 0C73.1265 0 72.6265 0 67.1265 1.47581C61.6265 2.95161 57.6265 5.90323 55.6265 7.87097C53.6265 9.8387 53.1265 13.2823 52.1265 12.2984C51.1265 11.3145 45.6265 8.3629 42.1265 7.87097C38.6265 7.37903 33.6265 7.37903 29.6265 8.85484C25.6265 10.3306 22.1265 13.2823 21.1265 14.7581L18.1265 19.1855C17.4598 18.8575 15.8265 18.2016 14.6265 18.2016C13.1265 18.2016 11.6265 18.6935 9.62646 19.1855C7.62646 19.6774 4.62643 22.629 3.62643 24.5968Z" fill="white"/>
<path d="M26.3942 34.9538C26.4002 34.9693 26.4063 34.9847 26.4125 35C27.2219 37 28.5903 39.5602 30 40.5C31.5 41.5 32.286 42 33.5 42C34.4712 42 37.6087 40.8333 38.1483 40.5L40.5764 45C41.3858 46.5 44.2185 49.5 47.456 51C50.6934 52.5 54.7403 52.5 57.573 52C60.4058 51.5 64.8573 48.5 65.6667 47.5C66.476 46.5 66.8807 50 68.4994 52C70.1182 54 73.3556 57 77.8071 58.5C82.2586 60 82.6633 60 84.6867 60C86.7101 60 90.7569 60 95.2084 56.5C99.6599 53 100.469 51.5 101.683 49C102.655 47 103.167 44.5 103.302 43.5C104.111 44 106.216 45.1 108.158 45.5C110.586 46 113.419 45.5 115.442 44C117.466 42.5 119.489 41.5 120.703 39C121.917 36.5 122.322 36 122.727 34C123.051 32.4 122.862 30.3333 122.727 29.5L26.0078 29C18.8386 29.1667 4.4 29.4 4 29C3.5 28.5 2 28.5 1.5 28.5C1 28.5 0 29.5 0 31C0 32.2 0.333333 32.5 0.5 32.5C0.833333 33 2 34.2 4 35C6.5 36 8 32.5 8 35C8 37.5 10.5 41 15 42C19.5 43 23.8726 41.8153 25 40.5C25.9088 39.4398 26.2937 37.2046 26.3942 34.9538Z" fill="white"/>
</svg>
