<svg width="126" height="31" viewBox="0 0 126 31" fill="none" xmlns="http://www.w3.org/2000/svg">
<path d="M0.220861 16.7258C-0.179139 17.5129 0.054194 19.0215 0.220861 19.6774H12.2209H14.2209L18.2209 20.6613L24.2209 19.6774L34.2209 23.121L62.7209 20.6613V6.8871H57.7209C57.2209 6.8871 55.2209 3.93548 54.7209 3.44355C54.2209 2.95161 51.2209 1.47581 50.2209 0.983871C49.2209 0.491936 45.7209 0 44.7209 0C43.7209 0 40.7209 0 39.7209 0.491936L34.7209 2.95161C33.7209 3.44355 31.2209 5.90323 31.2209 6.39516C31.2209 6.8871 30.2209 6.8871 29.7209 6.8871C29.2209 6.8871 28.2209 6.39516 26.2209 5.90322C24.2209 5.41128 24.2209 5.90322 22.7209 5.90322C21.2209 5.90322 18.2209 8.3629 17.7209 8.85483C17.3209 9.24838 15.8876 11.6425 15.2209 12.7903C14.7209 12.6263 13.6209 12.2 13.2209 11.8064C12.7209 11.3145 9.72095 10.8226 8.72095 10.8226C7.72095 10.8226 5.22095 11.3145 3.72095 12.2984C2.22095 13.2823 0.720861 15.7419 0.220861 16.7258Z" fill="#2E5374"/>
<path d="M6.72091 24.5968C5.92091 26.171 6.05425 29.1882 6.22091 30.5L125.721 30.0081C125.888 29.1882 126.121 27.1548 125.721 25.5806C125.221 23.6129 124.721 23.121 123.221 20.6613C121.721 18.2016 119.221 17.2177 116.721 15.7419C114.221 14.2661 110.721 13.7742 107.721 14.2661C105.321 14.6597 102.721 15.7419 101.721 16.2339C101.554 15.25 100.921 12.7903 99.7209 10.8226C98.2209 8.3629 97.2209 6.8871 91.7209 3.44355C86.2209 0 81.2209 0 78.7209 0C76.2209 0 75.7209 0 70.2209 1.47581C64.7209 2.95161 60.7209 5.90323 58.7209 7.87097C56.7209 9.8387 56.2209 13.2823 55.2209 12.2984C54.2209 11.3145 48.7209 8.3629 45.2209 7.87097C41.7209 7.37903 36.7209 7.37903 32.7209 8.85484C28.7209 10.3306 25.2209 13.2823 24.2209 14.7581L21.2209 19.1855C20.5543 18.8575 18.9209 18.2016 17.7209 18.2016C16.2209 18.2016 14.7209 18.6935 12.7209 19.1855C10.7209 19.6774 7.72091 22.629 6.72091 24.5968Z" fill="#768392"/>
</svg>
