<svg width="123" height="60" viewBox="0 0 123 60" fill="none" xmlns="http://www.w3.org/2000/svg">
<path d="M119.279 24.5968C120.079 26.171 119.946 29.1882 119.779 30.5L0.279053 30.0081C0.112389 29.1882 -0.120949 27.1548 0.279053 25.5806C0.779053 23.6129 1.27905 23.121 2.77905 20.6613C4.27905 18.2016 6.77905 17.2177 9.27905 15.7419C11.7791 14.2661 15.2791 13.7742 18.2791 14.2661C20.6791 14.6597 23.2791 15.7419 24.2791 16.2339C24.4457 15.25 25.0791 12.7903 26.2791 10.8226C27.7791 8.3629 28.7791 6.8871 34.2791 3.44355C39.7791 0 44.7791 0 47.2791 0C49.7791 0 50.2791 0 55.7791 1.47581C61.2791 2.95161 65.2791 5.90323 67.2791 7.87097C69.2791 9.8387 69.7791 13.2823 70.7791 12.2984C71.7791 11.3145 77.2791 8.3629 80.7791 7.87097C84.2791 7.37903 89.2791 7.37903 93.2791 8.85484C97.2791 10.3306 100.779 13.2823 101.779 14.7581L104.779 19.1855C105.446 18.8575 107.079 18.2016 108.279 18.2016C109.779 18.2016 111.279 18.6935 113.279 19.1855C115.279 19.6774 118.279 22.629 119.279 24.5968Z" fill="white"/>
<path d="M96.5113 34.9538C96.5053 34.9693 96.4992 34.9847 96.493 35C95.6836 37 94.3152 39.5602 92.9055 40.5C91.4055 41.5 90.6196 42 89.4055 42C88.4343 42 85.2968 40.8333 84.7572 40.5L82.3291 45C81.5197 46.5 78.687 49.5 75.4495 51C72.2121 52.5 68.1653 52.5 65.3325 52C62.4997 51.5 58.0482 48.5 57.2389 47.5C56.4295 46.5 56.0248 50 54.4061 52C52.7874 54 49.5499 57 45.0984 58.5C40.6469 60 40.2422 60 38.2188 60C36.1954 60 32.1486 60 27.6971 56.5C23.2456 53 22.4362 51.5 21.2222 49C20.251 47 19.7384 44.5 19.6035 43.5C18.7941 44 16.6898 45.1 14.7473 45.5C12.3192 46 9.48643 45.5 7.46303 44C5.43962 42.5 3.41621 41.5 2.20216 39C0.988121 36.5 0.583435 36 0.178757 34C-0.144989 32.4 0.0438614 30.3333 0.178757 29.5L96.8977 29C104.067 29.1667 118.506 29.4 118.906 29C119.406 28.5 120.906 28.5 121.406 28.5C121.906 28.5 122.906 29.5 122.906 31C122.906 32.2 122.572 32.5 122.406 32.5C122.072 33 120.906 34.2 118.906 35C116.406 36 114.906 32.5 114.906 35C114.906 37.5 112.406 41 107.906 42C103.406 43 99.0329 41.8153 97.9055 40.5C96.9968 39.4398 96.6118 37.2046 96.5113 34.9538Z" fill="white"/>
</svg>
