<svg width="126" height="31" viewBox="0 0 126 31" fill="none" xmlns="http://www.w3.org/2000/svg">
<path d="M125.721 17C126.121 17.8 125.888 19.3333 125.721 20H113.721H111.721L107.721 21L101.721 20L91.7208 23.5L63.2208 21V7H68.2208C68.7208 7 70.7208 4 71.2208 3.5C71.7208 3 74.7208 1.5 75.7208 1C76.7208 0.5 80.2208 0 81.2208 0C82.2208 0 85.2208 0 86.2208 0.5L91.2208 3C92.2208 3.5 94.7208 6 94.7208 6.5C94.7208 7 95.7208 7 96.2208 7C96.7208 7 97.7208 6.49999 99.7208 5.99999C101.721 5.49999 101.721 5.99999 103.221 5.99999C104.721 5.99999 107.721 8.49999 108.221 8.99999C108.621 9.39999 110.054 11.8333 110.721 13C111.221 12.8333 112.321 12.4 112.721 12C113.221 11.5 116.221 11 117.221 11C118.221 11 120.721 11.5 122.221 12.5C123.721 13.5 125.221 16 125.721 17Z" fill="#2E5374"/>
<path d="M119.221 25C120.021 26.6 119.888 29.6667 119.721 31L0.220825 30.5C0.0541611 29.6667 -0.179176 27.6 0.220825 26C0.720825 24 1.22083 23.5 2.72083 21C4.22083 18.5 6.72083 17.5 9.22083 16C11.7208 14.5 15.2208 14 18.2208 14.5C20.6208 14.9 23.2208 16 24.2208 16.5C24.3875 15.5 25.0208 13 26.2208 11C27.7208 8.5 28.7208 7 34.2208 3.5C39.7208 0 44.7208 0 47.2208 0C49.7208 0 50.2208 0 55.7208 1.5C61.2208 3 65.2208 6 67.2208 8C69.2208 9.99999 69.7208 13.5 70.7208 12.5C71.7208 11.5 77.2208 8.5 80.7208 8C84.2208 7.5 89.2208 7.5 93.2208 9C97.2208 10.5 100.721 13.5 101.721 15L104.721 19.5C105.387 19.1667 107.021 18.5 108.221 18.5C109.721 18.5 111.221 19 113.221 19.5C115.221 20 118.221 23 119.221 25Z" fill="#768392"/>
</svg>
