<svg width="1728" height="1117" viewBox="0 0 1728 1117" fill="none" xmlns="http://www.w3.org/2000/svg">
<g clip-path="url(#clip0_121_1553)">
<rect width="1728" height="1117" fill="white"/>
<path d="M99.5 622L0.5 550.5V707L384.5 751L821 737L658.5 650L568.5 605.5C564.833 603.833 556.5 600.3 552.5 599.5C547.5 598.5 539.5 599 533.5 600.5C528.7 601.7 523.167 605.667 521 607.5L469 649L444.5 633L301.5 533.5C296.5 530.333 284.4 523.6 276 522C265.5 520 260.5 521.5 255.5 522C250.5 522.5 237.5 528.5 232.5 530.5C228.5 532.1 214.833 540.833 208.5 545L101.5 623.5L99.5 622Z" fill="#959595"/>
<path d="M1550 518.5L1728 608.5V717.5H927.5L1016.5 668.5L1102 615C1107.67 611.167 1120.8 602.6 1128 599C1137 594.5 1142 595 1150 593.5C1158 592 1171.5 594 1187.5 598C1200.3 601.2 1237.5 619.667 1254.5 628.5L1417 538.5C1434.17 528.667 1470.3 508.3 1477.5 505.5C1486.5 502 1494 502.5 1507 503C1517.4 503.4 1540 513.5 1550 518.5Z" fill="#959595"/>
<path d="M1004.95 662.696L1064.45 704.196C1062.95 704.529 1059.75 705.196 1058.95 705.196C1057.95 705.196 1053.95 706.696 1051.45 707.696C1048.95 708.696 1029.45 716.196 1027.95 716.696C1026.45 717.196 1014.45 719.696 1012.45 720.196C1010.45 720.696 986.447 722.696 982.947 722.696C979.447 722.696 952.947 722.196 950.947 722.196C948.947 722.196 926.447 720.196 924.447 719.696C922.447 719.196 912.947 717.696 910.947 717.196C908.947 716.696 901.947 714.696 899.947 714.196C897.947 713.696 894.447 712.196 892.947 710.696C891.447 709.196 891.947 708.196 892.947 706.196C893.747 704.596 902.613 699.863 906.947 697.696L936.947 679.696C944.447 675.196 960.047 665.796 962.447 664.196C965.447 662.196 971.947 659.196 975.947 658.196C979.947 657.196 983.447 656.696 990.447 657.196C996.047 657.596 1002.45 661.029 1004.95 662.696Z" fill="#ABC0AB"/>
<path d="M605.947 691.696L665.447 733.196C663.947 733.529 660.747 734.196 659.947 734.196C658.947 734.196 654.947 735.696 652.447 736.696C649.947 737.696 630.447 745.196 628.947 745.696C627.447 746.196 615.447 748.696 613.447 749.196C611.447 749.696 587.447 751.696 583.947 751.696C580.447 751.696 553.947 751.196 551.947 751.196C549.947 751.196 527.447 749.196 525.447 748.696C523.447 748.196 513.947 746.696 511.947 746.196C509.947 745.696 502.947 743.696 500.947 743.196C498.947 742.696 495.447 741.196 493.947 739.696C492.447 738.196 492.947 737.196 493.947 735.196C494.747 733.596 503.613 728.863 507.947 726.696L537.947 708.696C545.447 704.196 561.047 694.796 563.447 693.196C566.447 691.196 572.947 688.196 576.947 687.196C580.947 686.196 584.447 685.696 591.447 686.196C597.047 686.596 603.447 690.029 605.947 691.696Z" fill="#ABC0AB"/>
<path d="M1282 609C1288.4 611 1303.33 623.5 1310 629.5V722.5H1074C1120.5 689.333 1214.1 622.6 1216.5 621C1219.5 619 1225.5 614 1231 611C1236.5 608 1247.5 605 1256.5 604.5C1265.5 604 1274 606.5 1282 609Z" fill="#ABC0AB"/>
<path d="M1519 646C1524.2 648.8 1578.5 676.167 1605 689.5V727H1160.5L1311 629L1351.5 602.5C1362.33 595.333 1384.9 580.6 1388.5 579C1393 577 1394 576 1402 577C1408.4 577.8 1420.33 583.667 1425.5 586.5C1454.5 605.167 1513.8 643.2 1519 646Z" fill="#ABC0AB"/>
<path d="M1664.5 592L1728 630V718H1435.5L1528.5 652.5L1586 616C1600 608 1629.1 591.1 1633.5 587.5C1639 583 1642.5 583 1650 585C1656 586.6 1662.17 590.333 1664.5 592Z" fill="#ABC0AB"/>
<path d="M326 689C322.4 692.2 316.167 698.333 313.5 701V753.5H531C484.833 726.167 391.7 671.1 388.5 669.5C384.5 667.5 372.5 661.5 366.5 661.5C360.5 661.5 354 666.5 349.5 669.5C345 672.5 330.5 685 326 689Z" fill="#ABC0AB"/>
<path d="M153.5 653.5C148.7 657.1 139.167 663.333 135 666L131.5 668V747.5H377C325 710.333 220.3 635.4 217.5 633C214 630 206 626.5 200 626.5C194 626.5 191 627.5 185.5 630.5C180 633.5 159.5 649 153.5 653.5Z" fill="#ABC0AB"/>
<path d="M19.5 607.5C14.7 608.3 4.83333 614.5 0.5 617.5V736.5H244.5L68.5 624C60.8333 619 44.3 608.7 39.5 607.5C33.5 606 25.5 606.5 19.5 607.5Z" fill="#ABC0AB"/>
<path d="M784 706.5H769C764.5 706.833 754.5 707.7 750.5 708.5C745.5 709.5 741 715.5 734 717C727 718.5 710 720 705 720C700 720 687.5 724 674.5 720C661.5 716 655.5 713.5 643 714C630.5 714.5 623.5 719.5 613 720C602.5 720.5 586.5 725.5 573 730C559.5 734.5 542 743 531 745.5C520 748 501.5 747.5 489 745.5C479 743.9 446.833 729.5 432 722.5C423.333 719.5 404 713.2 396 712C386 710.5 386 710.5 375 711C364 711.5 349.5 717 341.5 720.5C333.5 724 297 734.5 284.5 737C272 739.5 262.5 737.5 254.5 736C246.5 734.5 234.5 730.5 226 727.5C217.5 724.5 194.5 717.5 182.5 717C170.5 716.5 156.5 717.5 149 719C141.5 720.5 125 726.5 118 726.5C111 726.5 110.5 728.5 97.5 726.5C84.5 724.5 76 712 65 705.5C54 699 56 697.5 43 699C32.6 700.2 10.3333 711.167 0.5 716.5L-6.5 720L-9 724V1125H1730.5V701.5L1728 700.5C1725.67 700.667 1719.7 700.9 1714.5 700.5C1708 700 1688.5 698.5 1682.5 697.5C1676.5 696.5 1653 692.5 1644 690.5C1635 688.5 1610 686 1601.5 686H1571C1560 686 1538 690 1528.5 693C1519 696 1498 703.5 1492 706C1486 708.5 1471.5 712 1462 714.5C1452.5 717 1438.5 716.5 1433 717C1427.5 717.5 1419.5 716.5 1413.5 716.5C1407.5 716.5 1389.5 713.5 1384 711.5C1378.5 709.5 1369.5 705.5 1363 702.5C1356.5 699.5 1342 696 1334.5 695C1327 694 1305.5 693.5 1299.5 694C1293.5 694.5 1284 697 1277 699C1270 701 1243 710 1237 711.5C1231 713 1208 716 1201 716.5C1194 717 1179.5 717.5 1173.5 716.5C1167.5 715.5 1165 715 1160.5 714C1156 713 1140 708 1133.5 706C1127 704 1111 702 1105.5 701.5C1100 701 1088.5 701.5 1085.5 701.5C1082.5 701.5 1064.5 702.5 1060 703.5C1055.5 704.5 1045 708.5 1039.5 711.5C1034 714.5 1020.5 718 1014.5 719C1008.5 720 984 721.5 978.5 721.5C973 721.5 955 722 950.5 721.5C946 721 914.5 716.5 910.5 715.5C906.5 714.5 898 711.5 896.5 711C895 710.5 894 708.5 894 707C894 705.8 895.333 704.5 896 704H889.5C873.167 703.833 872.8 708 870 708H818H802C799.451 708 788 706.5 784 706.5Z" fill="#69A16A"/>
<path d="M42.5 734C32.5 734 10.3333 739.333 0.5 742H-1.5V832.5C6 831.333 22.5 829.1 28.5 829.5C36 830 52.5 829.5 58.5 828C64.5 826.5 83 828 91.5 828C100 828 102 824 113 822.5C124 821 129.5 816.5 138 813.5C146.5 810.5 157 807 162.5 803.5C168 800 183.5 793.5 194.5 793C205.5 792.5 216 793.5 226.5 796C237 798.5 264 814 272.5 821C279.3 826.6 298.667 837.333 307.5 842C312.167 843.833 322.2 847.6 325 848C328.5 848.5 341.5 848 347.5 847C353.5 846 361 841.5 366.5 839.5C370.9 837.9 375 837.5 376.5 837.5C381.667 837.167 393.4 836.7 399 837.5C406 838.5 408 841 411 842.5C414 844 430 852 435 852.5C440 853 461 851 466.5 850.5C472 850 491.5 843 494.5 841.5C497.5 840 511.5 833.5 515.5 832.5C518.7 831.7 527.5 832.167 531.5 832.5L566 833C580.833 832.833 611.1 832.5 613.5 832.5C615.9 832.5 636.833 830.833 647 830C653 829.167 665.8 827.4 669 827C673 826.5 685.5 822.5 692 820.5C698.5 818.5 704.5 811.5 707 808.5C709.5 805.5 711.5 796 711 790C710.5 784 711.5 782.5 713.5 775.5C715.5 768.5 719.5 768 724.5 764.5C729.5 761 740 759 745 758.5C750 758 761.5 755 766 752.5C770.5 750 775 745 775.5 741C776 737 772.5 734.5 771 733C769.5 731.5 769 731 769.5 724.5C770 718 779 715.5 782.5 714C785.3 712.8 795.333 709.833 800 708.5C798.167 709 793.4 710.1 789 710.5C783.5 711 768.5 714.5 764 715.5C759.5 716.5 748.5 717.5 740.5 723.5C732.5 729.5 735.5 731 731 740C726.5 749 714.5 746.5 704 750.5C693.5 754.5 677 744.5 669.5 746.5C662 748.5 651 748.5 634 746.5C617 744.5 602.5 747.5 591 750.5C579.5 753.5 568.5 755 555 754.5C541.5 754 514 758 496.5 760C479 762 451 768 445.5 768.5C440 769 417.5 768 411.5 767C405.5 766 405.5 766.5 398.5 762.5C391.5 758.5 372 752 363 750.5C354 749 332.5 752 325.5 752C318.5 752 270.5 764 260.5 766.5C250.5 769 230 775.5 225 775.5C220 775.5 198.5 768.5 191 766.5C183.5 764.5 142 755 132 752.5C122 750 86.5 742 74.5 738.5C62.5 735 55 734 42.5 734Z" fill="#5B995E"/>
<path d="M1669.5 732.5C1692.3 734.5 1722.67 740 1735 742.5V798H1705C1693.5 798 1687.5 796.5 1671.5 798C1655.5 799.5 1645 803.5 1635.5 806C1626 808.5 1602.5 820.5 1593.5 826.5C1584.5 832.5 1569.5 842 1555.5 847.5C1541.5 853 1542 850 1528.5 850C1515 850 1510 848 1505.5 847.5C1501 847 1478 845 1473 844C1468 843 1453 840 1448 838.5C1443 837 1425.5 831 1420.5 828.5C1415.5 826 1400 821.5 1393.5 820.5C1387 819.5 1382.5 821.5 1376 822.5C1369.5 823.5 1364 827.5 1357 829C1350 830.5 1337.5 834.5 1332 836.5C1326.5 838.5 1316.5 838.5 1311 838C1305.5 837.5 1289.5 833.5 1282 832C1274.5 830.5 1269 830.5 1264.5 830C1260 829.5 1250 833 1245 835C1240 837 1216.5 849 1210.5 852C1204.5 855 1184.5 855.5 1177 854.5C1169.5 853.5 1159 851 1152.5 849C1146 847 1128 836 1125.5 834C1123 832 1108.5 820.5 1102.5 816.5C1096.5 812.5 1078.5 803 1073 799.5C1067.5 796 1061.5 795.5 1052 792C1042.5 788.5 1035 790 1031.5 790C1028 790 1004.5 789.5 999 788C993.5 786.5 993.5 785.5 991.5 783C989.5 780.5 979.5 776 973.5 773C967.5 770 958.5 770 953.5 769C949.5 768.2 937.833 767.333 932.5 767C929 766.667 920.8 765.5 916 763.5C910 761 913 757 914.5 753.5C916 750 918.5 746 918.5 742C918.5 738 914.5 736 911.5 733C908.5 730 902.5 727 897.5 724C892.5 721 886 719 883 717.5C880 716 876.5 716 874 714.5C871.5 713 872.5 713 873 711.5C873.5 710 879 707.5 879 709.5C879 711.5 880.5 713 883 714.5C885.5 716 894 717.5 902.5 720.5C911 723.5 917 728 923 731C929 734 944 746 953.5 751C963 756 980.5 758.5 999 759C1017.5 759.5 1035.5 752.5 1049 748C1062.5 743.5 1084.5 739.5 1106.5 740C1128.5 740.5 1147.5 749 1158.5 755.5C1169.5 762 1201.5 780 1214 785C1226.5 790 1268 791.5 1281 791C1294 790.5 1326 774.5 1336 770C1346 765.5 1368 760 1388.5 759C1409 758 1455 769 1476.5 770C1498 771 1510.5 766.5 1527 764.5C1543.5 762.5 1579 749 1599.5 740C1620 731 1641 730 1669.5 732.5Z" fill="#5B995E"/>
<path d="M1125 833.5C1135.33 834.333 1159 835.5 1165 833.5C1172.5 831 1193 823 1196.5 819.5C1199.63 816.366 1203.04 811.593 1205.5 806.5L1211.5 793.5C1214 787.5 1220 778.5 1226 778.5H1244L1245.5 780C1239 780 1227.5 780.5 1226 781C1224.66 781.447 1223.5 782 1222 783C1220.8 783.8 1219.33 785.667 1218.5 786.5C1217.67 788.167 1216 792 1215 794.5C1213.84 797.409 1206 815.5 1204 817.5C1202 819.5 1190 830.5 1186 832C1182 833.5 1172.5 838.5 1167 840C1162.6 841.2 1145.17 841.5 1137 841.5L1125 833.5Z" fill="#D9D9D9"/>
<path d="M831.5 708L718 1110.5H960L844 708H831.5Z" fill="#D9D9D9"/>
<path d="M787.5 866H755L758.5 856.5L790.5 856L788.845 861L787.5 866Z" fill="#D9D9D9"/>
<path d="M870 805H1082.5L1073 799.5L1068 797L1063 795.5L867.5 795L870 805Z" fill="#D9D9D9"/>
<path d="M116.5 856H16H0V864V1116.5H1745V889.5C1745.17 888.667 1744.9 886.6 1742.5 885C1739.5 883 1735 882.5 1730.5 882C1726 881.5 1721 883 1716.5 886C1712.17 888.884 1710.16 895.001 1709.57 896.803L1709.5 897C1709 898.5 1709 896.5 1707.5 894.5C1706 892.5 1702 892.5 1700 892C1698 891.5 1697.5 892.5 1695 893C1692.5 893.5 1692.5 896.5 1691.5 895.5C1690.5 894.5 1690 890.5 1688.5 887C1687 883.5 1685 884 1680.5 881C1676 878 1669 882 1667.5 883C1666 884 1667 884.5 1666 879C1665 873.5 1650 865 1645.5 865C1641 865 1611.5 866 1604 865C1596.5 864 1526.5 858.5 1516 858.5H1490C1482 858.5 1476.5 859 1469 862.5C1461.5 866 1452.5 877.5 1446.5 889.5C1440.5 901.5 1434 913.5 1427 920C1420 926.5 1398.5 931 1392.5 931C1386.5 931 1379.5 928 1373 926.5C1366.5 925 1354 911.5 1351.5 907.5C1349 903.5 1335.5 894.5 1330.5 893C1325.5 891.5 1308 893 1302 893C1296 893 1270 894.5 1265.5 894.5C1261 894.5 1242.5 894 1236.5 894.5C1230.5 895 1212.5 899 1208.5 903.5C1204.5 908 1204 916 1200.5 920C1197 924 1174.5 930 1170 930.5C1165.5 931 1138.5 925 1131.5 922.5C1125.9 920.5 1097.17 914.667 1083.5 912H1009C1006.5 912 995 910.5 990 910.5C985 910.5 978.5 912 972 913C965.5 914 959.5 918.5 955 921C950.5 923.5 948.5 926 944.5 929.5C940.5 933 938.5 932.5 930 936C923.2 938.8 900.167 938.833 889.5 938.5H649.5C647 938.5 635.5 938 630.5 937.5C625.5 937 602.5 931 598.5 929.5C594.5 928 576 919 573 917.5C570 916 557.5 906.5 553.5 903.5C549.5 900.5 537.5 897 532 895.5C526.5 894 514 894 509 894C504 894 485 895 481.5 895.5C478 896 467.5 896.5 464.5 896.5C461.5 896.5 457.5 896 451.5 896.5C445.5 897 437 899.5 428.5 902.5C420 905.5 414.5 913 413 914C411.5 915 409.5 916 407.5 917C405.5 918 400 921 398 923C396 925 392 926 390 926.5C388 927 384.5 925.5 382.5 925.5C380.5 925.5 376.5 928.5 376 929C375.5 929.5 375.5 925 375 923C374.5 921 373 919.5 371 917C369 914.5 361.5 913 359.5 913C357.5 913 352 916.5 352 915.5C352 914.5 350 909.5 348.5 907C347 904.5 341.5 900.5 338 899C334.5 897.5 323.5 900 322 900.5C320.5 901 317 895.5 314.5 892.5C312 889.5 299.5 885.5 296 885.5C292.5 885.5 280.5 891 278 892.5C275.5 894 271.5 904 270.5 906C269.5 908 263 901 259 899C255 897 245 893.5 239.5 892.5C234 891.5 215 895.5 211.5 892.5C208 889.5 196.5 887 187.5 885.5C178.5 884 147.5 867.5 139.5 864C133.1 861.2 121.5 857.5 116.5 856Z" fill="#3C6252"/>
<path d="M285.221 379.726C284.821 380.513 285.054 382.021 285.221 382.677H297.221H299.221L303.221 383.661L309.221 382.677L319.221 386.121L347.721 383.661V369.887H342.721C342.221 369.887 340.221 366.935 339.721 366.444C339.221 365.952 336.221 364.476 335.221 363.984C334.221 363.492 330.721 363 329.721 363C328.721 363 325.721 363 324.721 363.492L319.721 365.952C318.721 366.444 316.221 368.903 316.221 369.395C316.221 369.887 315.221 369.887 314.721 369.887C314.221 369.887 313.221 369.395 311.221 368.903C309.221 368.411 309.221 368.903 307.721 368.903C306.221 368.903 303.221 371.363 302.721 371.855C302.321 372.248 300.888 374.642 300.221 375.79C299.721 375.626 298.621 375.2 298.221 374.806C297.721 374.315 294.721 373.823 293.721 373.823C292.721 373.823 290.221 374.315 288.721 375.298C287.221 376.282 285.721 378.742 285.221 379.726Z" fill="#2E5374"/>
<path d="M291.721 387.597C290.921 389.171 291.054 392.188 291.221 393.5L410.721 393.008C410.888 392.188 411.121 390.155 410.721 388.581C410.221 386.613 409.721 386.121 408.221 383.661C406.721 381.202 404.221 380.218 401.721 378.742C399.221 377.266 395.721 376.774 392.721 377.266C390.321 377.66 387.721 378.742 386.721 379.234C386.554 378.25 385.921 375.79 384.721 373.823C383.221 371.363 382.221 369.887 376.721 366.444C371.221 363 366.221 363 363.721 363C361.221 363 360.721 363 355.221 364.476C349.721 365.952 345.721 368.903 343.721 370.871C341.721 372.839 341.221 376.282 340.221 375.298C339.221 374.315 333.721 371.363 330.221 370.871C326.721 370.379 321.721 370.379 317.721 371.855C313.721 373.331 310.221 376.282 309.221 377.758L306.221 382.185C305.554 381.858 303.921 381.202 302.721 381.202C301.221 381.202 299.721 381.694 297.721 382.185C295.721 382.677 292.721 385.629 291.721 387.597Z" fill="#768392"/>
<path d="M779.221 231.726C778.821 232.513 779.054 234.021 779.221 234.677H791.221H793.221L797.221 235.661L803.221 234.677L813.221 238.121L841.721 235.661V221.887H836.721C836.221 221.887 834.221 218.935 833.721 218.444C833.221 217.952 830.221 216.476 829.221 215.984C828.221 215.492 824.721 215 823.721 215C822.721 215 819.721 215 818.721 215.492L813.721 217.952C812.721 218.444 810.221 220.903 810.221 221.395C810.221 221.887 809.221 221.887 808.721 221.887C808.221 221.887 807.221 221.395 805.221 220.903C803.221 220.411 803.221 220.903 801.721 220.903C800.221 220.903 797.221 223.363 796.721 223.855C796.321 224.248 794.888 226.642 794.221 227.79C793.721 227.626 792.621 227.2 792.221 226.806C791.721 226.315 788.721 225.823 787.721 225.823C786.721 225.823 784.221 226.315 782.721 227.298C781.221 228.282 779.721 230.742 779.221 231.726Z" fill="#2E5374"/>
<path d="M785.721 239.597C784.921 241.171 785.054 244.188 785.221 245.5L904.721 245.008C904.888 244.188 905.121 242.155 904.721 240.581C904.221 238.613 903.721 238.121 902.221 235.661C900.721 233.202 898.221 232.218 895.721 230.742C893.221 229.266 889.721 228.774 886.721 229.266C884.321 229.66 881.721 230.742 880.721 231.234C880.554 230.25 879.921 227.79 878.721 225.823C877.221 223.363 876.221 221.887 870.721 218.444C865.221 215 860.221 215 857.721 215C855.221 215 854.721 215 849.221 216.476C843.721 217.952 839.721 220.903 837.721 222.871C835.721 224.839 835.221 228.282 834.221 227.298C833.221 226.315 827.721 223.363 824.221 222.871C820.721 222.379 815.721 222.379 811.721 223.855C807.721 225.331 804.221 228.282 803.221 229.758L800.221 234.185C799.554 233.858 797.921 233.202 796.721 233.202C795.221 233.202 793.721 233.694 791.721 234.185C789.721 234.677 786.721 237.629 785.721 239.597Z" fill="#768392"/>
<path d="M1235.72 372C1236.12 372.8 1235.89 374.333 1235.72 375H1223.72H1221.72L1217.72 376L1211.72 375L1201.72 378.5L1173.22 376V362H1178.22C1178.72 362 1180.72 359 1181.22 358.5C1181.72 358 1184.72 356.5 1185.72 356C1186.72 355.5 1190.22 355 1191.22 355C1192.22 355 1195.22 355 1196.22 355.5L1201.22 358C1202.22 358.5 1204.72 361 1204.72 361.5C1204.72 362 1205.72 362 1206.22 362C1206.72 362 1207.72 361.5 1209.72 361C1211.72 360.5 1211.72 361 1213.22 361C1214.72 361 1217.72 363.5 1218.22 364C1218.62 364.4 1220.05 366.833 1220.72 368C1221.22 367.833 1222.32 367.4 1222.72 367C1223.22 366.5 1226.22 366 1227.22 366C1228.22 366 1230.72 366.5 1232.22 367.5C1233.72 368.5 1235.22 371 1235.72 372Z" fill="#2E5374"/>
<path d="M1229.22 380C1230.02 381.6 1229.89 384.667 1229.72 386L1110.22 385.5C1110.05 384.667 1109.82 382.6 1110.22 381C1110.72 379 1111.22 378.5 1112.72 376C1114.22 373.5 1116.72 372.5 1119.22 371C1121.72 369.5 1125.22 369 1128.22 369.5C1130.62 369.9 1133.22 371 1134.22 371.5C1134.39 370.5 1135.02 368 1136.22 366C1137.72 363.5 1138.72 362 1144.22 358.5C1149.72 355 1154.72 355 1157.22 355C1159.72 355 1160.22 355 1165.72 356.5C1171.22 358 1175.22 361 1177.22 363C1179.22 365 1179.72 368.5 1180.72 367.5C1181.72 366.5 1187.22 363.5 1190.72 363C1194.22 362.5 1199.22 362.5 1203.22 364C1207.22 365.5 1210.72 368.5 1211.72 370L1214.72 374.5C1215.39 374.167 1217.02 373.5 1218.22 373.5C1219.72 373.5 1221.22 374 1223.22 374.5C1225.22 375 1228.22 378 1229.22 380Z" fill="#768392"/>
<path d="M655 888H747.028V783.671H655V835.835V888Z" fill="#A4A4A4"/>
<path d="M655 783.671L694.352 762H765L747.028 783.671H655Z" fill="#D9D9D9"/>
<path d="M747.028 888L765 838.467V762L747.028 783.671V888Z" fill="#C6C6C6"/>
<path d="M755 840V866.04L758.5 856.36V832L755 840Z" fill="#747474"/>
<path d="M757 829.5H747V821H757V829.5Z" fill="#A4A4A4"/>
<path d="M774 808.5L757 829.5V821L774 802.5V805.5V808.5Z" fill="#C6C6C6"/>
<path d="M774 802.5H765L747 821H757L774 802.5Z" fill="#D9D9D9"/>
<path d="M1245.8 716C1232.26 720.755 1222 742.151 1222 752.365C1222 762.581 1232.26 761.861 1245.8 763.671V716Z" fill="#7DA81D"/>
<path d="M1245.57 716C1259.11 720.755 1269.36 742.151 1269.36 752.365C1269.36 762.581 1259.1 761.861 1245.57 763.671V716Z" fill="#469315"/>
<path d="M1245.68 786.202C1243.99 786.202 1242.63 784.84 1242.63 783.156V751.384C1242.63 749.697 1243.99 748.332 1245.68 748.332C1247.36 748.332 1248.73 749.699 1248.73 751.384V783.156C1248.73 784.84 1247.36 786.202 1245.68 786.202Z" fill="#825E40"/>
<path d="M1246.61 759.476L1239.99 752.856C1239.43 752.297 1238.53 752.295 1237.97 752.854C1237.41 753.412 1237.41 754.315 1237.97 754.873L1244.59 761.493L1246.61 759.476Z" fill="#825E40"/>
<path d="M1244.75 759.476L1251.37 752.856C1251.93 752.297 1252.83 752.295 1253.39 752.854C1253.95 753.412 1253.94 754.315 1253.39 754.873L1246.77 761.493L1244.75 759.476Z" fill="#825E40"/>
<path d="M1240.71 750.78C1240.71 748.132 1242.86 745.984 1245.5 745.984C1248.16 745.984 1250.3 748.132 1250.3 750.78" fill="#A3CC32"/>
<path d="M1230.29 740.363C1230.29 738.666 1231.67 737.29 1233.36 737.29C1235.06 737.29 1236.43 738.666 1236.43 740.363" fill="#A3CC32"/>
<path d="M1229.24 751.307C1229.24 749.611 1230.62 748.235 1232.31 748.235C1234.01 748.235 1235.39 749.611 1235.39 751.307" fill="#A3CC32"/>
<path d="M1243.03 733.426C1243.03 732.183 1244.04 731.177 1245.28 731.177C1246.52 731.177 1247.53 732.183 1247.53 733.426" fill="#A3CC32"/>
<path d="M1251.58 734.923C1251.58 733.226 1252.95 731.85 1254.65 731.85C1256.34 731.85 1257.72 733.226 1257.72 734.923" fill="#A3CC32"/>
<path d="M1257.27 756.808C1257.27 755.112 1258.65 753.735 1260.35 753.735C1262.04 753.735 1263.42 755.112 1263.42 756.808" fill="#A3CC32"/>
<path d="M1242.73 725.482C1242.73 723.786 1244.11 722.41 1245.8 722.41C1247.5 722.41 1248.88 723.786 1248.88 725.482" fill="#A3CC32"/>
<path d="M1255.81 741.821C1255.81 740.726 1256.7 739.835 1257.8 739.835C1258.89 739.835 1259.78 740.724 1259.78 741.821" fill="#A3CC32"/>
<path d="M1240.37 742.571C1240.37 741.476 1241.26 740.585 1242.36 740.585C1243.45 740.585 1244.34 741.474 1244.34 742.571" fill="#A3CC32"/>
<path d="M1230.78 757.71C1230.78 756.614 1231.67 755.724 1232.76 755.724C1233.86 755.724 1234.75 756.612 1234.75 757.71" fill="#A3CC32"/>
<path d="M1257.01 748.173C1257.01 747.078 1257.9 746.188 1259 746.188C1260.09 746.188 1260.98 747.076 1260.98 748.173" fill="#A3CC32"/>
<path d="M1236.17 731.03C1236.17 729.934 1237.06 729.044 1238.16 729.044C1239.25 729.044 1240.14 729.933 1240.14 731.03" fill="#A3CC32"/>
<path d="M1594.73 663.803C1588.83 665.875 1584.36 675.2 1584.36 679.652C1584.36 684.104 1588.83 683.791 1594.73 684.579V663.803Z" fill="#7DA81D"/>
<path d="M1594.63 663.803C1600.53 665.875 1605 675.2 1605 679.652C1605 684.104 1600.53 683.791 1594.63 684.579V663.803Z" fill="#469315"/>
<path d="M1594.68 694.399C1593.94 694.399 1593.35 693.806 1593.35 693.072V679.225C1593.35 678.489 1593.94 677.894 1594.68 677.894C1595.41 677.894 1596.01 678.49 1596.01 679.225V693.072C1596.01 693.806 1595.41 694.399 1594.68 694.399Z" fill="#825E40"/>
<path d="M1595.08 682.751L1592.2 679.866C1591.96 679.622 1591.56 679.621 1591.32 679.865C1591.08 680.108 1591.08 680.502 1591.32 680.745L1594.21 683.63L1595.08 682.751Z" fill="#825E40"/>
<path d="M1594.27 682.751L1597.16 679.866C1597.4 679.622 1597.8 679.621 1598.04 679.865C1598.28 680.108 1598.28 680.502 1598.04 680.745L1595.15 683.63L1594.27 682.751Z" fill="#825E40"/>
<path d="M1592.51 678.961C1592.51 677.807 1593.45 676.871 1594.6 676.871C1595.76 676.871 1596.69 677.807 1596.69 678.961" fill="#A3CC32"/>
<path d="M1587.97 674.421C1587.97 673.682 1588.57 673.082 1589.31 673.082C1590.05 673.082 1590.65 673.682 1590.65 674.421" fill="#A3CC32"/>
<path d="M1587.52 679.191C1587.52 678.452 1588.12 677.852 1588.85 677.852C1589.59 677.852 1590.19 678.452 1590.19 679.191" fill="#A3CC32"/>
<path d="M1593.53 671.398C1593.53 670.856 1593.97 670.418 1594.51 670.418C1595.05 670.418 1595.49 670.856 1595.49 671.398" fill="#A3CC32"/>
<path d="M1597.25 672.05C1597.25 671.311 1597.85 670.711 1598.59 670.711C1599.33 670.711 1599.93 671.311 1599.93 672.05" fill="#A3CC32"/>
<path d="M1599.73 681.588C1599.73 680.849 1600.33 680.249 1601.07 680.249C1601.81 680.249 1602.41 680.849 1602.41 681.588" fill="#A3CC32"/>
<path d="M1593.4 667.936C1593.4 667.196 1594 666.597 1594.73 666.597C1595.47 666.597 1596.07 667.196 1596.07 667.936" fill="#A3CC32"/>
<path d="M1599.1 675.057C1599.1 674.579 1599.48 674.191 1599.96 674.191C1600.44 674.191 1600.83 674.579 1600.83 675.057" fill="#A3CC32"/>
<path d="M1592.37 675.384C1592.37 674.906 1592.75 674.518 1593.23 674.518C1593.71 674.518 1594.1 674.906 1594.1 675.384" fill="#A3CC32"/>
<path d="M1588.19 681.981C1588.19 681.504 1588.57 681.116 1589.05 681.116C1589.53 681.116 1589.92 681.503 1589.92 681.981" fill="#A3CC32"/>
<path d="M1599.62 677.825C1599.62 677.348 1600.01 676.96 1600.48 676.96C1600.96 676.96 1601.35 677.347 1601.35 677.825" fill="#A3CC32"/>
<path d="M1590.54 670.354C1590.54 669.876 1590.92 669.488 1591.4 669.488C1591.88 669.488 1592.27 669.875 1592.27 670.354" fill="#A3CC32"/>
<path d="M1436.52 737C1414.61 744.694 1398 779.319 1398 795.848C1398 812.38 1414.61 811.216 1436.52 814.144V737Z" fill="#7DA81D"/>
<path d="M1436.14 737C1458.06 744.694 1474.64 779.319 1474.64 795.848C1474.64 812.38 1458.04 811.216 1436.14 814.144V737Z" fill="#469315"/>
<path d="M1436.32 850.606C1433.59 850.606 1431.38 848.402 1431.38 845.677V794.261C1431.38 791.531 1433.59 789.321 1436.32 789.321C1439.05 789.321 1441.25 791.534 1441.25 794.261V845.677C1441.25 848.402 1439.04 850.606 1436.32 850.606Z" fill="#825E40"/>
<path d="M1437.82 807.356L1427.11 796.643C1426.21 795.738 1424.75 795.735 1423.84 796.64C1422.94 797.543 1422.95 799.004 1423.84 799.906L1434.56 810.619L1437.82 807.356Z" fill="#825E40"/>
<path d="M1434.82 807.356L1445.53 796.643C1446.43 795.738 1447.89 795.735 1448.79 796.64C1449.7 797.543 1449.7 799.004 1448.79 799.906L1438.08 810.619L1434.82 807.356Z" fill="#825E40"/>
<path d="M1428.28 793.284C1428.28 788.998 1431.75 785.522 1436.04 785.522C1440.33 785.522 1443.8 788.998 1443.8 793.284" fill="#A3CC32"/>
<path d="M1411.41 776.425C1411.41 773.68 1413.64 771.453 1416.39 771.453C1419.13 771.453 1421.36 773.68 1421.36 776.425" fill="#A3CC32"/>
<path d="M1409.72 794.136C1409.72 791.391 1411.95 789.164 1414.69 789.164C1417.43 789.164 1419.66 791.391 1419.66 794.136" fill="#A3CC32"/>
<path d="M1432.03 765.2C1432.03 763.188 1433.67 761.561 1435.67 761.561C1437.68 761.561 1439.31 763.188 1439.31 765.2" fill="#A3CC32"/>
<path d="M1445.86 767.622C1445.86 764.877 1448.09 762.65 1450.83 762.65C1453.58 762.65 1455.81 764.877 1455.81 767.622" fill="#A3CC32"/>
<path d="M1455.08 803.039C1455.08 800.293 1457.31 798.066 1460.05 798.066C1462.8 798.066 1465.02 800.293 1465.02 803.039" fill="#A3CC32"/>
<path d="M1431.55 752.345C1431.55 749.6 1433.78 747.373 1436.52 747.373C1439.27 747.373 1441.5 749.6 1441.5 752.345" fill="#A3CC32"/>
<path d="M1452.72 778.786C1452.72 777.013 1454.16 775.572 1455.93 775.572C1457.7 775.572 1459.14 777.01 1459.14 778.786" fill="#A3CC32"/>
<path d="M1427.73 780C1427.73 778.227 1429.17 776.786 1430.94 776.786C1432.71 776.786 1434.15 778.224 1434.15 780" fill="#A3CC32"/>
<path d="M1412.21 804.497C1412.21 802.724 1413.65 801.283 1415.42 801.283C1417.19 801.283 1418.63 802.721 1418.63 804.497" fill="#A3CC32"/>
<path d="M1454.66 789.065C1454.66 787.293 1456.1 785.852 1457.87 785.852C1459.65 785.852 1461.08 787.29 1461.08 789.065" fill="#A3CC32"/>
<path d="M1420.93 761.322C1420.93 759.549 1422.38 758.108 1424.15 758.108C1425.92 758.108 1427.36 759.546 1427.36 761.322" fill="#A3CC32"/>
</g>
<defs>
<clipPath id="clip0_121_1553">
<rect width="1728" height="1117" fill="white"/>
</clipPath>
</defs>
</svg>
